<svg width="165" height="55" fill="none" xmlns="http://www.w3.org/2000/svg"><path d="M65.056 10.172h1.3c1.117 0 2.084.25 2.9.752.824.501 1.436 1.156 1.838 1.966.4.802.601 1.7.601 2.696 0 .752-.14 1.454-.419 2.105a5.057 5.057 0 0 1-1.181 1.72c-.509.493-1.16.884-1.956 1.17-.787.28-1.672.419-2.653.419a11.38 11.38 0 0 1-3.534-.537c-1.096-.365-2.009-.877-2.74-1.536l-.622.462c.802.752 1.804 1.335 3.007 1.75 1.21.423 2.507.634 3.89.634.88 0 1.696-.107 2.448-.322.76-.207 1.411-.498 1.955-.87a5.985 5.985 0 0 0 1.408-1.343 5.48 5.48 0 0 0 .88-1.697c.194-.616.29-1.268.29-1.955 0-.845-.132-1.636-.397-2.374a5.926 5.926 0 0 0-1.15-1.966c-.5-.573-1.142-1.024-1.922-1.353-.774-.33-1.644-.495-2.61-.495h-1.333c-.307 0-.519-.068-.633-.204-.115-.136-.172-.326-.172-.569 0-.243.104-.433.311-.57.215-.135.63-.203 1.246-.203 1.26 0 2.142.114 2.643.343l.623-.472c-.73-.43-1.819-.645-3.266-.645-1.54 0-2.31.516-2.31 1.547 0 .465.123.841.366 1.128.244.28.641.419 1.192.419Zm1.225.773h-1.225c-.837 0-1.443-.211-1.815-.633-.365-.423-.548-.985-.548-1.687 0-.695.247-1.253.741-1.676.502-.43 1.293-.644 2.374-.644 1.676 0 2.962.308 3.857.924l.612-.473c-.508-.394-1.153-.695-1.933-.902a9.525 9.525 0 0 0-2.536-.323c-1.296 0-2.27.287-2.922.86-.644.573-.966 1.317-.966 2.234s.261 1.662.784 2.234c.523.573 1.307.86 2.352.86h1.214c1.246 0 2.202.365 2.868 1.096.674.73 1.01 1.654 1.01 2.77 0 1.132-.4 2.06-1.203 2.783-.795.724-1.948 1.085-3.459 1.085a10.1 10.1 0 0 1-2.879-.397c-.888-.265-1.626-.638-2.213-1.117l-.601.483c.659.573 1.486 1.017 2.481 1.332.996.315 2.066.473 3.212.473 1.719 0 3.054-.437 4.007-1.311.952-.88 1.429-1.99 1.429-3.33 0-1.318-.412-2.42-1.236-3.309-.816-.888-1.951-1.332-3.405-1.332Zm-.043 1.547h-1.182c-1.26 0-2.227-.362-2.9-1.085-.673-.73-1.01-1.658-1.01-2.782 0-1.132.398-2.059 1.193-2.782.802-.724 1.958-1.085 3.47-1.085a9.99 9.99 0 0 1 2.868.397c.887.265 1.625.638 2.212 1.117l.602-.483c-.659-.573-1.486-1.017-2.481-1.332a10.494 10.494 0 0 0-3.202-.473c-1.718 0-3.054.44-4.007 1.322-.952.873-1.428 1.98-1.428 3.319 0 1.34.412 2.45 1.235 3.33.83.874 1.98 1.31 3.448 1.31h1.171c.838 0 1.443.215 1.816.645.372.423.558.981.558 1.676s-.25 1.257-.752 1.687c-.494.422-1.282.633-2.363.633-1.683 0-2.972-.308-3.867-.924l-.612.473c.508.394 1.153.698 1.933.913a9.963 9.963 0 0 0 2.546.312c1.296 0 2.267-.287 2.911-.86.652-.573.978-1.317.978-2.234 0-.902-.262-1.644-.784-2.224-.523-.58-1.307-.87-2.353-.87Zm0 1.547h-1.182c-1.145 0-2.137-.243-2.975-.73-.838-.494-1.461-1.146-1.87-1.955-.407-.81-.612-1.72-.612-2.729 0-.752.136-1.454.409-2.105a5.267 5.267 0 0 1 1.181-1.72c.516-.493 1.167-.88 1.955-1.16.795-.286 1.683-.43 2.664-.43 1.254 0 2.428.184 3.524.549 1.096.358 2.009.866 2.74 1.525l.622-.462c-.802-.752-1.805-1.335-3.008-1.75-1.203-.423-2.496-.635-3.878-.635-.88 0-1.7.108-2.46.323-.752.207-1.403.501-1.955.88a6.073 6.073 0 0 0-1.407 1.333 5.607 5.607 0 0 0-.87 1.697 6.488 6.488 0 0 0-.29 1.955c0 .86.136 1.662.408 2.406a5.98 5.98 0 0 0 1.171 1.966c.516.566 1.17 1.01 1.966 1.332.802.322 1.697.483 2.685.483h1.16c.316 0 .53.072.645.215.122.136.183.323.183.559a.64.64 0 0 1-.323.57c-.207.135-.619.203-1.235.203-1.267 0-2.152-.114-2.653-.343l-.623.472c.73.43 1.822.645 3.276.645 1.54 0 2.31-.516 2.31-1.547 0-.458-.122-.83-.366-1.117-.243-.287-.64-.43-1.192-.43Zm.806 8.132v2.03h-.774v-1.976l.774-.054ZM63.95 24.2v-2.084l.773.108V24.2h-.773ZM67.044.117v2.03l-.774-.053V.117h.774ZM63.95 2.201V.117h.773v1.977l-.773.107Zm17.97 7.97h1.3c1.117 0 2.084.252 2.9.753.824.501 1.436 1.156 1.837 1.966.401.802.602 1.7.602 2.696 0 .752-.14 1.454-.42 2.105a5.057 5.057 0 0 1-1.181 1.72c-.508.493-1.16.884-1.955 1.17-.788.28-1.672.419-2.653.419-1.254 0-2.432-.179-3.535-.537-1.095-.365-2.008-.877-2.739-1.536l-.623.462c.802.752 1.805 1.335 3.008 1.75 1.21.423 2.506.634 3.889.634.88 0 1.697-.107 2.449-.322.759-.207 1.41-.498 1.955-.87a5.985 5.985 0 0 0 1.407-1.343 5.48 5.48 0 0 0 .881-1.697c.193-.616.29-1.268.29-1.955 0-.845-.132-1.636-.397-2.374a5.926 5.926 0 0 0-1.15-1.966c-.501-.573-1.142-1.024-1.923-1.353-.773-.33-1.643-.495-2.61-.495H81.92c-.308 0-.52-.068-.634-.204-.115-.136-.172-.326-.172-.569 0-.243.104-.433.312-.57.215-.135.63-.203 1.246-.203 1.26 0 2.141.114 2.642.343l.624-.472c-.731-.43-1.82-.645-3.266-.645-1.54 0-2.31.516-2.31 1.547 0 .465.122.841.366 1.128.243.28.64.419 1.192.419Zm1.224.774H81.92c-.838 0-1.443-.211-1.816-.633-.365-.423-.547-.985-.547-1.687 0-.695.247-1.253.74-1.676.502-.43 1.294-.644 2.375-.644 1.676 0 2.961.308 3.856.924l.613-.473c-.509-.394-1.153-.695-1.934-.902a9.525 9.525 0 0 0-2.535-.323c-1.296 0-2.27.287-2.922.86-.644.573-.967 1.317-.967 2.234s.262 1.662.784 2.234c.523.573 1.307.86 2.353.86h1.214c1.246 0 2.202.365 2.868 1.096.673.73 1.01 1.654 1.01 2.77 0 1.132-.401 2.06-1.203 2.783-.795.724-1.948 1.085-3.46 1.085a10.1 10.1 0 0 1-2.878-.397c-.888-.265-1.626-.638-2.213-1.117l-.602.483c.66.573 1.486 1.017 2.482 1.332.995.315 2.066.473 3.212.473 1.718 0 3.054-.437 4.006-1.311.953-.88 1.43-1.99 1.43-3.33 0-1.318-.413-2.42-1.236-3.309-.817-.888-1.952-1.332-3.406-1.332Zm-.042 1.547H81.92c-1.26 0-2.227-.362-2.9-1.085-.674-.73-1.01-1.658-1.01-2.782 0-1.132.397-2.059 1.192-2.782.802-.724 1.959-1.085 3.47-1.085 1.024 0 1.98.132 2.868.397.888.265 1.626.638 2.213 1.117l.602-.483c-.66-.573-1.487-1.017-2.482-1.332-.988-.315-2.055-.473-3.201-.473-1.719 0-3.054.44-4.007 1.322-.952.873-1.429 1.98-1.429 3.319 0 1.34.412 2.45 1.236 3.33.83.874 1.98 1.31 3.448 1.31h1.17c.839 0 1.444.215 1.816.645.373.423.559.981.559 1.676s-.25 1.257-.752 1.687c-.494.422-1.282.633-2.363.633-1.683 0-2.972-.308-3.868-.924l-.612.473c.509.394 1.153.698 1.934.913a9.963 9.963 0 0 0 2.546.312c1.296 0 2.266-.287 2.91-.86.652-.573.978-1.317.978-2.234 0-.902-.261-1.644-.784-2.224-.523-.58-1.307-.87-2.352-.87Zm0 1.547H81.92c-1.146 0-2.138-.243-2.976-.73-.838-.494-1.46-1.146-1.869-1.955-.408-.81-.612-1.72-.612-2.729 0-.752.136-1.454.408-2.105a5.267 5.267 0 0 1 1.182-1.72c.515-.493 1.167-.88 1.955-1.16.795-.286 1.683-.43 2.664-.43 1.253 0 2.428.184 3.523.549 1.096.358 2.01.866 2.74 1.525l.623-.462c-.803-.752-1.805-1.335-3.008-1.75-1.203-.423-2.496-.635-3.878-.635-.881 0-1.701.108-2.46.323-.752.207-1.404.501-1.955.88a6.075 6.075 0 0 0-1.407 1.333 5.61 5.61 0 0 0-.87 1.697 6.488 6.488 0 0 0-.29 1.955c0 .86.136 1.662.408 2.406.272.745.662 1.4 1.17 1.966.516.566 1.171 1.01 1.966 1.332.803.322 1.698.483 2.686.483h1.16c.315 0 .53.072.645.215.121.136.182.323.182.559a.64.64 0 0 1-.322.57c-.208.135-.62.203-1.235.203-1.268 0-2.152-.114-2.654-.343l-.623.472c.73.43 1.823.645 3.277.645 1.54 0 2.31-.516 2.31-1.547 0-.458-.123-.83-.366-1.117-.243-.287-.641-.43-1.192-.43Zm.805 8.132v2.03h-.773v-1.976l.773-.054Zm-3.093 2.03v-2.084l.773.108V24.2h-.773ZM83.907.117v2.03l-.773-.053V.117h.773Zm-3.093 2.084V.117h.773v1.977l-.773.107Zm17.97 7.97h1.299c1.117 0 2.084.252 2.901.753.823.501 1.436 1.156 1.837 1.966.401.802.601 1.7.601 2.696 0 .752-.14 1.454-.419 2.105a5.062 5.062 0 0 1-1.181 1.72c-.509.493-1.161.884-1.956 1.17-.787.28-1.672.419-2.653.419a11.38 11.38 0 0 1-3.534-.537c-1.096-.365-2.009-.877-2.74-1.536l-.622.462c.802.752 1.804 1.335 3.008 1.75 1.21.423 2.506.634 3.888.634.881 0 1.697-.107 2.449-.322.759-.207 1.411-.498 1.955-.87a5.983 5.983 0 0 0 1.408-1.343 5.49 5.49 0 0 0 .881-1.697c.193-.616.29-1.268.29-1.955a6.97 6.97 0 0 0-.398-2.374 5.93 5.93 0 0 0-1.149-1.966c-.502-.573-1.143-1.024-1.923-1.353-.774-.33-1.644-.495-2.611-.495h-1.332c-.308 0-.519-.068-.633-.204-.115-.136-.172-.326-.172-.569 0-.243.104-.433.311-.57.215-.135.63-.203 1.246-.203 1.261 0 2.142.114 2.643.343l.623-.472c-.73-.43-1.819-.645-3.266-.645-1.54 0-2.31.516-2.31 1.547 0 .465.123.841.366 1.128.244.28.641.419 1.192.419Zm1.224.774h-1.225c-.838 0-1.443-.211-1.815-.633-.365-.423-.548-.985-.548-1.687 0-.695.247-1.253.741-1.676.502-.43 1.293-.644 2.374-.644 1.676 0 2.962.308 3.857.924l.612-.473c-.508-.394-1.153-.695-1.933-.902a9.53 9.53 0 0 0-2.536-.323c-1.296 0-2.27.287-2.921.86-.645.573-.967 1.317-.967 2.234s.261 1.662.784 2.234c.523.573 1.307.86 2.352.86h1.214c1.246 0 2.202.365 2.868 1.096.674.73 1.01 1.654 1.01 2.77 0 1.132-.401 2.06-1.203 2.783-.795.724-1.948 1.085-3.459 1.085a10.1 10.1 0 0 1-2.879-.397c-.888-.265-1.625-.638-2.213-1.117l-.601.483c.659.573 1.486 1.017 2.481 1.332.996.315 2.066.473 3.212.473 1.719 0 3.054-.437 4.007-1.311.952-.88 1.429-1.99 1.429-3.33 0-1.318-.412-2.42-1.236-3.309-.816-.888-1.951-1.332-3.405-1.332Zm-.043 1.547h-1.182c-1.26 0-2.227-.362-2.9-1.085-.673-.73-1.01-1.658-1.01-2.782 0-1.132.398-2.059 1.193-2.782.802-.724 1.958-1.085 3.47-1.085a9.99 9.99 0 0 1 2.868.397c.888.265 1.625.638 2.212 1.117l.602-.483c-.659-.573-1.486-1.017-2.481-1.332a10.494 10.494 0 0 0-3.202-.473c-1.718 0-3.054.44-4.006 1.322-.953.873-1.43 1.98-1.43 3.319 0 1.34.413 2.45 1.236 3.33.83.874 1.98 1.31 3.448 1.31h1.171c.838 0 1.443.215 1.816.645.372.423.558.981.558 1.676s-.25 1.257-.752 1.687c-.494.422-1.281.633-2.363.633-1.683 0-2.972-.308-3.867-.924l-.612.473c.508.394 1.153.698 1.933.913a9.963 9.963 0 0 0 2.546.312c1.296 0 2.267-.287 2.911-.86.652-.573.978-1.317.978-2.234 0-.902-.262-1.644-.784-2.224-.523-.58-1.307-.87-2.353-.87Zm0 1.547h-1.182c-1.145 0-2.137-.243-2.975-.73-.838-.494-1.461-1.146-1.87-1.955-.407-.81-.612-1.72-.612-2.729 0-.752.137-1.454.409-2.105a5.266 5.266 0 0 1 1.181-1.72c.516-.493 1.168-.88 1.955-1.16.795-.286 1.683-.43 2.664-.43 1.254 0 2.428.184 3.524.549 1.096.358 2.009.866 2.739 1.525l.623-.462c-.802-.752-1.805-1.335-3.008-1.75-1.203-.423-2.495-.635-3.878-.635-.88 0-1.7.108-2.46.323-.752.207-1.403.501-1.955.88a6.073 6.073 0 0 0-1.407 1.333 5.61 5.61 0 0 0-.87 1.697 6.492 6.492 0 0 0-.29 1.955c0 .86.136 1.662.408 2.406.272.745.663 1.4 1.171 1.966.516.566 1.171 1.01 1.966 1.332.802.322 1.697.483 2.685.483h1.16c.316 0 .531.072.645.215.122.136.183.323.183.559a.64.64 0 0 1-.323.57c-.207.135-.619.203-1.235.203-1.267 0-2.152-.114-2.653-.343l-.623.472c.73.43 1.822.645 3.276.645 1.54 0 2.31-.516 2.31-1.547 0-.458-.122-.83-.366-1.117-.243-.287-.64-.43-1.192-.43Zm.806 8.132v2.03h-.774v-1.976l.774-.054Zm-3.094 2.03v-2.084l.773.108V24.2h-.773ZM100.771.117v2.03l-.774-.053V.117h.774Zm-3.094 2.084V.117h.773v1.977l-.773.107Z" fill="#EEDBAA"/><path d="m14.917 41.291-.634.419a4.12 4.12 0 0 0-1.514-1.354 4.122 4.122 0 0 0-2.01-.504c-1.174 0-2.176.415-3.007 1.246-.83.83-1.246 1.833-1.246 3.008 0 1.174.415 2.177 1.246 3.007.83.831 1.833 1.246 3.008 1.246.723 0 1.393-.168 2.009-.505a4.212 4.212 0 0 0 1.514-1.364l.623.451a4.985 4.985 0 0 1-1.783 1.601c-.73.394-1.518.59-2.363.59-.68 0-1.332-.132-1.955-.397a5.072 5.072 0 0 1-1.6-1.074 5.071 5.071 0 0 1-1.075-1.6 4.945 4.945 0 0 1-.398-1.956c0-.68.133-1.328.398-1.944a5.042 5.042 0 0 1 1.074-1.611c.451-.451.985-.81 1.6-1.074a4.945 4.945 0 0 1 1.956-.398c.852 0 1.643.2 2.374.602.73.394 1.325.93 1.783 1.611Zm1.278-.88-.644.418a5.732 5.732 0 0 0-2.063-1.837 5.595 5.595 0 0 0-2.728-.687 5.635 5.635 0 0 0-2.911.784 5.793 5.793 0 0 0-2.117 2.105 5.695 5.695 0 0 0-.773 2.911c0 1.053.258 2.024.773 2.912a5.877 5.877 0 0 0 2.117 2.116 5.695 5.695 0 0 0 2.91.773c.982 0 1.895-.229 2.74-.687a5.79 5.79 0 0 0 2.063-1.859l.633.44a6.5 6.5 0 0 1-2.341 2.106 6.396 6.396 0 0 1-3.094.774 6.445 6.445 0 0 1-3.298-.881 6.514 6.514 0 0 1-2.396-2.396 6.445 6.445 0 0 1-.88-3.297c0-1.19.293-2.289.88-3.298a6.515 6.515 0 0 1 2.396-2.396 6.446 6.446 0 0 1 3.298-.88c1.11 0 2.141.257 3.094.773a6.499 6.499 0 0 1 2.341 2.105Zm1.29-.86-.645.419a7.246 7.246 0 0 0-2.621-2.342 7.13 7.13 0 0 0-3.46-.87 7.23 7.23 0 0 0-2.857.58 7.37 7.37 0 0 0-2.352 1.568 7.321 7.321 0 0 0-1.558 2.342 7.23 7.23 0 0 0-.58 2.858c0 .995.194 1.947.58 2.857a7.45 7.45 0 0 0 1.558 2.352 7.45 7.45 0 0 0 2.352 1.558c.91.387 1.862.58 2.858.58 1.246 0 2.402-.29 3.47-.87a7.367 7.367 0 0 0 2.61-2.352l.623.461a8.113 8.113 0 0 1-2.89 2.59 7.94 7.94 0 0 1-3.813.945 7.968 7.968 0 0 1-4.071-1.085 8.173 8.173 0 0 1-2.965-2.965 7.968 7.968 0 0 1-1.085-4.072c0-1.468.361-2.825 1.085-4.07a8.09 8.09 0 0 1 2.965-2.955 7.908 7.908 0 0 1 4.07-1.096 7.89 7.89 0 0 1 3.836.967 8.075 8.075 0 0 1 2.89 2.6Zm1.267-.881-.644.419a8.822 8.822 0 0 0-3.17-2.836 8.672 8.672 0 0 0-4.178-1.042 8.693 8.693 0 0 0-3.46.709 8.863 8.863 0 0 0-2.835 1.89 8.98 8.98 0 0 0-1.901 2.847 8.73 8.73 0 0 0-.699 3.449 8.8 8.8 0 0 0 .699 3.459 9.009 9.009 0 0 0 1.9 2.835 9.01 9.01 0 0 0 2.837 1.902A8.807 8.807 0 0 0 10.76 53c1.497 0 2.893-.35 4.19-1.053a8.919 8.919 0 0 0 3.168-2.846l.623.472a9.728 9.728 0 0 1-3.437 3.072 9.474 9.474 0 0 1-4.544 1.128A9.399 9.399 0 0 1 7 53a9.8 9.8 0 0 1-3.083-2.052 9.95 9.95 0 0 1-2.062-3.083 9.512 9.512 0 0 1-.763-3.76c0-1.31.254-2.56.763-3.749.515-1.196 1.203-2.223 2.062-3.083A9.708 9.708 0 0 1 7 35.211a9.399 9.399 0 0 1 3.76-.773c1.633 0 3.15.38 4.555 1.138a9.652 9.652 0 0 1 3.437 3.094Zm10.934 9.11.311-.774h2.643l.311.773h-3.265Zm-.602 1.546.301-.773h3.857l.333.773h-4.49Zm-.601 1.547.3-.773h5.07l.323.773h-5.693ZM22.198 53h-.837l7.036-17.79h.838L36.26 53h-.827l-6.617-16.747L22.199 53Zm6.714-14.91.44.988L23.853 53h-.826l5.886-14.91Zm.86 2.04.408 1.064L25.529 53h-.838l5.08-12.87Zm.816 2.128.408 1.085L27.183 53h-.827l4.232-10.742ZM41.255 53h-.838l-7.025-17.79h.827L41.255 53Zm-8.701-17.79L39.59 53h-.827l-7.036-17.79h.827Zm-1.665 0L37.925 53h-.838l-7.025-17.79h.827Zm20.666 6.962h-1.3c-.551 0-.949-.14-1.192-.42-.244-.285-.365-.662-.365-1.127 0-1.031.77-1.547 2.31-1.547 1.446 0 2.534.215 3.265.645l-.623.472c-.501-.229-1.382-.343-2.643-.343-.615 0-1.03.068-1.246.204a.644.644 0 0 0-.311.569c0 .243.057.433.172.57.114.135.325.203.633.203h1.332c.967 0 1.837.165 2.61.495.781.329 1.422.78 1.924 1.353a5.924 5.924 0 0 1 1.149 1.966 6.97 6.97 0 0 1 .397 2.374c0 .687-.096 1.34-.29 1.955a5.48 5.48 0 0 1-.88 1.697 5.985 5.985 0 0 1-1.408 1.343c-.544.372-1.196.662-1.955.87a8.888 8.888 0 0 1-2.449.322c-1.382 0-2.678-.21-3.889-.633-1.203-.416-2.205-1-3.007-1.751l.623-.462c.73.659 1.643 1.17 2.739 1.536 1.103.358 2.28.537 3.534.537.981 0 1.866-.14 2.653-.419.795-.286 1.447-.677 1.956-1.17a5.057 5.057 0 0 0 1.181-1.72c.28-.651.42-1.353.42-2.105 0-.995-.202-1.894-.603-2.696-.4-.81-1.013-1.465-1.836-1.966-.817-.502-1.784-.752-2.9-.752Zm-1.3.773h1.225c1.454 0 2.589.444 3.405 1.332.824.888 1.236 1.991 1.236 3.309 0 1.34-.477 2.45-1.43 3.33-.952.874-2.287 1.31-4.006 1.31-1.146 0-2.216-.157-3.212-.472-.995-.315-1.822-.76-2.481-1.332l.601-.483c.587.48 1.325.852 2.213 1.117a10.1 10.1 0 0 0 2.88.397c1.51 0 2.663-.361 3.458-1.085.802-.723 1.203-1.65 1.203-2.782 0-1.117-.336-2.041-1.01-2.771-.666-.731-1.622-1.096-2.868-1.096h-1.214c-1.045 0-1.83-.287-2.352-.86-.523-.573-.784-1.317-.784-2.234s.322-1.661.967-2.234c.651-.573 1.625-.86 2.921-.86.91 0 1.755.108 2.535.322.781.208 1.426.509 1.934.903l-.612.472c-.895-.615-2.18-.923-3.857-.923-1.081 0-1.872.215-2.374.644-.494.423-.74.981-.74 1.676 0 .702.182 1.264.547 1.687.372.422.977.633 1.815.633Zm0 1.547h1.182c1.046 0 1.83.29 2.353.87.522.58.784 1.322.784 2.224 0 .917-.326 1.661-.978 2.234-.644.573-1.615.86-2.91.86-.91 0-1.76-.104-2.547-.312-.78-.215-1.425-.519-1.933-.913l.612-.473c.895.616 2.184.924 3.867.924 1.081 0 1.87-.211 2.363-.633.502-.43.752-.992.752-1.687 0-.695-.186-1.253-.558-1.676-.373-.43-.978-.644-1.816-.644h-1.17c-1.469 0-2.618-.437-3.449-1.31-.823-.882-1.235-1.992-1.235-3.331 0-1.34.476-2.446 1.428-3.32.953-.88 2.289-1.32 4.007-1.32 1.146 0 2.213.157 3.202.472.995.315 1.822.76 2.481 1.332l-.602.483c-.587-.48-1.325-.852-2.212-1.117a9.986 9.986 0 0 0-2.869-.397c-1.51 0-2.667.361-3.47 1.085-.794.723-1.192 1.65-1.192 2.782 0 1.124.337 2.052 1.01 2.782.673.724 1.64 1.085 2.9 1.085Zm0 1.547h1.182c.552 0 .949.143 1.192.43.244.286.366.659.366 1.117 0 1.031-.77 1.547-2.31 1.547-1.454 0-2.546-.215-3.276-.645l.623-.472c.501.229 1.386.343 2.653.343.616 0 1.028-.068 1.235-.204a.64.64 0 0 0 .323-.57c0-.235-.061-.422-.183-.558-.114-.143-.33-.215-.645-.215h-1.16c-.988 0-1.883-.16-2.685-.483-.795-.322-1.45-.766-1.966-1.332a5.98 5.98 0 0 1-1.17-1.966 6.958 6.958 0 0 1-.41-2.406c0-.688.098-1.34.291-1.955a5.606 5.606 0 0 1 .87-1.697c.394-.516.863-.96 1.407-1.332.552-.38 1.203-.674 1.955-.881a9 9 0 0 1 2.46-.322c1.383 0 2.675.21 3.878.633 1.203.416 2.206 1 3.008 1.751l-.623.462c-.73-.659-1.644-1.167-2.74-1.525a11.074 11.074 0 0 0-3.523-.548c-.98 0-1.869.143-2.664.43-.788.279-1.44.666-1.955 1.16a5.265 5.265 0 0 0-1.181 1.718 5.407 5.407 0 0 0-.409 2.106c0 1.01.204 1.92.613 2.728.408.81 1.03 1.462 1.869 1.956.838.487 1.83.73 2.975.73Zm27.907-10.828h.773V53h-.773V35.21Zm-17.016 0h.774V53h-.774V35.21Zm15.469 0h.773V53h-.773V35.21Zm-1.547 0h.774V53h-.774V35.21Zm-1.547 0h.774V53h-.774v-6.972h-6.96V53h-.774V35.21h.773v6.951h6.961v-6.95Zm-9.281 0h.773V53h-.773V35.21Zm-1.547 0h.774V53h-.774V35.21Zm10.828 10.044v-.774h-6.96v.774h6.96Zm0-1.547v-.773h-6.96v.773h6.96ZM92.295 53h-.773V35.21h8.561v.774h-7.788v.774h7.788v.773h-7.788v.774h7.788v.773h-7.788v3.867h7.423v.774h-7.423v.773h7.423v.774h-7.423v.773h7.423v.773h-7.423V53Zm-1.547 0h-.773V35.21h.773V53Zm-1.547 0h-.773V35.21h.773V53Zm-1.546 0h-.774V35.21h.773V53Zm16.025-17.79h.774V53h-.774V35.21Zm4.641 0h.773v13.923h6.188v.773h-6.188v.774h6.188v.773h-6.188v.774h6.188V53h-6.961V35.21Zm-1.547 0h.773V53h-.773V35.21Zm-1.547 0H106V53h-.773V35.21Zm19.796 5.888c-.831.83-1.246 1.833-1.246 3.008 0 1.174.415 2.177 1.246 3.007.831.831 1.833 1.246 3.008 1.246 1.174 0 2.177-.415 3.008-1.246.831-.83 1.246-1.833 1.246-3.008 0-1.174-.415-2.177-1.246-3.007-.831-.831-1.834-1.246-3.008-1.246-1.175 0-2.177.415-3.008 1.246Zm-1.622 4.962a4.944 4.944 0 0 1-.397-1.955c0-.68.132-1.328.397-1.944a5.044 5.044 0 0 1 1.074-1.611 5.07 5.07 0 0 1 3.556-1.472c.68 0 1.328.133 1.944.398.623.265 1.16.623 1.612 1.074a5.04 5.04 0 0 1 1.074 1.611c.265.616.397 1.264.397 1.944a4.95 4.95 0 0 1-.397 1.956 5.074 5.074 0 0 1-1.074 1.6 5.04 5.04 0 0 1-1.612 1.074 4.87 4.87 0 0 1-1.944.398 5.071 5.071 0 0 1-3.556-1.472 5.074 5.074 0 0 1-1.074-1.6Zm-.397-4.866a5.692 5.692 0 0 0-.774 2.911c0 1.053.258 2.024.774 2.912a5.87 5.87 0 0 0 2.116 2.116 5.694 5.694 0 0 0 2.911.773 5.694 5.694 0 0 0 2.911-.773 5.797 5.797 0 0 0 2.106-2.116 5.642 5.642 0 0 0 .784-2.912 5.643 5.643 0 0 0-.784-2.91 5.714 5.714 0 0 0-2.106-2.106 5.634 5.634 0 0 0-2.911-.784 5.634 5.634 0 0 0-2.911.784 5.786 5.786 0 0 0-2.116 2.105Zm-.666 6.21a6.437 6.437 0 0 1-.881-3.299c0-1.188.293-2.288.881-3.297a6.51 6.51 0 0 1 2.395-2.396 6.446 6.446 0 0 1 3.298-.88c1.189 0 2.288.293 3.298.88a6.51 6.51 0 0 1 2.395 2.396 6.437 6.437 0 0 1 .881 3.297 6.437 6.437 0 0 1-.881 3.298 6.509 6.509 0 0 1-2.395 2.396 6.445 6.445 0 0 1-3.298.88 6.445 6.445 0 0 1-3.298-.88 6.509 6.509 0 0 1-2.395-2.396Zm-1.075-6.156a7.242 7.242 0 0 0-.58 2.858c0 .995.194 1.947.58 2.857a7.45 7.45 0 0 0 1.558 2.352 7.448 7.448 0 0 0 2.353 1.558c.909.387 1.862.58 2.857.58.995 0 1.948-.193 2.857-.58a7.309 7.309 0 0 0 2.342-1.558 7.361 7.361 0 0 0 1.569-2.352c.386-.91.58-1.862.58-2.858 0-.995-.194-1.947-.58-2.857a7.236 7.236 0 0 0-1.569-2.342 7.22 7.22 0 0 0-2.342-1.568 7.227 7.227 0 0 0-2.857-.58c-.995 0-1.948.193-2.857.58-.91.387-1.694.91-2.353 1.568a7.322 7.322 0 0 0-1.558 2.342Zm-.268 6.929a7.971 7.971 0 0 1-1.085-4.072c0-1.468.362-2.825 1.085-4.07a8.087 8.087 0 0 1 2.965-2.955 7.907 7.907 0 0 1 4.071-1.096c1.468 0 2.825.366 4.071 1.096a8.006 8.006 0 0 1 2.954 2.954 7.903 7.903 0 0 1 1.096 4.072 7.903 7.903 0 0 1-1.096 4.07 8.088 8.088 0 0 1-2.954 2.966 7.967 7.967 0 0 1-4.071 1.085 7.967 7.967 0 0 1-4.071-1.085 8.17 8.17 0 0 1-2.965-2.965Zm-1.16-7.52a8.721 8.721 0 0 0-.699 3.449 8.8 8.8 0 0 0 .699 3.459 8.995 8.995 0 0 0 1.901 2.835 9.008 9.008 0 0 0 2.836 1.902 8.808 8.808 0 0 0 3.459.698 8.726 8.726 0 0 0 3.448-.698 8.98 8.98 0 0 0 2.847-1.902 8.87 8.87 0 0 0 1.891-2.835 8.703 8.703 0 0 0 .709-3.46 8.627 8.627 0 0 0-.709-3.448 8.842 8.842 0 0 0-1.891-2.846 8.834 8.834 0 0 0-2.847-1.891 8.613 8.613 0 0 0-3.448-.71 8.694 8.694 0 0 0-3.459.71 8.861 8.861 0 0 0-2.836 1.89 8.966 8.966 0 0 0-1.901 2.847Zm-.709 7.208a9.503 9.503 0 0 1-.763-3.76c0-1.31.254-2.56.763-3.749.515-1.196 1.203-2.223 2.062-3.083a9.71 9.71 0 0 1 3.083-2.062 9.398 9.398 0 0 1 3.76-.773c1.311 0 2.56.257 3.749.773a9.545 9.545 0 0 1 3.083 2.062c.867.86 1.554 1.887 2.063 3.083a9.333 9.333 0 0 1 .773 3.75c0 1.31-.258 2.563-.773 3.76a9.708 9.708 0 0 1-2.063 3.082c-.859.86-1.887 1.544-3.083 2.052a9.322 9.322 0 0 1-3.749.773 9.398 9.398 0 0 1-3.76-.773 9.802 9.802 0 0 1-3.083-2.052 9.944 9.944 0 0 1-2.062-3.083Zm25.908-.333-.365 1.526-3.674-13.847h.795l3.244 12.321Zm.806-2.975-.398 1.482-2.846-10.828h.784l2.46 9.346Zm.805-3.083-.408 1.504-2.051-7.767h.805l1.654 6.263ZM149.707 53h-.806l4.705-17.768-.01-.021h.816v.021l2.095 7.22 1.923-7.241h.805L154.52 53h-.806l-2.106-7.208L149.707 53Zm-1.611 0h-.795l4.705-17.79h.795L148.096 53Zm-1.601 0h-.795l4.716-17.79h.784L146.495 53Zm12.837 0h-.806l4.705-17.79h.806L159.332 53Zm-1.611 0h-.795l4.705-17.79h.795L157.721 53Zm-1.601 0h-.795l4.716-17.79h.784L156.12 53Zm-11.623-1.525 4.308-16.264h.805L144.895 53h-.806l-4.705-17.79h.805l4.308 16.265Zm7.52-7.198 2.084 7.262.408-1.536-2.095-7.24-.397 1.514Zm.794-3.029 2.095 7.24.408-1.514-2.094-7.251-.409 1.525Zm.795-3.008 2.106 7.24.397-1.525-2.084-7.262-.419 1.547Z" fill="#EAD295"/></svg>