<svg width="218" height="108" fill="none" xmlns="http://www.w3.org/2000/svg"><path d="M14.647 98v-.576l3.312-1.44v-8.892c-.816.264-1.716.492-2.7.684-.96.192-2.076.288-3.348.288-1.632 0-3.072-.228-4.32-.684-1.224-.456-2.184-1.26-2.88-2.412-.672-1.176-1.008-2.832-1.008-4.968v-3.672L.75 74.816v-.576h9.072v.576l-2.88 1.512v3.888c0 1.488.192 2.664.576 3.528.408.84 1.056 1.44 1.944 1.8.888.36 2.064.54 3.528.54.84 0 1.68-.048 2.52-.144a9.251 9.251 0 0 0 2.448-.684v-8.928l-2.88-1.512v-.576h9v.576l-2.88 1.512v19.656l2.88 1.44V98h-9.432Zm12.976 0v-.576l1.836-.936 7.993-18.828h1.512l7.956 18.792 2.087.972V98H41.16v-.576l2.52-1.008-2.269-5.472h-7.488l-2.268 5.544 2.664.936V98h-6.696Zm7.056-8.856h5.977l-3.024-7.272-2.953 7.272ZM52.541 98v-.576l2.556-1.188V79.604l-2.556-1.188v-.576h8.28v.576l-2.664 1.188v13.5l11.088-12.312v-1.188l-2.664-1.188v-.576h8.244v.576l-2.52 1.188v16.632l2.52 1.188V98h-8.244v-.576l2.664-1.188V82.988L58.157 95.264v.972l2.664 1.188V98h-8.28Zm5.112-29.232h3.096c0 1.512.228 2.664.684 3.456.48.768 1.236 1.152 2.268 1.152 1.032 0 1.776-.384 2.232-1.152.48-.792.72-1.944.72-3.456h3.096c0 1.824-.516 3.288-1.548 4.392-1.032 1.08-2.532 1.62-4.5 1.62s-3.468-.54-4.5-1.62c-1.032-1.104-1.548-2.568-1.548-4.392ZM79.506 98v-.576l2.556-1.188V79.604l-2.556-1.188v-.576h8.28v.576l-2.664 1.188v7.056h10.764v-7.056l-2.664-1.188v-.576h8.244v.576l-2.52 1.188v16.632l2.52 1.188V98h-8.244v-.576l2.664-1.188V88.46H85.122v7.776l2.664 1.188V98h-8.28Zm25.496 0v-.576l1.836-.936 7.992-18.828h1.512l7.956 18.792 2.088.972V98h-7.848v-.576l2.52-1.008-2.268-5.472h-7.488l-2.268 5.544 2.664.936V98h-6.696Zm7.056-8.856h5.976l-3.024-7.272-2.952 7.272ZM132.79 98v-.576l3.204-1.188V79.64h-5.544l-1.764 4.212h-.576V77.84h18.864v6.012h-.576l-1.8-4.212h-5.544v16.596l3.24 1.188V98h-9.504Zm15.912 0v-.576l1.836-.936 7.992-18.828h1.512l7.956 18.792 2.088.972V98h-7.848v-.576l2.52-1.008-2.268-5.472h-7.488l-2.268 5.544 2.664.936V98h-6.696Zm7.056-8.856h5.976l-3.024-7.272-2.952 7.272Zm23.474 7.308c-.72.792-1.332 1.296-1.836 1.512-.504.216-.984.324-1.44.324-.48 0-.78-.06-.9-.18s-.18-.348-.18-.684v-1.872l.144-.144h.324c1.176 0 2.064-.216 2.664-.648.6-.456 1.14-1.14 1.62-2.052l-7.632-13.212-2.34-1.08v-.576h8.208v.576l-2.808 1.08.036.072 5.76 9.972h.54l5.184-10.08.036-.072-2.664-.972v-.576h6.732v.576l-2.088 1.008-6.516 12.384a50.834 50.834 0 0 1-1.548 2.772c-.456.792-.888 1.416-1.296 1.872ZM193.553 98v-.576l2.556-1.188V79.604l-2.556-1.188v-.576h8.28v.576l-2.664 1.188v7.056h10.764v-7.056l-2.664-1.188v-.576h8.244v.576l-2.52 1.188v16.632l2.52 1.188V98h-8.244v-.576l2.664-1.188V88.46h-10.764v7.776l2.664 1.188V98h-8.28ZM138.926.929c-.26.102-26.35 10.024-60.919-.023a.785.785 0 0 0-.993.905l1.36 7.063a.787.787 0 0 0 .576.613c1.754.457 3.487.845 5.209 1.206v5.986h-5.133a.787.787 0 0 0-.788.788v6.089c0 .435.353.787.788.787h5.145V55.95h-.381a.787.787 0 0 0-.788.788v6.349c0 .435.354.788.788.788h8.105a.787.787 0 0 0 .787-.788v-6.35a.788.788 0 0 0-.787-.788h-.596V24.342H125.7V55.95h-.596a.788.788 0 0 0-.788.788v6.35c0 .434.353.787.788.787h8.128a.788.788 0 0 0 .788-.788v-6.35a.788.788 0 0 0-.788-.787h-.404l-.001-31.607h5.146a.787.787 0 0 0 .787-.788v-6.089a.787.787 0 0 0-.787-.787h-5.133V10.75c3.293-.684 5.174-1.253 5.244-1.274a.788.788 0 0 0 .54-.604l1.361-7.063a.787.787 0 0 0-1.06-.881ZM85.733 11.012c1.343.261 2.673.497 3.99.705v4.963h-3.99v-5.668Zm26.526 5.667v-3.56c5.098-.155 9.642-.602 13.443-1.135v4.695h-13.443Zm-1.574 0h-4.369V13.15c.719.013 1.444.03 2.146.03.753 0 1.491-.01 2.223-.022v3.521Zm-5.945 0H91.299v-4.721c4.693.675 9.202 1.034 13.442 1.16l-.001 3.561ZM91.107 62.3h-6.53v-4.775h6.53V62.3Zm-1.384-6.35h-3.977V24.343h3.977v31.606Zm42.722 6.35h-6.553v-4.775h6.553V62.3Zm-1.192-6.35h-3.977V24.343h3.977v31.606Zm5.933-33.181H79.812v-4.514h57.374v4.513Zm-5.92-6.09h-3.99v-4.925a112.56 112.56 0 0 0 3.99-.687v5.613Zm5.903-8.575c-3.61 1.01-28.437 7.363-57.343-.016l-1.024-5.316c30.072 8.38 53.676 1.93 59.379.08l-1.012 5.252Z" fill="#EAD295"/></svg>