<svg width="137" height="47" fill="none" xmlns="http://www.w3.org/2000/svg"><path d="M63.04 36.688V39h-3.876L50.63 26.318v10.37h2.21V39H45.7v-2.312h2.142V15.812H45.7V13.5h7.14v2.312h-2.346v9.486l8.67-11.798h3.672v2.312h-2.278l-7.072 9.928 7.378 10.948h2.176Zm17.237 0h2.176V39h-4.828V26.454L70.179 39h-4.76v-2.38h2.176V24.38h-2.176V22h4.794v12.444L77.625 22h4.828v2.38h-2.176v12.308Zm7.27 0h2.652V24.414h-2.992v3.162h-2.38V22h13.43v5.576h-2.312v-3.162h-3.06v12.274h2.652V39h-7.99v-2.312Zm27.142 0V39h-11.832c-1.156 0-1.926-.227-2.312-.68-.385-.408-.578-1.179-.578-2.312V34.75c0-.816.102-1.371.306-1.666.295-.43.964-.963 2.006-1.598l7.48-4.658v-2.516h-6.664v1.972h-2.176V22h8.5c1.156 0 1.961.25 2.414.748.476.499.714 1.224.714 2.176v11.764h2.142Zm-4.93-7.14-7.072 4.42v2.72h7.072v-7.14Zm22.68 7.14h2.176V39h-4.828V26.454L122.341 39h-4.76v-2.38h2.176V24.38h-2.176V22h4.794v12.444L129.787 22h4.828v2.38h-2.176v12.308Zm-.986-21.386c0 1.473-.51 2.709-1.53 3.706-1.043.997-2.267 1.496-3.672 1.496-1.451 0-2.686-.51-3.706-1.53s-1.53-2.244-1.53-3.672h1.802c0 .907.328 1.7.986 2.38.68.657 1.496.986 2.448.986.929 0 1.722-.329 2.38-.986.68-.68 1.02-1.473 1.02-2.38h1.802ZM2.66 8.778a.467.467 0 0 0 .467-.437.464.464 0 0 0-.442-.485c-.672-.035-1.208-.326-1.506-.817a1.738 1.738 0 0 1-.083-1.628 1.672 1.672 0 0 1 1.13-.909c.662-.154 1.41.075 2.16.665.864.679 1.888 1.497 2.974 2.366.2.162.494.13.656-.068a.459.459 0 0 0-.068-.65 407.747 407.747 0 0 0-2.98-2.37c-1.24-.975-2.291-.995-2.957-.841-.77.18-1.43.71-1.762 1.42a2.662 2.662 0 0 0 .13 2.49c.463.763 1.264 1.212 2.258 1.264h.024Zm10.753.945a.471.471 0 0 0 .638-.168c.265-.453.593-.72.95-.77a.857.857 0 0 1 .697.22.897.897 0 0 1 .268.788c-.049.29-.247.518-.57.664a.46.46 0 0 0 .194.882.477.477 0 0 0 .194-.041c.608-.275 1-.755 1.101-1.35a1.815 1.815 0 0 0-.542-1.611 1.806 1.806 0 0 0-1.476-.465c-.64.091-1.217.525-1.625 1.222a.458.458 0 0 0 .171.63ZM4.57 27.383l-3.933-.025c.28.458.67 1.273.868 2.328a17.592 17.592 0 0 0 3.063-2.3l.001-.003Zm9.297-13.757-3.543-.042c.334.648.88 2.029.717 3.842a39.384 39.384 0 0 1 2.826-3.8Zm-5.923 9.142s.127-.174.224-.424l-4.376.133a6.94 6.94 0 0 1 1.075 4.603c1.48-1.446 3.077-4.312 3.077-4.312Zm5.149.447c-.084.143-.166.284-.246.416-.753 1.24-1.186 1.374-2.723 1.684-.668.136-1.063.477-1.322.853.448-.235.893-.458 1.396-.584.682-.17 1.39-.236 2.068-.412.967-.25 1.744-.701 2.29-1.337a9.953 9.953 0 0 1-.4-2.154c-.387.383-.74.985-1.063 1.534Zm-4.721-1.191c.164-.288.329-.574.486-.865.635-1.168 1.959-3.413 1.975-3.492l-3.787-.005c.495.741 1.366 2.353 1.326 4.362Zm7.06 3.729c-.383.417-.529.955-.667 1.523-.13.539-.266 1.094-.642 1.5-.853.924-1.507 1.017-2.336 1.132-.369.052-.788.11-1.297.251-.138.039-1.104.422-1.194.46 2.095-.134 6.548-.562 8.058-2.924a6.701 6.701 0 0 1-1.922-1.942Zm23.46 2.035c.015.687-.343 1.402-.803 1.754 1.212-.322 2.404-1.146 2.746-1.89-.524.304-1.373.502-1.943.136Zm2.888-2.608c-1.09 0-2.387-.201-4.021-.852-3.775-1.5-8.333-1.524-11.223-.317 1.16.39 4.396.025 5.205.049 1.834.054 3.432.288 4.809.78 1.16.413 1.857 1.267 2.146 1.633 1.358.356 2.798.242 3.774-.2a2.863 2.863 0 0 0 1.53-1.75c-.618.463-1.504.657-2.22.658ZM22.175 9.76c-.49.065-.986.155-1.493.288.368.21.713.531.959.944.46.774.486 1.665.123 2.495a7.398 7.398 0 0 0 1.486.058l.001-.01c.466-.831.407-1.893-.157-2.84-.264-.442-.6-.772-.92-.935Zm19.817 9.69c-.493.593-1.527.807-2.447.813.42.199.987.542 1.268.96.362.536.438 1.097.297 2.01.867-.643 1.61-2.23.882-3.784Zm-21.368 9.407c.334.556.077 1.637-.394 2.141-1.075 1.147-1.556 1.727-1.604 2.918.951-1.25 1.572-1.727 3.135-2.002.845-.148 1.328-.95 1.715-1.592l.188-.309c.262-.404.651-.984 1.17-1.494a14.441 14.441 0 0 1-3.178.387 8.704 8.704 0 0 1-1.032-.049Zm7.66 1.613c.973-2.034 2.645-1.931 2.745-3.365a14.6 14.6 0 0 0-2.454.258c.472 1.124-.484 2.092-.291 3.108Zm-3.047-2.058c.309.631.519 1.567.107 2.305-.485.87-.468 1.184-.431 1.56l.07-.093c.525-.705.98-1.311 1.72-1.83.505-.354.723-.907.936-1.539l.048-.14c.137-.405.287-.835.525-1.231-.76.17-1.485.393-2.129.674-.256.11-.545.208-.846.294Z" fill="#EAD295"/><path d="M37.013 25.731c-1.515-.978-5.194-1.085-5.231-1.086l-2.537.085c-.257.023-2.799.23-4.013-.8a1.743 1.743 0 0 1-.64-1.265c-.047-.833.175-1.515.66-2.028.555-.585 1.452-.915 2.528-.927 2.353-.029 4.988.02 5.014.02.039.001 3.042.104 5.97.07 2.467-.03 3.695-.887 3.754-2.616l.008-.24c.061-1.556.015-2.517-1.621-2.657-.442-.04-.908.068-1.375.244C36.804 4.483 27.22.886 21.07.348a.462.462 0 0 0-.38-.264 17.291 17.291 0 0 0-1.603-.04.466.466 0 0 0-.457.473c.008.254.247.447.48.45a16.59 16.59 0 0 1 1.546.039.46.46 0 0 0 .373-.198c5.92.518 15.095 3.93 17.922 13.399.072.24.258 1.1.283 1.288.038.28.071.565.097.855a.446.446 0 0 1 .262.367c.023.265.04.533.05.808a.465.465 0 0 1-.45.478h-.017a.463.463 0 0 1-.466-.445c-.01-.258-.026-.511-.047-.763a.454.454 0 0 1 .202-.41c-.046-.505-.128-1.06-.26-1.435-.27.138-.46.243-.716.384-.503.277-.977.538-1.424.702-1.318.486-2.21.635-4.598.492a.46.46 0 0 1-.192-.868c.622-.328.959-.76 1.029-1.319.135-1.062-.71-2.365-1.553-3.124-.466-.42-1.06-.751-1.75-1.012.124.196.235.403.308.626.172.527.26 1.348-.2 2.332.305.177.577.392.788.661a.228.228 0 0 1-.034.318c-.266.22-.4.356-.545.622a.231.231 0 0 1-.205.122.23.23 0 0 1-.206-.34c.098-.183.197-.32.317-.447.049-.053.114-.194.007-.29-.283-.229-.546-.351-.55-.354-.96-.46-2.325-.45-3.73.094-1.256.484-2.551.6-3.956.357a.231.231 0 0 1-.19-.266.567.567 0 0 1 .038-.102c.58-1.034.247-1.893-.004-2.313-.316-.531-.826-.899-1.28-.957-1.04.355-2.127.924-3.28 1.818a1640.26 1640.26 0 0 0 4.155 3.214.459.459 0 0 1-.288.825.46.46 0 0 1-.274-.091c-1.795-1.392-8.077-6.268-9.462-7.373-.66-.527-1.006-1.12-.998-1.711a1.44 1.44 0 0 1 .57-1.123 1.575 1.575 0 0 1 1.422-.24c.34.113.788.399.99 1.12a.468.468 0 0 0 .9-.25c-.244-.865-.81-1.486-1.594-1.744a2.523 2.523 0 0 0-2.286.38 2.365 2.365 0 0 0-.935 1.844c-.01.619.217 1.544 1.344 2.442a449.232 449.232 0 0 0 4.667 3.663c-.13.122-.261.244-.383.374a1484.61 1484.61 0 0 0 5.142 3.976.232.232 0 0 1-.287.364c-.035-.026-2.222-1.71-4.8-3.712-1.677 1.82-3.497 4.402-5.512 8.109-1.654 3.043-3.802 6.123-7.335 8.226.317 2.625 1.42 4.378 3.43 6.002 2.278 1.839 7.371 3.714 10.175 1.726.999-.708 1.47-1.603 1.588-2.851.136-1.426.265-2.77 1.305-3.85.89-.922 1.52-1.776 1.856-2.478-.706.28-1.4.617-2.025 1.046-.581.396-1.046.954-1.679 1.276-.957.487-2.085.667-3.152.61-.768-.04-1.474-.351-2.209-.538a9.323 9.323 0 0 0-1.954-.269c-.482-.018-.964 0-1.444.049.659-.668 2.59-1.34 2.759-1.388 1.106-.306 2.514-.243 3.335-1.168.35-.396.489-.88.61-1.379.06-.242.122-.493.207-.742-.051.15-.563.309-.705.355-.226.073-.461.11-.698.117-.813.028-1.591-.24-2.382-.377a3.662 3.662 0 0 0-1.949.171 3.077 3.077 0 0 0-1.009.635c.05-.701.591-1.954 2.256-2.466.513-.158 1.035-.252 1.502-.528.516-.307.838-.786 1.126-1.294.284-.501.58-1.01.956-1.45.204-.24.44-.39.677-.585a.466.466 0 0 1 .273-.114c.247-.043.477.182.49.437.14 2.666 1.15 4.587 2.998 5.715a6.842 6.842 0 0 0 3.396 1.002c1.32.03 3.198-.241 4.284-.715 3.249-1.412 7.932-1.49 10.256-.04.702.438.774 1.324.105 1.904-.333.287-.69.464-1.146.584 1.48.422 2.617-.141 3.105-.97.513-.866.389-2.153-1.04-3.076l.001.001Zm-7.594-9.463c0 .6-.494 1.088-1.102 1.088-.606 0-1.1-.488-1.1-1.088 0-.6.494-1.088 1.1-1.088.608 0 1.102.488 1.102 1.088Zm-5.005 2.386a4.436 4.436 0 0 0-.676.583c-.609.644-1.315 1.782-1.216 3.543a3.81 3.81 0 0 0 1.359 2.704c.086.071.173.141.265.206a.228.228 0 0 1 .052.322.233.233 0 0 1-.19.095.234.234 0 0 1-.135-.043c-.103-.072-.2-.15-.296-.23a4.267 4.267 0 0 1-1.52-3.03c-.109-1.922.669-3.172 1.34-3.883.222-.235.472-.452.745-.644.649-.457 1.415-.77 2.258-.937.09-.019.118-.178.049-.252a1.606 1.606 0 0 1-.347-.56 1.676 1.676 0 0 1 1.04-2.141 1.697 1.697 0 0 1 1.473.16c.146.091.117.222-.031.195a1.56 1.56 0 0 0-1.834 1.525c0 .492.235.928.6 1.211.087.068-.009.198-.067.202-1.096.084-2.08.416-2.87.974h.001Z" fill="#EAD295"/><path d="M29.09 12.963c.393-.847.32-1.544.175-1.99a2.297 2.297 0 0 0-.687-1.028 11.02 11.02 0 0 0-1.45-.271c.179.161.347.342.486.557.483.75.552 1.633.23 2.458.45.032.869.124 1.245.274ZM24.363 9.58a26.64 26.64 0 0 0-1.275.077c-.08.007-.16.018-.241.025.236.21.461.464.65.779.588.987.687 2.09.295 3.015a6.639 6.639 0 0 0 1.37-.35c.005-.013-.002-.027.005-.04.466-.832.43-1.856-.097-2.741a2.433 2.433 0 0 0-.707-.765Z" fill="#EAD295"/><path d="M25.907 9.58c-.27-.012-.556-.01-.843-.009.147.16.285.335.407.54.536.9.632 1.929.28 2.826a6.361 6.361 0 0 1 1.61-.264 2.237 2.237 0 0 0-.143-2.193c-.338-.527-.858-.88-1.31-.9Zm2.215 6.19a.547.547 0 0 0-.217.151c.007 0 .012-.003.018-.003.208 0 .376.166.376.372a.373.373 0 0 1-.367.37.566.566 0 0 0 .56.128.54.54 0 1 0-.37-1.017Z" fill="#EAD295"/></svg>