<svg width="116" height="96" fill="none" xmlns="http://www.w3.org/2000/svg"><path d="M27.847 32.651V15.883h18.331V32.65h-18.33Zm-23.184 0V15.883h18.266V32.65H4.663Zm23.184-21.388V0H22.93v11.263H0v29.93h4.663v-3.922h18.266v20.501h4.918V37.27h18.331v3.607h4.854V11.263H27.847Zm78.625 1.077c-1.469-1.456-4.407-3.165-6.898-4.304l-2.236 2.341c2.491 1.076 5.429 3.038 6.834 4.43l2.3-2.468ZM89.418 37.902c-7.153 1.266-14.243 2.531-19.097 3.29l.639 3.544c5.237-.949 12.008-2.278 18.65-3.543l-.192-3.29Zm-5.556-5.568h-7.345v-6.328h7.345v6.328Zm-10.667-9.302v12.276h14.116V23.033H73.195Zm28.359-1.076c-1.086 4.303-2.683 8.226-4.727 11.643-1.085-4.05-1.852-9.112-2.363-14.553h13.604v-3.544H94.145c-.128-2.215-.256-4.43-.383-6.707h-4.088c.128 2.278.32 4.492.51 6.707H70.96v3.544h19.544c.703 7.15 1.788 13.668 3.513 18.73-2.682 3.29-5.876 6.074-9.644 8.226.83.696 2.235 2.215 2.81 2.974a39.948 39.948 0 0 0 8.43-7.277c1.725 3.354 3.897 5.568 6.643 6.138 3.322 1.265 5.493-1.266 6.323-8.163-.894-.38-2.299-1.329-3.065-2.088-.447 4.05-1.086 6.77-1.98 6.517-2.108-.316-3.833-2.467-5.174-5.821 3.066-4.366 5.493-9.555 7.09-15.503l-3.896-.823ZM67.447 50.812V7.214h43.815v43.598H67.447ZM62.912 2.91v55.051h4.535v-2.91h43.815v2.91h4.663V2.911H62.912ZM8.695 87.378a6.094 6.094 0 0 1 2.384 1.192c.676.558 1.268 1.319 1.775 2.282L15.542 96h-2.46l-2.409-4.463c-.473-.862-.955-1.513-1.445-1.953a3.918 3.918 0 0 0-1.724-.938c-.643-.186-1.463-.279-2.46-.279V96H2.559V79.542h2.485v7.1c1.014 0 1.8-.092 2.358-.278.558-.203 1.065-.634 1.522-1.294l3.93-5.528h2.688l-4.691 6.162c-.626.812-1.344 1.37-2.156 1.674Zm17.635-7.836h2.258v13.339l9.306-13.339h2.257V96h-2.257V82.433L28.588 96H26.33V79.542Zm30.727 1.725h-5.58v-1.725h13.618v1.725h-5.579V96h-2.46V81.267Zm23.937-1.725h2.84L90.224 96h-2.56l-1.877-4.996h-7.05L76.886 96h-2.434l6.542-16.458Zm4.184 9.763-2.79-7.43h-.228l-2.789 7.43h5.807Zm15.959-9.763h2.257v13.339l9.307-13.339h2.257V96h-2.257V82.433L103.394 96h-2.257V79.542Zm6.771-1.75c-1.2 0-2.155-.287-2.865-.862-.71-.591-1.091-1.377-1.142-2.358h1.877c.152 1.319.862 1.978 2.13 1.978 1.268 0 1.978-.66 2.13-1.978h1.877c-.034.964-.406 1.741-1.116 2.333-.71.592-1.674.888-2.891.888Z" fill="#EAD295"/></svg>