<svg width="115" height="53" fill="none" xmlns="http://www.w3.org/2000/svg"><path d="M31.069 18.938c-.538.826-1.477.715-1.805-.215l-.627-1.773c-.132-.372-.595-.802-.977-.904l-1.816-.489c-.952-.256-1.136-1.184-.353-1.783l1.492-1.145c.314-.24.579-.813.558-1.207l-.096-1.879c-.05-.984.774-1.446 1.587-.887l1.55 1.066c.325.224.952.298 1.32.157l1.758-.672c.92-.352 1.614.29 1.334 1.235l-.535 1.804c-.113.378.01.997.258 1.305l1.182 1.463c.62.766.224 1.625-.762 1.65l-1.88.049c-.395.01-.946.318-1.162.649l-1.026 1.576Zm-.848-.569 1.019-1.564c.398-.613 1.26-1.094 1.99-1.113l1.866-.048-1.173-1.452c-.46-.568-.651-1.536-.443-2.237l.53-1.79-1.742.668c-.683.261-1.663.144-2.265-.27l-1.538-1.058.096 1.864c.037.73-.377 1.626-.956 2.07l-1.482 1.136 1.803.485c.706.19 1.43.86 1.673 1.55l.622 1.76ZM36.514 7.06c-.608.15-.994-.311-.742-.884l.482-1.094c.1-.23.073-.63-.06-.843l-.627-1.016c-.33-.533-.011-1.043.612-.98l1.189.12c.25.025.621-.125.784-.316l.772-.912c.405-.477.988-.332 1.12.28l.254 1.168c.053.245.311.552.543.647l1.106.453c.58.238.621.837.08 1.152l-1.032.602c-.217.127-.43.467-.448.717l-.09 1.191c-.046.625-.603.85-1.07.433l-.892-.796c-.187-.167-.576-.264-.82-.205l-1.16.284Zm-.145-.632 1.153-.28c.45-.11 1.059.041 1.405.35l.885.79.088-1.183c.035-.463.367-.994.768-1.228l1.025-.597-1.098-.45c-.43-.176-.832-.656-.93-1.11l-.252-1.159-.767.905c-.3.354-.881.589-1.343.542l-1.18-.119.624 1.01c.244.394.287 1.02.1 1.444l-.477 1.085Zm2.711 10.798c-.91-.146-1.17-.991-.5-1.624l1.278-1.208c.269-.253.46-.812.403-1.177l-.27-1.737c-.141-.91.582-1.42 1.39-.978l1.544.843c.324.177.915.186 1.244.02l1.569-.794c.822-.416 1.53.114 1.36 1.02l-.325 1.729c-.068.362.105.926.366 1.188l1.24 1.247c.65.654.364 1.49-.55 1.608l-1.745.226c-.366.047-.849.387-1.017.715l-.803 1.565c-.42.82-1.305.806-1.7-.027l-.753-1.589c-.158-.333-.63-.688-.995-.746l-1.736-.28Zm.165-.94 1.723.278c.675.11 1.412.663 1.705 1.28l.748 1.577.796-1.552c.313-.608 1.067-1.139 1.745-1.226l1.73-.224-1.23-1.238c-.482-.484-.753-1.366-.627-2.038l.322-1.715-1.557.788c-.61.309-1.532.294-2.132-.033l-1.532-.836.268 1.724c.105.675-.194 1.548-.69 2.017l-1.269 1.198ZM17.036 41.288c-.619-.47-1.174-1.141-1.664-2.016-.47-.875-.95-1.813-1.44-2.816a20.828 20.828 0 0 0-1.6-2.88c-.576-.917-1.27-1.664-2.08-2.24-.79-.597-1.76-.896-2.912-.896v-1.472c.81 0 1.483-.139 2.016-.416.555-.299 1.077-.768 1.568-1.408.49-.661 1.056-1.525 1.696-2.592a124.72 124.72 0 0 1 1.664-2.624c.448-.704.853-1.259 1.216-1.664.384-.405.779-.683 1.184-.832.426-.17.938-.256 1.536-.256.256 0 .565.021.928.064.363.021.661.064.896.128l-.064 1.504c0 .512.01 1.035.032 1.568l.128 1.6c-.235.085-.512.16-.832.224a5.287 5.287 0 0 1-.704.064c-.15-.875-.341-1.483-.576-1.824-.235-.363-.523-.544-.864-.544-.555 0-1.035.288-1.44.864a48.018 48.018 0 0 0-1.504 2.368c-.64 1.088-1.184 1.93-1.632 2.528-.427.597-.832 1.035-1.216 1.312a5.46 5.46 0 0 1-1.216.64l-.096-.48c.682.021 1.28.107 1.792.256.533.15 1.024.395 1.472.736.448.341.885.821 1.312 1.44.448.597.928 1.376 1.44 2.336A85.742 85.742 0 0 0 17.708 37c.448.725.832 1.27 1.152 1.632.341.363.683.608 1.024.736a6.6 6.6 0 0 0 1.28.224c0 .107-.01.245-.032.416 0 .17-.01.341-.032.512a3.2 3.2 0 0 1-.096.48h-1.472c-.405.021-.8.053-1.184.096-.363.043-.8.107-1.312.192Zm-15.072-.192c0-.299.01-.555.032-.768a2.33 2.33 0 0 1 .128-.608c.576-.043 1.024-.139 1.344-.288.32-.17.544-.448.672-.832.128-.405.192-.96.192-1.664V23.432c0-.725-.064-1.28-.192-1.664-.128-.384-.352-.661-.672-.832-.32-.17-.768-.267-1.344-.288a2.343 2.343 0 0 1-.128-.608 8.518 8.518 0 0 1-.032-.768l1.216.064c.427 0 .864.01 1.312.032H7.18a25.04 25.04 0 0 1 1.248-.032l1.28-.064c0 .277-.01.533-.032.768a2.343 2.343 0 0 1-.128.608c-.555.021-1.003.117-1.344.288-.32.17-.544.448-.672.832-.128.384-.192.939-.192 1.664v13.504c0 .704.064 1.259.192 1.664.128.384.352.661.672.832.341.15.79.245 1.344.288.064.17.107.373.128.608.021.213.032.47.032.768-.64-.043-1.29-.075-1.952-.096H3.852c-.704.021-1.333.053-1.888.096Zm27.126.192c-1.45 0-2.72-.31-3.808-.928a6.59 6.59 0 0 1-2.528-2.656c-.597-1.152-.896-2.496-.896-4.032 0-1.45.31-2.752.928-3.904a6.986 6.986 0 0 1 2.56-2.72c1.088-.661 2.336-.992 3.744-.992 1.515 0 2.805.32 3.872.96a6.334 6.334 0 0 1 2.496 2.688c.576 1.13.864 2.453.864 3.968 0 1.45-.31 2.752-.928 3.904a6.758 6.758 0 0 1-2.528 2.72c-1.067.661-2.325.992-3.776.992Zm.256-1.536c1.28 0 2.23-.523 2.848-1.568.619-1.067.928-2.443.928-4.128 0-1.323-.203-2.464-.608-3.424-.384-.981-.907-1.728-1.568-2.24-.661-.533-1.387-.8-2.176-.8-1.237 0-2.165.501-2.784 1.504-.597 1.003-.896 2.304-.896 3.904 0 1.43.17 2.656.512 3.68.363 1.003.864 1.77 1.504 2.304.64.512 1.387.768 2.24.768Zm21.447-1.248c-.576.917-1.29 1.61-2.144 2.08-.853.47-1.888.704-3.104.704-1.088 0-2.144-.277-3.168-.832-1.002-.576-1.834-1.419-2.496-2.528-.661-1.13-.992-2.528-.992-4.192 0-1.28.256-2.507.768-3.68a7.134 7.134 0 0 1 2.24-2.88c1.003-.747 2.219-1.12 3.648-1.12.982 0 1.878.117 2.688.352.832.235 1.547.597 2.144 1.088a27.81 27.81 0 0 0-.192 1.824 50.952 50.952 0 0 0-.032 1.824c-.17.085-.405.15-.704.192a5.074 5.074 0 0 1-.768.064c-.128-1.237-.49-2.187-1.088-2.848-.597-.661-1.365-.992-2.304-.992-1.045 0-1.877.49-2.496 1.472-.618.981-.928 2.39-.928 4.224 0 1.067.171 2.08.512 3.04.363.939.886 1.707 1.568 2.304.683.576 1.515.864 2.496.864.683 0 1.323-.16 1.92-.48a4.984 4.984 0 0 0 1.632-1.376c.171.085.331.213.48.384.15.15.256.32.32.512Zm10.76 1.952-4.991-10.688h.32l-.736 6.848c-.086.853-.096 1.504-.032 1.952.064.427.224.725.48.896.277.15.661.235 1.152.256.064.213.106.437.128.672.021.235.032.47.032.704A19.773 19.773 0 0 0 56.562 41h-2.72c-.512.021-.928.053-1.248.096 0-.256.01-.49.032-.704.021-.235.064-.459.128-.672.427-.021.768-.107 1.024-.256.277-.17.49-.48.64-.928.15-.47.267-1.141.352-2.016l.672-6.816c.085-.875 0-1.44-.256-1.696s-.725-.384-1.408-.384a2.893 2.893 0 0 1-.128-.672 8.502 8.502 0 0 1-.032-.704c.298.021.576.043.832.064.256 0 .501.01.736.032h1.792c.213-.021.405-.032.576-.032a4.7 4.7 0 0 1 .512-.032l5.248 11.008h-.64l5.088-11.008c.213 0 .448.01.704.032.277 0 .555.01.832.032h1.44a9.39 9.39 0 0 1 .768-.032c.256-.021.501-.043.736-.064 0 .235-.01.48-.032.736a2.837 2.837 0 0 1-.128.64c-.619 0-1.078.139-1.376.416-.278.256-.374.843-.288 1.76l.768 7.2c.085.768.192 1.344.32 1.728.128.363.31.608.544.736.256.128.576.213.96.256.064.192.106.416.128.672.021.235.032.47.032.704a19.474 19.474 0 0 0-.736-.064c-.278 0-.576-.01-.896-.032h-2.816c-.384.021-.768.032-1.152.032a54.08 54.08 0 0 0-.96.064c0-.299.01-.544.032-.736.021-.213.064-.427.128-.64.49-.021.853-.085 1.088-.192.234-.128.384-.363.448-.704.064-.341.053-.853-.032-1.536l-.864-7.552h.32l-4.992 10.56c-.15.064-.33.107-.544.128a5.84 5.84 0 0 1-.64.032Zm51.975-1.952c-.576.917-1.291 1.61-2.144 2.08-.854.47-1.888.704-3.104.704-1.088 0-2.144-.277-3.168-.832-1.003-.576-1.835-1.419-2.496-2.528-.662-1.13-.992-2.528-.992-4.192 0-1.28.256-2.507.768-3.68s1.258-2.133 2.24-2.88c1.002-.747 2.218-1.12 3.648-1.12.981 0 1.877.117 2.688.352.832.235 1.546.597 2.144 1.088-.086.619-.15 1.227-.192 1.824a49.586 49.586 0 0 0-.032 1.824c-.171.085-.406.15-.704.192a5.086 5.086 0 0 1-.768.064c-.128-1.237-.491-2.187-1.088-2.848-.598-.661-1.366-.992-2.304-.992-1.046 0-1.878.49-2.496 1.472-.619.981-.928 2.39-.928 4.224 0 1.067.17 2.08.512 3.04.362.939.885 1.707 1.568 2.304.682.576 1.514.864 2.496.864.682 0 1.322-.16 1.92-.48a4.996 4.996 0 0 0 1.632-1.376c.17.085.33.213.48.384.149.15.256.32.32.512ZM97.404 22.596c-1.574-1.574-5.202.48-8.076 2.602-2.738-.616-5.75.136-7.871 2.258-2.122 2.122-2.875 5.134-2.259 7.871-2.121 2.875-4.175 6.502-2.6 8.076.341.343.889.548 1.505.548 1.026 0 2.464-.548 4.175-1.574a76.066 76.066 0 0 0 1.78-1.164 8.638 8.638 0 0 0 3.49.753c2.19 0 4.312-.821 6.023-2.464 2.532-2.532 3.149-6.365 1.711-9.445 2.053-3.08 3.49-6.092 2.122-7.46Zm-1.232 1.233c.342.342-.206 2.053-1.917 4.585-.205-.342-.48-.615-.753-.89a8.076 8.076 0 0 0-2.19-1.574c3.08-2.121 4.654-2.326 4.86-2.121Zm-13.484 4.859a6.85 6.85 0 0 1 4.791-1.985c1.711 0 3.49.685 4.791 1.985.342.342.685.753.958 1.164a42.91 42.91 0 0 1-4.38 4.927 55.363 55.363 0 0 1-4.928 4.38c-.41-.273-.821-.547-1.164-.957-2.668-2.533-2.668-6.845-.068-9.514Zm-1.3 12.252c-2.465 1.505-3.423 1.368-3.56 1.231-.205-.205 0-1.78 2.122-4.86.41.753.89 1.506 1.574 2.191.274.274.616.548.89.753-.342.205-.684.48-1.026.684Zm10.882-2.67c-1.779 1.78-4.312 2.327-6.639 1.711 1.438-1.163 2.943-2.464 4.38-3.97a45.09 45.09 0 0 0 3.902-4.448c.753 2.327.137 4.927-1.642 6.707Z" fill="#EAD295"/></svg>