<svg width="120" height="78" fill="none" xmlns="http://www.w3.org/2000/svg"><path d="M1.28 76.6v-8.32h1.68c.32-.533.652-1.253 1-2.16.346-.907.64-1.933.88-3.08.266-1.173.412-2.413.44-3.72L5.6 41.8h14.36v26.48h2.8v8.32h-2.8V71H4.12v5.6H1.28Zm5-8.32h10.48V44.64H8.64L8.4 59.32c-.028 2.08-.28 3.92-.76 5.52-.454 1.573-.908 2.72-1.36 3.44ZM27.942 71V49h3.08v12.52c0 .747-.026 1.547-.08 2.4a60.346 60.346 0 0 1-.28 4.24L39.983 49h4.12v22h-3.08V58.48c0-.773.014-1.573.04-2.4.054-.827.107-1.613.16-2.36.08-.773.134-1.413.16-1.92L32.023 71h-4.08Zm32.105.4c-1.707 0-3.2-.333-4.48-1a7.334 7.334 0 0 1-3-2.84c-.694-1.253-1.04-2.733-1.04-4.44v-6.24c0-1.707.346-3.173 1.04-4.4a7.26 7.26 0 0 1 3-2.88c1.28-.667 2.773-1 4.48-1 2.506 0 4.52.68 6.04 2.04 1.52 1.36 2.306 3.213 2.36 5.56h-3.16c-.053-1.52-.547-2.693-1.48-3.52-.907-.827-2.16-1.24-3.76-1.24-1.627 0-2.92.48-3.88 1.44-.96.933-1.44 2.267-1.44 4v6.24c0 1.707.48 3.04 1.44 4s2.253 1.44 3.88 1.44c1.6 0 2.853-.413 3.76-1.24.933-.853 1.426-2.027 1.48-3.52h3.16c-.053 2.347-.84 4.2-2.36 5.56-1.52 1.36-3.533 2.04-6.04 2.04Zm15.984-.4V49h3.2v9.24h4.16l6.52-9.24h3.64l-7.4 10.48L93.712 71h-3.72l-6.6-10h-4.16v10h-3.2Zm31.945.36c-1.707 0-3.187-.333-4.44-1a7.06 7.06 0 0 1-2.92-2.88c-.694-1.253-1.04-2.733-1.04-4.44v-6.08c0-1.733.346-3.213 1.04-4.44a7.06 7.06 0 0 1 2.92-2.88c1.253-.667 2.733-1 4.44-1 1.706 0 3.186.333 4.44 1a7.072 7.072 0 0 1 2.92 2.88c.693 1.227 1.04 2.693 1.04 4.4v6.12c0 1.707-.347 3.187-1.04 4.44a7.072 7.072 0 0 1-2.92 2.88c-1.254.667-2.734 1-4.44 1Zm0-2.84c1.653 0 2.933-.467 3.84-1.4.906-.933 1.36-2.293 1.36-4.08v-6.08c0-1.787-.467-3.147-1.4-4.08-.907-.933-2.174-1.4-3.8-1.4-1.627 0-2.907.467-3.84 1.4-.907.933-1.36 2.293-1.36 4.08v6.08c0 1.787.453 3.147 1.36 4.08.933.933 2.213 1.4 3.84 1.4Z" fill="#EAD295"/><g clip-path="url(#a)" fill="#EAD295"><path d="M63.058 10.01V7.15c0-.006-.003-.011-.003-.017a.646.646 0 0 0-.03-.188l-.649-1.95a.65.65 0 0 0-.615-.445h-.649v-2.6h3.893a.65.65 0 0 0 0-1.3h-9.083a.65.65 0 0 0 0 1.3h3.893v2.6h-.65a.65.65 0 0 0-.614.445l-.65 1.95a.646.646 0 0 0-.03.188v2.877a12.971 12.971 0 0 0-7.855 5.033 13.018 13.018 0 0 0 1.749 17.348 12.96 12.96 0 0 0 17.403 0 13.018 13.018 0 0 0 1.75-17.348 12.973 12.973 0 0 0-7.856-5.033h-.004ZM70 16.017l-1.328-.333-.543-1.742A11.799 11.799 0 0 1 70 16.019v-.002Zm.909 11.94a.647.647 0 0 0-.219.01l-1.342.337c.173-.794.305-1.597.396-2.405l2.076-.462a11.6 11.6 0 0 1-.915 2.522l.004-.002Zm-3.94 4.504c-.964.65-2.02 1.151-3.132 1.487l.714-3.224a24.228 24.228 0 0 0 2.231-.436l.789-.195-.597 2.242a.661.661 0 0 0-.009.128l.004-.002Zm-5.857 1.956V31a23.66 23.66 0 0 0 2.071-.11l-.75 3.38c-.437.074-.878.123-1.32.147Zm-2.619-.147-.775-3.491c.697.095 1.396.15 2.096.185v3.453a11.678 11.678 0 0 1-1.32-.147h-.001Zm-4.541-1.937-.684-2.576.92.27c.708.21 1.426.372 2.148.515l.754 3.406a11.613 11.613 0 0 1-3.131-1.485.656.656 0 0 0-.005-.13h-.002Zm-4.217-14.194 1.996-.585a24.072 24.072 0 0 0-.47 2.535l-2.287.636c.152-.889.407-1.757.76-2.586Zm7.355-6.587-.756 3.406a23.67 23.67 0 0 0-2.15.514l-.557.164.926-2.961a11.57 11.57 0 0 1 2.537-1.123Zm9.283 1.123.824 2.64-.416-.104a23.72 23.72 0 0 0-2.231-.434l-.714-3.227c.888.271 1.74.65 2.537 1.125Zm5.69 8.759a11.05 11.05 0 0 1 0 2.629h-.065l-2.147.477a23.956 23.956 0 0 0-.08-3.604l2.227.496c.024.007.043.001.065.004v-.002Zm-3.535 3.402-2.51.559c-.147.033-.297.055-.446.085a24.348 24.348 0 0 0 0-5.464c.149.03.299.052.446.085l2.411.537c.163 1.394.196 2.8.099 4.2v-.002Zm-5.05 4.727c-.786.084-1.576.128-2.366.13v-2.458a24.09 24.09 0 0 0 2.904-.184c-.04.211-.076.423-.122.633l-.417 1.879Zm-6.445-1.88c-.062-.276-.11-.556-.161-.835.973.176 1.955.291 2.942.346v2.47a22.632 22.632 0 0 1-2.396-.24l-.385-1.74Zm-8.213-4.27c-.013-.22-.034-.439-.034-.663 0-.224.02-.437.033-.655a.653.653 0 0 0 .14-.018l2.153-.6c-.062.843-.08 1.687-.054 2.53l-2.099-.584a.639.639 0 0 0-.14-.009v-.002Zm3.618-2.306 2.578-.715c.102-.029.206-.049.309-.076a24.34 24.34 0 0 0 0 4.87c-.103-.028-.207-.048-.309-.076l-2.656-.74a22.708 22.708 0 0 1 .078-3.261v-.002Zm4.228-1.105a22.584 22.584 0 0 1 3.149-.392v6.281a22.708 22.708 0 0 1-3.15-.397 23.038 23.038 0 0 1 0-5.488l.001-.004Zm.752-3.93c.794-.12 1.594-.199 2.397-.235v2.47c-.987.053-1.97.166-2.943.34.051-.279.1-.557.16-.834l.386-1.74Zm6.477 1.739c.046.21.082.425.123.637a24.073 24.073 0 0 0-2.906-.173v-2.466c.79.002 1.58.046 2.366.13l.416 1.872Zm-2.783 8.115v-6.353a22.92 22.92 0 0 1 3.12.216 23.022 23.022 0 0 1 0 5.921 22.674 22.674 0 0 1-3.12.216Zm5.19-7.092c-.305-.069-.613-.12-.922-.176a23.207 23.207 0 0 0-.216-1.125l-.31-1.398a22.59 22.59 0 0 1 1.616.338l1.168.294c.244.82.441 1.654.592 2.496l-1.928-.43Zm-3.114-4.226a23.92 23.92 0 0 0-2.076-.1v-3.425c.443.024.885.073 1.322.147l.754 3.378Zm-3.373-3.525v3.452c-.701.034-1.4.096-2.097.19l.778-3.495c.437-.074.877-.123 1.319-.147Zm-5.261 5.636a22.07 22.07 0 0 1 1.477-.381l-.265 1.195c-.103.463-.189.93-.263 1.4-.279.065-.558.13-.835.204l-2.052.572c.142-.873.334-1.738.576-2.59l1.362-.4Zm-5.58 8.06 2.17.603c.07.838.184 1.67.342 2.496l-1.752-.515a11.617 11.617 0 0 1-.76-2.586v.002Zm3.504.975 2.192.61c.276.077.556.135.834.202.074.47.16.939.264 1.403l.264 1.195a22.83 22.83 0 0 1-1.476-.381l-1.643-.484c-.194-.84-.34-1.69-.437-2.548l.002.003Zm13.992 3.275a22.76 22.76 0 0 1-1.617.338l.31-1.398c.083-.37.152-.746.216-1.122.308-.056.617-.11.923-.178l2.097-.467c-.11.828-.264 1.649-.464 2.46l-1.465.367Zm3.132-9.458a24 24 0 0 0-.519-2.44l1.606.402a.65.65 0 0 0 .217.01c.4.802.708 1.648.913 2.522l-2.217-.494ZM59.633 5.85h1.66l.216.65h-2.092l.216-.65Zm-.467 3.9V7.8h2.595v1.95h-2.595Zm-6.367 4.194-.665 2.133-1.546.455a11.788 11.788 0 0 1 2.211-2.588Zm-2.21 15.023 1.227.362c.012.044.02.089.03.13l.431 1.62a11.758 11.758 0 0 1-1.689-2.112Zm18.06 2.114.36-1.352.99-.248a11.793 11.793 0 0 1-1.35 1.6ZM79.52 6.546l-2.523-1.01-1.009-2.527a.649.649 0 0 0-1.205 0l-1.008 2.527-2.523 1.01a.65.65 0 0 0 0 1.208l2.523 1.01 1.008 2.527a.649.649 0 0 0 1.205 0l1.009-2.527 2.522-1.01a.65.65 0 0 0 0-1.208ZM76.256 7.66a.654.654 0 0 0-.362.363l-.51 1.277-.508-1.277a.654.654 0 0 0-.362-.363l-1.275-.51 1.274-.51a.654.654 0 0 0 .363-.363L75.386 5l.509 1.277a.654.654 0 0 0 .362.363l1.274.51-1.274.51ZM44.94 38.591a.649.649 0 0 0 1.205 0l1.008-2.527 2.522-1.01a.65.65 0 0 0 0-1.208l-2.522-1.01-1.008-2.527a.649.649 0 0 0-1.206 0l-1.008 2.527-2.522 1.01a.65.65 0 0 0 0 1.208l2.522 1.01 1.008 2.527Zm-.27-4.65a.654.654 0 0 0 .363-.364l.509-1.276.51 1.276a.654.654 0 0 0 .361.363l1.275.51-1.275.51a.654.654 0 0 0-.362.363l-.509 1.277-.51-1.276a.654.654 0 0 0-.361-.364l-1.275-.51 1.275-.51ZM46.19 5.2h1.298v1.3H46.19V5.2Zm0 2.6h1.298v1.3H46.19V7.8Zm1.298-1.3h1.298v1.3h-1.298V6.5Zm-2.594 0h1.297v1.3h-1.297V6.5Zm28.545 26h1.297v1.3h-1.297v-1.3Zm0 2.6h1.297v1.3h-1.297v-1.3Zm1.297-1.3h1.298v1.3h-1.298v-1.3Zm-2.594 0h1.297v1.3h-1.297v-1.3Z"/></g><defs><clipPath id="a"><path fill="#fff" transform="translate(40)" d="M0 0h39v39H0z"/></clipPath></defs></svg>