<svg width="184" height="99" fill="none" xmlns="http://www.w3.org/2000/svg"><path d="M50.787 67.88a778.35 778.35 0 0 0-.48 4.64c-.213 2.133-.386 3.693-.52 4.68h-2.16c-.213-4.507-.346-6.907-.4-7.2h-18.76l-.64 3c-.16.773-.333 1.547-.52 2.32-.16.773-.293 1.4-.4 1.88h-2.16l.48-9.32h2.96c.614-.72 1.307-1.987 2.08-3.8.8-1.84 1.52-4.36 2.16-7.56.64-3.227.96-7 .96-11.32v-2.76l-4.08-.44v-1.72h21.72V42l-3.76.44v25.44h3.52Zm-15.2-22.44c.027 3.84-.226 7.347-.76 10.52-.506 3.147-1.106 5.733-1.8 7.76-.666 2.027-1.266 3.413-1.8 4.16h12.8l.04-25.52h-8.48v3.08Zm42.991 12.6c.96.453 1.867 1.187 2.72 2.2.88.987 1.894 2.32 3.04 4 .827 1.173 1.48 2.053 1.96 2.64.48.587.907.933 1.28 1.04l1.44.36V70h-3.24c-.72 0-1.453-.44-2.2-1.32-.72-.88-1.613-2.187-2.68-3.92-1.146-1.813-2.106-3.173-2.88-4.08-.746-.907-1.506-1.36-2.28-1.36h-3.24v8.6l3.56.36V70h-9.88v-1.72l3.2-.36v-8.6h-3.28c-.746 0-1.506.453-2.28 1.36-.746.907-1.68 2.253-2.8 4.04-1.146 1.787-2.08 3.12-2.8 4-.72.853-1.44 1.28-2.16 1.28h-3.24v-1.72l1.44-.4c.4-.133.827-.467 1.28-1 .48-.56 1.174-1.48 2.08-2.76 1.147-1.653 2.134-2.96 2.96-3.92.854-.987 1.747-1.707 2.68-2.16l-6.64-7.92-2.84-.6V47.8h8.68v1.72l-3.12.6 5.92 7.52h4.12v-7.52l-3.12-.6V47.8h9.8v1.72l-3.56.6v7.52h4.12l5.92-7.52-3.16-.6V47.8h8.68v1.72l-2.8.6-6.68 7.92Zm12.606 6.12c0-2.587 1.28-4.453 3.84-5.6 2.56-1.173 5.747-1.8 9.561-1.88v-1.24c0-1.36-.147-2.427-.44-3.2-.267-.8-.747-1.373-1.44-1.72-.694-.373-1.667-.56-2.92-.56-1.36 0-2.6.213-3.72.64-1.094.4-2.16.893-3.2 1.48l-.88-1.76c.293-.267.906-.64 1.84-1.12.933-.48 2-.907 3.2-1.28 1.2-.373 2.36-.56 3.48-.56 1.813 0 3.24.253 4.28.76 1.066.507 1.826 1.32 2.28 2.44.48 1.12.72 2.627.72 4.52v13.2h2.48v1.48c-1.467.4-2.707.6-3.72.6-.64 0-1.08-.107-1.32-.32-.24-.187-.36-.64-.36-1.36V67.2a19.503 19.503 0 0 1-3.16 2.28c-1.12.64-2.4.96-3.84.96-1.92 0-3.52-.533-4.8-1.6-1.254-1.067-1.88-2.627-1.88-4.68Zm7.88 3.92c.747 0 1.641-.24 2.681-.72a14.397 14.397 0 0 0 2.84-1.72v-7.08c-3.227.027-5.68.507-7.36 1.44-1.654.933-2.48 2.187-2.48 3.76 0 1.52.386 2.627 1.16 3.32.773.667 1.826 1 3.16 1ZM113.93 48.4c.853 0 1.92-.147 3.2-.44 1.76-.427 3.48-.64 5.16-.64 2.533 0 4.493.467 5.88 1.4 1.387.933 2.08 2.253 2.08 3.96 0 1.12-.44 2.173-1.32 3.16-.88.96-2.04 1.667-3.48 2.12 1.867.133 3.347.693 4.44 1.68 1.093.96 1.64 2.187 1.64 3.68 0 2.187-.827 3.907-2.48 5.16-1.627 1.227-3.987 1.84-7.08 1.84-1.76 0-3.36-.147-4.8-.44-1.44-.293-2.613-.64-3.52-1.04l.36-4.48h1.96l.56 2.76c.4.4 1.08.707 2.04.92.96.187 1.96.28 3 .28 2.107 0 3.68-.387 4.72-1.16 1.04-.773 1.56-1.867 1.56-3.28 0-1.467-.453-2.587-1.36-3.36-.907-.773-2.4-1.133-4.48-1.08-.24.027-.627.067-1.16.12-.533.053-.92.107-1.16.16v-2.2l1.68-.2c1.733-.187 3.067-.667 4-1.44.96-.8 1.44-1.787 1.44-2.96s-.387-2.067-1.16-2.68c-.773-.613-2.067-.92-3.88-.92-1.227 0-2.293.133-3.2.4-.907.24-1.573.507-2 .8l-.64 3.68h-2v-5.8ZM8.325 48.147c-.267-.034-.425-.294-.354-.58l3.522-14.204a3.87 3.87 0 0 1 .594-1.374c.44-.653 1.286-1.497 2.815-1.806.356-.071.853-.14 1.378-.212l.03-.004.024.003 1.894-.163c.189-.028 1.11-.127 1.566.538.338.492.303 1.227-.107 2.183-.174.483-.404.95-.684 1.389-.646.999-1.432 1.537-2.278 1.559l-4.945.742-2.844 11.473a.627.627 0 0 1-.232.348.527.527 0 0 1-.38.108ZM16.289 31l-.018.003c-.508.07-.988.135-1.315.202-2.171.442-2.478 2.2-2.483 2.219l-.011.046-.416 1.676 4.711-.712a.467.467 0 0 1 .068-.005c.477-.004.936-.338 1.365-.994a5.669 5.669 0 0 0 .588-1.207c.251-.578.316-1.007.18-1.206-.151-.225-.59-.212-.732-.19l-.037.006-1.9.162Z" fill="#EAD295"/><path d="M3.47 51.265c-1.107-.142-1.997-.731-2.44-1.616-.395-.797-.405-1.787-.026-2.705.803-2.014 3.18-3.433 5.296-3.161 1.108.142 1.997.732 2.44 1.617.395.796.405 1.786.026 2.703-.803 2.02-3.173 3.435-5.296 3.162Zm2.57-6.447c-1.66-.213-3.511.866-4.125 2.406-.26.625-.254 1.3.015 1.843.317.636.972 1.056 1.797 1.162 1.66.213 3.51-.866 4.124-2.406.26-.625.254-1.3-.014-1.843-.312-.628-.971-1.053-1.797-1.159v-.003ZM167.245 9.87a.886.886 0 0 1-.272.013 1.35 1.35 0 0 1-.509-.176c-.425-.23-.819-.49-1.201-.74l-.211-.14a5.445 5.445 0 0 1-.165-.113l-.132-.086-.022-.015a18.99 18.99 0 0 0-.341.15c-.236.105-.479.21-.737.31-.035.007-.079.03-.133.054-.497.206-1.421.593-1.885-.039a.85.85 0 0 1-.144-.585c.051-.52.151-1.036.298-1.539l.046-.177c.053-.202.101-.386.145-.544-.562-.512-1.353-1.346-1.538-1.934a.91.91 0 0 1 .104-.846.96.96 0 0 1 .675-.384c.543-.11 1.718-.082 2.364-.057.299-.63.648-1.235 1.043-1.811.125-.18.302-.32.508-.4.243-.086.509-.08.746.017a.922.922 0 0 1 .214.126c.149.119.265.272.339.447.262.644.471 1.307.625 1.984.637.107 1.792.322 2.299.54a.947.947 0 0 1 .579.499.91.91 0 0 1-.084.845c-.304.53-1.246 1.173-1.9 1.561a9.318 9.318 0 0 1-.024 2.252.876.876 0 0 1-.687.788Zm-2.564-2.424a.586.586 0 0 1 .171-.01l.009-.001c.183.03.353.113.489.239a.39.39 0 0 0 .035.028c.045.029.1.067.154.106l.132.086.214.14c.329.216.641.422.968.608h-.001a8.194 8.194 0 0 0-.058-2.021.556.556 0 0 1 .289-.572c.658-.353 1.368-.855 1.671-1.168-.499-.163-1.603-.366-2.26-.468a.554.554 0 0 1-.462-.448 11.692 11.692 0 0 0-.574-1.992c-.386.58-.72 1.192-.997 1.83a.562.562 0 0 1-.547.348c-.665-.036-1.787-.062-2.311-.006.229.368.812 1.004 1.379 1.484a.547.547 0 0 1 .171.579c-.058.19-.139.487-.23.838l-.046.18c-.097.343-.174.69-.233 1.04.169-.054.362-.133.448-.17l.178-.072c.224-.082.44-.178.668-.28.209-.094.425-.19.654-.278a.495.495 0 0 1 .088-.026l.001.006Zm-11.287 10.007a.8.8 0 0 1-.461-.043.866.866 0 0 1-.437-.415 8.32 8.32 0 0 1-.58-1.45l-.061-.181a23.354 23.354 0 0 1-.171-.53c-.744-.134-1.857-.41-2.329-.81a.914.914 0 0 1-.37-.765.936.936 0 0 1 .364-.669c.395-.38 1.392-.98 1.947-1.3a12.941 12.941 0 0 1-.106-2.073c.006-.218.077-.429.205-.606a1.03 1.03 0 0 1 .634-.38.928.928 0 0 1 .245-.008c.19.02.372.089.529.198a13.06 13.06 0 0 1 1.586 1.334c.592-.247 1.671-.68 2.219-.766a.94.94 0 0 1 .747.117.916.916 0 0 1 .391.753c.031.607-.406 1.644-.747 2.318.473.583.874 1.22 1.195 1.899.218.462.062.954-.374 1.171h.001a1.342 1.342 0 0 1-.521.121c-.479.032-.948.023-1.402.014l-.253-.004a5.35 5.35 0 0 1-.199-.009l-.157-.006-.026-.001c-.068.1-.135.201-.204.307-.14.212-.285.433-.449.655l-.082.117c-.236.342-.628.908-1.134 1.012Zm-3.155-4.168c.389.189 1.216.415 1.953.517.218.03.396.185.456.396.037.13.112.378.257.817l.062.184c.104.339.226.671.366.996.113-.136.231-.304.284-.38l.109-.155c.143-.187.271-.382.407-.59.135-.206.253-.39.397-.58a.556.556 0 0 1 .202-.168l.01-.002a.914.914 0 0 1 .534-.056l.045.004c.053 0 .12.004.187.008l.158.006.257.005c.39.008.762.015 1.13-.005a8.22 8.22 0 0 0-1.133-1.668.551.551 0 0 1-.067-.633c.359-.645.682-1.443.766-1.866-.506.128-1.538.54-2.141.804a.555.555 0 0 1-.625-.13 11.59 11.59 0 0 0-1.557-1.373 11.79 11.79 0 0 0 .155 2.064.554.554 0 0 1-.274.58c-.577.327-1.53.9-1.938 1.225Zm-6.051 10.8c-.314.072-.612-.037-.665-.242-.054-.206.157-.43.471-.502l3.364-.853c.312-.079.617.021.682.225.065.203-.135.432-.447.511l-3.364.853-.041.008Z" fill="#EAD295"/><path d="M149.895 24.819a2.326 2.326 0 0 1-2.705-1.654 2.327 2.327 0 1 1 2.705 1.654Zm-1.675-1.942a1.26 1.26 0 0 0 2.308.28 1.258 1.258 0 0 0-1.434-1.83 1.25 1.25 0 0 0-.874 1.55Zm-2.307 5.606c-.25.058-.495-.061-.546-.268-.051-.205.111-.42.362-.478l2.684-.714c.249-.066.5.046.56.25.061.204-.093.423-.342.49l-2.684.714-.034.006Z" fill="#EAD295"/><path d="M150.827 29.379a2.33 2.33 0 0 1-2.494-3.423 2.328 2.328 0 0 1 3.861-.292 2.332 2.332 0 0 1-1.202 3.681c-.057.01-.111.023-.165.034Zm-.719-3.518-.089.018a1.26 1.26 0 0 0-.875 1.552 1.26 1.26 0 1 0 .968-1.568l-.004-.002Zm-3.145 7.158c-.314.07-.611-.038-.664-.243-.053-.206.158-.43.472-.502l3.363-.852c.312-.08.618.021.683.224.065.204-.136.432-.448.512l-3.365.853-.041.008Z" fill="#EAD295"/><path d="M152.493 32.839a2.329 2.329 0 0 1-2.698-2.957 2.328 2.328 0 1 1 2.698 2.957Zm-.705-3.475-.088.018a1.244 1.244 0 0 0-.864 1.534 1.245 1.245 0 1 0 .952-1.552Zm-3.097 8.052c-.25.066-.528-.215-.622-.629-.093-.413.033-.802.282-.868l2.652-.873c.246-.081.529.187.632.599.103.411-.014.81-.26.892l-2.653.871-.031.008Z" fill="#EAD295"/><path d="M153.426 37.399a2.329 2.329 0 0 1-2.698-2.957 2.326 2.326 0 1 1 2.698 2.957Zm-.706-3.477-.088.018a1.244 1.244 0 1 0 .088-.021v.003Zm-3.166 7.118c-.314.072-.612-.036-.665-.242-.054-.205.158-.43.471-.502l3.364-.853c.313-.079.618.022.683.225.064.203-.136.432-.449.511l-3.364.852-.04.01Zm6.828 6.205c-.239.058-.477-.066-.531-.276-.053-.211.097-.43.337-.488l1.813-.515c.238-.067.482.047.546.256.064.209-.077.433-.314.5l-1.813.516-.038.007Z" fill="#EAD295"/><path d="M155.256 41.775a2.328 2.328 0 1 1-.915-4.562 2.328 2.328 0 0 1 .915 4.562Zm-.72-3.522-.089.018a1.261 1.261 0 1 0 .088-.021l.001.003Z" fill="#EAD295"/><path d="m160.898 55.824-.47.096c-3.157.583-5.985.315-8.406-.799-2.014-.926-3.762-2.44-5.196-4.503-2.551-3.67-3.475-8.19-3.823-9.892-.744-3.64-3.118-18.33-3.219-18.953-.245-1.518-.597-3.176-1.702-3.725-1.001-.497-2.322-.083-3.488.294-.173.054-.343.109-.506.158-2.165.652-5.118.891-6.45.522a.547.547 0 0 1 .289-1.052c1.02.282 3.673.14 5.848-.517.159-.048.322-.1.491-.154 1.294-.41 2.901-.927 4.296-.23 1.7.844 2.071 3.145 2.294 4.524l.001.007c.1.623 2.471 15.294 3.21 18.908 1.227 6.002 2.985 8.533 3.647 9.483 2.928 4.209 7.138 5.843 12.514 4.85 4.639-.857 8.152-2.893 10.161-5.89 1.985-2.96 2.522-6.751 1.599-11.27l-2.796-13.674c-.067-.225-.362-1.376.234-2.419.431-.757 1.205-1.25 2.297-1.473a.407.407 0 0 1 .066-.013.339.339 0 0 0 .19-.09.347.347 0 0 0 .008-.234c-.051-.247-.212-.235-.374-.202l-17.988 3.677c-.319.066-.286.232-.267.32.018.089.055.27.384.214 1.059-.217 1.972-.069 2.703.434 1.096.755 1.36 2.052 1.387 2.195.025.124.51 2.559 1.245 6.277a.549.549 0 0 1-.423.644.545.545 0 0 1-.642-.427c-.754-3.816-1.245-6.28-1.245-6.28l-.003-.015c-.002-.008-.183-.976-.938-1.491-.479-.327-1.108-.414-1.871-.258-.557.114-1.458-.076-1.66-1.068-.16-.78.298-1.44 1.113-1.607l17.988-3.678c.95-.194 1.525.41 1.657 1.055.111.544-.051.903-.204 1.111-.232.286-.564.47-.929.515-.763.156-1.285.477-1.552.943-.403.7-.136 1.556-.134 1.565.006.02.01.042.013.064l2.801 13.699c.984 4.816.391 8.886-1.761 12.098-2.105 3.142-5.688 5.3-10.389 6.26Z" fill="#EAD295"/><path d="M156.322 43.458c-1.468.3-2.747.099-3.803-.597-1.902-1.254-2.383-3.68-2.441-4.006-.206-.735-4.45-15.78-6.358-21.246-.568-1.625-1.672-3.134-2.812-3.836-1.355-.836-2.921-.68-4-.402-1.501.387-2.82 1.104-4.095 1.796-1.298.7-2.689 1.13-4.522 1.377l-.121.017c-.296.05-.596.072-.896.064a.55.55 0 0 1-.386-.173.518.518 0 0 1-.139-.39.54.54 0 0 1 .193-.373.565.565 0 0 1 .407-.13c.227.004.453-.015.677-.054l.128-.018c1.687-.228 2.961-.613 4.132-1.25 1.273-.695 2.716-1.476 4.353-1.898 1.845-.476 3.533-.294 4.869.527 1.623.998 2.77 2.986 3.255 4.386 1.955 5.604 6.34 21.177 6.382 21.334a.62.62 0 0 1 .012.06c.004.02.383 2.274 1.989 3.33.822.539 1.845.678 3.052.415l.021-.005c.09-.018 2.194-.448 2.639-3.237a.535.535 0 0 1 .213-.365.565.565 0 0 1 .416-.108.54.54 0 0 1 .365.216.519.519 0 0 1 .091.407c-.518 3.3-2.976 4.014-3.514 4.13l.001.006-.108.023Z" fill="#EAD295"/><path d="m127.855 19.823-.09.019-7.358.8a1.364 1.364 0 0 1-1.525-1.151l-.482-3.058a1.39 1.39 0 0 1 .254-1.04c.205-.274.511-.458.851-.512l7.255-1.448.025-.005a1.36 1.36 0 0 1 1.538 1.144l.584 3.703c.059.363-.03.736-.249 1.037-.193.264-.48.446-.803.511Zm-.222-1.085a.19.19 0 0 0 .113-.073.289.289 0 0 0 .048-.212l-.584-3.702a.252.252 0 0 0-.251-.229l-7.247 1.441-.025.005a.195.195 0 0 0-.121.077.285.285 0 0 0-.048.21l.48 3.059c.01.13.122.231.257.227l.025-.005 7.353-.798Zm32.913 21.006c-1.088.221-2.211.05-3.12-.478-.909-.527-1.53-1.367-1.727-2.335-.197-.968.047-1.984.677-2.825.631-.841 1.596-1.438 2.685-1.66 1.089-.222 2.211-.05 3.12.478.91.527 1.53 1.367 1.727 2.335.197.967-.047 1.983-.678 2.824-.63.841-1.596 1.438-2.684 1.66Zm-1.289-6.306c-.792.164-1.495.6-1.953 1.213-.458.613-.634 1.353-.49 2.057.145.705.598 1.316 1.26 1.7a3.26 3.26 0 0 0 2.273.346c.793-.162 1.496-.597 1.955-1.21.459-.613.636-1.353.492-2.058-.137-.708-.59-1.324-1.255-1.709-.665-.384-1.487-.506-2.282-.336v-.003Zm3.153 15.426c-1.088.222-2.21.05-3.119-.477-.909-.528-1.53-1.367-1.727-2.335-.198-.967.046-1.983.676-2.824.63-.842 1.595-1.439 2.684-1.661 1.088-.222 2.21-.051 3.119.476.91.526 1.531 1.366 1.729 2.333.197.968-.047 1.984-.677 2.826-.63.841-1.596 1.439-2.685 1.662Zm-1.289-6.306c-.792.163-1.495.599-1.953 1.212-.458.613-.634 1.354-.489 2.058.144.705.598 1.316 1.261 1.7.662.383 1.48.507 2.273.345.792-.163 1.495-.598 1.954-1.211.459-.613.635-1.354.491-2.058-.137-.71-.589-1.326-1.254-1.711-.666-.386-1.488-.507-2.283-.338v.003Zm-1.689 10.715-.013.003c-6.427 1.145-9.371-2.804-9.493-2.972h.001a.558.558 0 0 1 .119-.76.534.534 0 0 1 .746.105c.111.151 2.696 3.558 8.431 2.536a.547.547 0 0 1 .635.442c.058.3-.133.59-.426.646ZM170.293 27.3l-3.524.72c-.286.059-.56-.098-.611-.35-.052-.252.139-.503.425-.562l3.523-.72c.286-.059.56.098.612.35.051.252-.139.503-.425.562Zm.559 2.736-3.523.72c-.286.059-.56-.098-.612-.35-.051-.252.139-.503.425-.562l3.524-.72c.286-.058.56.098.611.35.052.252-.139.503-.425.562Zm.559 2.736-3.524.72c-.286.059-.56-.098-.611-.35-.052-.252.139-.503.425-.562l3.523-.72c.287-.059.56.098.612.35.051.252-.139.503-.425.562Zm-28.08-7.562c-.231.05-.491-.233-.601-.652l-.043-.164c-.118-.451-.02-.896.219-.992.238-.097.528.191.646.643l.043.164c.117.45.02.891-.218.987a.253.253 0 0 1-.046.014Zm.933 4.56c-.231.05-.492-.232-.601-.652l-.043-.164c-.118-.451-.021-.896.218-.992.239-.096.528.192.647.643l.042.164c.118.45.02.891-.217.987a.253.253 0 0 1-.046.015Zm1.206 3.554c-.463.096-.885.015-.975-.188l-.035-.08c-.096-.217.224-.495.716-.62.491-.124.968-.047 1.064.17l.035.08c.096.217-.223.493-.712.617l-.093.021Zm1.384 4.468c-.231.05-.492-.233-.602-.653l-.042-.163c-.118-.452-.021-.896.218-.993.239-.096.528.192.646.644l.043.163c.117.45.02.892-.217.988l-.046.014Zm.933 4.56c-.232.05-.492-.233-.602-.652l-.043-.164c-.118-.452-.02-.896.219-.993.238-.096.528.192.646.644l.043.163c.117.45.02.892-.218.988l-.045.014Zm15.161-24.002a.763.763 0 0 1-.106.013c-.321.01-.582-.22-.582-.516v-.11a.527.527 0 0 1 .163-.396.628.628 0 0 1 .42-.177c.159-.005.31.05.419.15.11.102.169.242.162.387l.001.11c-.001.256-.202.483-.477.54Zm.115-2.25a.594.594 0 0 1-.163.011c-.32-.018-.554-.27-.524-.566l.011-.11c.032-.296.317-.52.637-.501.32.018.554.273.522.568l-.01.106a.58.58 0 0 1-.473.492Zm.368-2.235a.617.617 0 0 1-.229.005.562.562 0 0 1-.367-.22.489.489 0 0 1-.081-.4l.024-.115c.07-.291.381-.484.695-.43.314.053.513.332.444.623l-.024.103a.589.589 0 0 1-.465.436l.003-.002Zm.695-2.176a.594.594 0 0 1-.56-.172.495.495 0 0 1-.084-.541c.036-.08.057-.12.057-.12a.593.593 0 0 1 .329-.288.63.63 0 0 1 .446.004c.291.116.417.43.281.703l-.039.081a.598.598 0 0 1-.434.334l.004-.001Zm-6.836 7.818c-.247.05-.501-.101-.609-.364a2.894 2.894 0 0 0-.043-.104.67.67 0 0 1-.034-.47.543.543 0 0 1 .275-.338.484.484 0 0 1 .418-.003.611.611 0 0 1 .309.334l.05.114a.677.677 0 0 1 .02.463.547.547 0 0 1-.386.368Zm-1.203-2.206a.531.531 0 0 1-.531-.224c-.03-.042-.051-.066-.054-.072-.205-.253-.196-.634.02-.852.216-.217.557-.189.762.064 0 0 .032.04.09.118a.685.685 0 0 1 .129.446.594.594 0 0 1-.187.402.474.474 0 0 1-.229.117Z" fill="#EAD295"/></svg>