<svg width="95" height="60" fill="none" xmlns="http://www.w3.org/2000/svg"><path d="M2.563 37.672c1.593.073 3.28.078 5.062.016 1.563-.063 2.885-.178 3.969-.344 1.344-.219 2.276-.516 2.797-.89l-.188-.345.828-.203a14.4 14.4 0 0 0 .516 1.563c.177.468.349.843.515 1.125.198.354.38.557.547.61l-.64.671-.235-.297a30.44 30.44 0 0 1-3.203.953c-2.479.615-4.557.85-6.234.703.146 1.5.187 4.453.125 8.86-.063 4.593-.214 7.067-.453 7.422l.968.39-.109.703-5.437.25-.204-.687.875-.438c.678-7.166.85-12.614.516-16.343-.01-.084-.026-.224-.047-.422l-.015-.25-.032-.282c-.052-.479-.083-.88-.093-1.203-.063-.99-.006-1.51.171-1.562Zm22.843 16.562c-.01.323-.104.63-.281.922a1.884 1.884 0 0 1-.703.64c-1.23.626-2.214.855-2.953.688-.552-.135-.974-.427-1.266-.875-.375-.593-.437-1.37-.187-2.328.187-.74.64-1.234 1.359-1.484.26-.094.557-.156.89-.188.126-.01.261-.015.407-.015h.187l.157-.016c.093 0 .192.01.297.031.614.105 1.12.407 1.515.907.396.49.589 1.047.578 1.672v.046Zm6.407 4.203.156-.234c.093-.114.15-.187.172-.219-.198-.229-.35-.406-.453-.53-.094-.095-.214-.272-.36-.532a16.855 16.855 0 0 1-.328-.594.784.784 0 0 1-.422.14v.376a2.27 2.27 0 0 1-.422.265c-.354.157-.682.183-.984.078-.646-.208-1.037-.562-1.172-1.062-.104-.406-.094-1.245.031-2.516.032-.302.073-.625.125-.968.032-.22.084-.532.157-.938.135-.823.224-1.443.265-1.86a11.338 11.338 0 0 0-.375-4.343c-.27-.958-.9-1.677-1.89-2.156a5.182 5.182 0 0 0-2.547-.516c-.344.021-.72.078-1.125.172a7.356 7.356 0 0 0-1 .281l-.407.14a1.503 1.503 0 0 1-.187.063l-.078.032-.078.03c-.22.084-.35.126-.391.126-.146 0-.23-.1-.25-.297l-.11.016a.735.735 0 0 1-.234.203c.26.427.453.948.578 1.562.01.104.026.224.047.36l.032.172.015.171c.042.26.078.448.11.563a1.63 1.63 0 0 1 .25-.094c.135-.042.218-.057.25-.047l-.032-.203c.115-.114.276-.245.485-.39.427-.271.89-.448 1.39-.532.76-.125 1.407-.067 1.938.172.51.24.838.604.984 1.094.125.396.188.838.188 1.328a8.98 8.98 0 0 1-.125 1.25 7.44 7.44 0 0 1-.344 1.297 7.03 7.03 0 0 0-1.063-.563c-.864-.354-1.661-.5-2.39-.437-1.552.125-2.808.86-3.766 2.203-.427.604-.698 1.385-.812 2.344-.136 1.146.015 2.224.453 3.234.427.98 1.26 1.589 2.5 1.828.468.094.974.13 1.515.11a6.568 6.568 0 0 0 1.25-.172c.886-.23 1.756-.735 2.61-1.516.062.177.177.38.343.61.344.447.787.786 1.329 1.015.5.219 1.156.23 1.968.031.292-.062.589-.15.891-.265.115-.042.234-.084.36-.125l.124-.063a.863.863 0 0 0 .11-.047.932.932 0 0 1 .672 0l.047-.047Zm4.171-6.89c.25.042.818-.005 1.703-.14l.266-.032.281-.047c.209-.02.401-.042.578-.062a9.917 9.917 0 0 1 1.157-.078c.875 0 1.531.161 1.968.484.542.396.782 1.052.72 1.969-.074 1.166-1.152 1.958-3.235 2.375a13.687 13.687 0 0 1-3.11.265l-.328-4.734ZM35.562 45c.094.02.433.005 1.016-.047.302-.02.552-.036.75-.047.302-.01.568-.01.797 0 1.344.084 1.906.62 1.688 1.61-.178.791-.896 1.375-2.157 1.75a7.234 7.234 0 0 1-1.828.312L35.562 45Zm5.547 3.656c.563-.416.922-.99 1.078-1.718.167-.782.042-1.5-.374-2.157-.49-.76-1.303-1.302-2.438-1.625-1.333-.375-3.031-.411-5.094-.11-.156.022-.317.12-.484.298a.977.977 0 0 0-.172.265c-.031.094-.052.297-.063.61a85.64 85.64 0 0 0-.062 2.39 123.7 123.7 0 0 0-.016 3.328c.021 2.948.136 5.563.344 7.844.042.407.537.719 1.484.938.948.208 2.042.255 3.282.14 1.385-.125 2.614-.437 3.687-.937 1.25-.583 2.136-1.36 2.657-2.328.395-.73.609-1.49.64-2.282a4.366 4.366 0 0 0-.422-2.171 4.075 4.075 0 0 0-1.484-1.688c-.719-.458-1.573-.724-2.563-.797Zm14.547 5.578c-.01.323-.104.63-.281.922a1.877 1.877 0 0 1-.703.64c-1.23.626-2.214.855-2.953.688-.552-.135-.974-.427-1.266-.875-.375-.593-.437-1.37-.187-2.328.187-.74.64-1.234 1.359-1.484.26-.094.557-.156.89-.188.126-.01.261-.015.407-.015h.187l.157-.016c.093 0 .192.01.297.031.614.105 1.12.407 1.515.907.396.49.589 1.047.578 1.672v.046Zm6.407 4.203.156-.234c.093-.114.15-.187.172-.219-.198-.229-.35-.406-.453-.53-.094-.095-.214-.272-.36-.532a16.855 16.855 0 0 1-.328-.594.784.784 0 0 1-.422.14v.376a2.27 2.27 0 0 1-.422.265c-.354.157-.682.183-.984.078-.646-.208-1.037-.562-1.172-1.062-.104-.406-.094-1.245.031-2.516.032-.302.073-.625.125-.968.032-.22.084-.532.157-.938.135-.823.223-1.443.265-1.86a11.338 11.338 0 0 0-.375-4.343c-.27-.958-.9-1.677-1.89-2.156a5.182 5.182 0 0 0-2.547-.516c-.344.021-.72.078-1.125.172a7.356 7.356 0 0 0-1 .281l-.407.14a1.503 1.503 0 0 1-.187.063l-.078.032-.078.03c-.22.084-.35.126-.391.126-.146 0-.23-.1-.25-.297l-.11.016a.735.735 0 0 1-.234.203c.26.427.453.948.578 1.562.01.104.026.224.047.36l.032.172.015.171c.042.26.078.448.11.563a1.63 1.63 0 0 1 .25-.094c.135-.042.218-.057.25-.047l-.032-.203c.115-.114.276-.245.485-.39.427-.271.89-.448 1.39-.532.76-.125 1.407-.067 1.938.172.51.24.838.604.984 1.094.125.396.188.838.188 1.328a8.98 8.98 0 0 1-.125 1.25 7.44 7.44 0 0 1-.344 1.297 7.03 7.03 0 0 0-1.063-.563c-.864-.354-1.661-.5-2.39-.437-1.552.125-2.808.86-3.766 2.203-.427.604-.698 1.385-.812 2.344-.136 1.146.015 2.224.453 3.234.427.98 1.26 1.589 2.5 1.828.468.094.974.13 1.515.11a6.568 6.568 0 0 0 1.25-.172c.886-.23 1.756-.735 2.61-1.516.062.177.177.38.343.61.344.447.787.786 1.329 1.015.5.219 1.156.23 1.968.031.292-.062.589-.15.891-.265.115-.042.234-.084.36-.125l.124-.063a.863.863 0 0 0 .11-.047.932.932 0 0 1 .672 0l.047-.047Zm1.484-15.062a.59.59 0 0 1 .406.172c.23.219.25.885.063 2-.26 1.562-.386 4.026-.375 7.39 0 1.594.047 2.896.14 3.907.115 1.166.276 1.833.485 2 .5.375 2.244-1.052 5.234-4.282a121.622 121.622 0 0 0 4.328-4.953c.115 1.448.224 2.891.328 4.328.188 2.896.23 4.344.125 4.344-.125-.01-.25.058-.375.203l.235.735 3.625-.563a.657.657 0 0 0 .062-.375c0-.052-.016-.088-.047-.11-.073-.062-.281-.103-.625-.124-.104-1.927-.208-3.974-.312-6.14a399.684 399.684 0 0 1-.188-4.86c-.041-1.667-.047-2.839-.015-3.516-.896 0-1.438.047-1.625.14-.24.095-.651.537-1.235 1.329-.219.292-.52.708-.906 1.25a11.22 11.22 0 0 0-.266.36l-.125.187-.14.187-.547.782a76.194 76.194 0 0 1-2.594 3.437c-1.062 1.323-2.073 2.438-3.031 3.344l.328-10.578c.094-.042.193-.078.297-.11.094-.02.177-.036.25-.047a.39.39 0 0 1 .203.047c.042.032.083.016.125-.047a.52.52 0 0 0 .078-.234.504.504 0 0 0 0-.25c-.02-.083-.062-.125-.125-.125-.083 0-.693-.057-1.828-.172L65.172 43a5.365 5.365 0 0 1-.297-.031c-.23-.021-.417-.042-.563-.063a19.824 19.824 0 0 0-.593-.047l-.172.516Zm5.281-3.078c.209.312.313.588.313.828 0 .25.02.51.062.781l-.031.625h.328l.094-.265a3.095 3.095 0 0 0 1.703-.516c.5-.323 1.016-.839 1.547-1.547l.11-.156.39.203.36-.547c-.574-.437-.907-.812-1-1.125-.084-.312-.199-.505-.345-.578l-.25.219.125.265c-.791.959-1.557 1.558-2.296 1.797-.282.084-.459.115-.532.094-.031-.01-.057-.057-.078-.14l-.016-.047-.015-.047c-.01-.032-.026-.052-.047-.063-.125-.042-.266.031-.422.219Zm13.25 3.844a84.987 84.987 0 0 0-.297 5.062C81.73 50.734 81.74 52 81.812 53c.094 1.24.276 2.031.547 2.375.386.76 1.026 1.151 1.922 1.172.834.052 1.594-.318 2.281-1.11a5.967 5.967 0 0 0 1.344-2.671 71.93 71.93 0 0 0 .563-3.422c.208-1.542.338-3.172.39-4.89l-.546-.345v-.578c.791.094 1.312.115 1.562.063.25-.042.807-.052 1.672-.032l-.031.376-.344.171c-.156 6.105-.052 9.756.312 10.953.188.646.5.912.938.797a1.24 1.24 0 0 0 .594-.343l.03-.578.61-.11.078 3.375.125.89-.64-.046a.573.573 0 0 0-.125-.297c-.136-.198-.344-.286-.625-.266-.365.042-.776-.026-1.235-.203-.5-.187-.838-.416-1.015-.687-.323-.5-.526-1.146-.61-1.938a9.506 9.506 0 0 1-.718 1.235c-.594.875-1.214 1.458-1.86 1.75-.177.083-.38.166-.61.25a6.649 6.649 0 0 1-.89.25c-.791.187-1.526.255-2.203.203-1.937-.167-3.135-1.287-3.594-3.36-.697-3.208-.64-7.062.172-11.562l-.578-.281.063-.578c.708.093 1.218.104 1.53.03.324-.062.86-.103 1.61-.124l.031.531-.484.14Z" fill="#EAD295"/><path d="M48.01 15.98c-.056.242-.12.473-.183.701l-.107.387-.027.098-.002.006-.001.002.003.047-.003.014-.005.029-.01.057a15.312 15.312 0 0 0-.181 1.068 15.776 15.776 0 0 0-.146 2.592c.004.294.012.59.026.89.057 1.194.188 2.437.509 3.673.16.618.367 1.233.638 1.825.135.296.287.586.458.866.086.14.174.278.272.412.097.134.198.265.311.391l.179-.047c.042-.164.077-.323.11-.48.035-.159.065-.313.097-.467.061-.306.12-.606.175-.902a77.35 77.35 0 0 0 .313-1.744c.191-1.149.345-2.299.423-3.494.018-.299.032-.6.04-.903.008-.303.01-.61-.002-.917a10.429 10.429 0 0 0-.234-1.866 8.638 8.638 0 0 0-.26-.933c-.024-.077-.053-.154-.081-.234l-.021-.054-.016-.041a.283.283 0 0 0-.002-.01l.004.049-.002-.003-.002-.008-.044-.126a5.352 5.352 0 0 0-.397-.878c.333.247.664.484.988.715.718.51 1.408.999 2.064 1.488a28.233 28.233 0 0 1 1.86 1.495c.291.258.577.518.85.79.137.138.27.276.402.417.066.071.13.143.194.216l.024.027.013.013-.014-.016.008.008.14.167c.485.588.923 1.232 1.328 1.934.406.702.776 1.46 1.143 2.255.366.795.724 1.627 1.115 2.467.194.42.399.842.617 1.26.11.21.221.419.342.625.119.206.242.41.377.61l.178-.049c.02-.241.03-.48.04-.716a33.083 33.083 0 0 0 .019-2.117 21.989 21.989 0 0 0-.24-2.842 14.864 14.864 0 0 0-.733-2.88c-.351-.953-.83-1.89-1.436-2.747l-.119-.165-.051-.07-.077-.1a12.975 12.975 0 0 0-.76-.88 10.554 10.554 0 0 0-2.38-1.906 10.912 10.912 0 0 0-2.778-1.163l.941-.026 1.19-.026h.016c.389-.006.776-.012 1.162-.015.39 0 .78-.004 1.17.002.194.005.388.01.583.017l.29.014.292.016a23.07 23.07 0 0 1 4.617.739 20.5 20.5 0 0 1 3.46 1.28c.196.09.39.187.589.285l.6.301.134-.132c-.376-.86-.923-1.637-1.562-2.333a10.92 10.92 0 0 0-2.184-1.808 12.563 12.563 0 0 0-2.557-1.234 14.184 14.184 0 0 0-3.444-.748c-.234-.022-.467-.04-.701-.05a12.652 12.652 0 0 0-2.254.078 11.371 11.371 0 0 1 2.997-.93c1.062-.18 2.184-.23 3.357-.165a20.248 20.248 0 0 1 1.313.113l.028.003.228.028.057.007.03.004.014.002h.007l.004.001.02.008.03.003.044.008a2.535 2.535 0 0 0 .683.011c.19-.021.37-.063.54-.115.34-.105.642-.247.942-.401l-.015-.19c-.326-.098-.65-.168-.938-.265-.288-.093-.537-.213-.716-.362l-.033-.027-.002-.002a.033.033 0 0 0-.01-.011l-.025-.017c.026.01.018.006.014.004l-.002-.002-.007-.005-.012-.01-.026-.018-.053-.038a10.216 10.216 0 0 0-.645-.427 10.046 10.046 0 0 0-5.024-1.444 9.89 9.89 0 0 0-4.274.9c-.438.202-.86.441-1.26.712.012-.059.025-.118.036-.178l.015-.085.004-.022V8.26l.019-.088a6.838 6.838 0 0 1 .266-.872l.042-.105.021-.053.033-.077.017-.04.02-.049.044-.095a4.9 4.9 0 0 1 .197-.372 5.16 5.16 0 0 1 .238-.36c.343-.473.813-.927 1.374-1.368.56-.442 1.202-.87 1.867-1.329.332-.229.67-.466 1.007-.719l.251-.192.126-.098.062-.05.03-.026.016-.012-.026.013.006-.004.008-.007c.127-.112.276-.226.436-.344.32-.236.678-.484 1.013-.786a3.568 3.568 0 0 0 .568-.647 2.2 2.2 0 0 0 .088-.15c.056-.103.1-.211.132-.32L60.323 0c-.334.225-.69.312-1.06.386-.37.072-.755.116-1.166.192a5.676 5.676 0 0 0-.65.155l-.014.004.002-.002-.033.017-.017.006-.035.012-.068.022-.138.045-.276.089c-.37.119-.746.235-1.127.361-.762.252-1.55.533-2.35.933a8.673 8.673 0 0 0-1.776 1.155 7.907 7.907 0 0 0-.551.521 6.843 6.843 0 0 0-.952 1.252 7.324 7.324 0 0 0-.1.174l-.048.087-.05.095-.018.034-.009.017v.002-.001l-.006.01-.043.084a8.903 8.903 0 0 0-.382.876c-.089.24-.164.48-.232.728l-.048.182-.01.037-.002.01-.008.038a7.615 7.615 0 0 0-2.069-3.188l-.057-.052-.048-.043-.023-.021-.115-.1a10.653 10.653 0 0 0-.723-.556 8.788 8.788 0 0 0-.503-.326 9.22 9.22 0 0 0-.516-.294 11.109 11.109 0 0 0-2.127-.851 14.417 14.417 0 0 0-2.125-.44c-.7-.094-1.39-.145-2.073-.173a42.042 42.042 0 0 0-2.038-.02c-.679.006-1.357.018-2.062.046l-.055.182c.573.436 1.194.788 1.82 1.104.626.316 1.26.593 1.886.855 1.252.52 2.47.984 3.557 1.517.544.264 1.053.551 1.524.86.116.08.233.157.345.239.113.08.221.165.33.25.107.084.213.17.316.26l.151.134.076.069.016.015.002.003.005.003.035.035c.368.364.69.749.982 1.175.292.425.553.895.79 1.415l.13.286-.08-.15c.174.324.342.66.505 1.006l.123.264.032.075.014.034.002.002v-.004l.014.034.061.138c.082.183.161.37.24.56l.049.12a6.405 6.405 0 0 0-3.021-1.888 5.88 5.88 0 0 0-.365-.094 8.236 8.236 0 0 0-.369-.074c-.061-.012-.125-.02-.184-.029l-.077-.012-.103-.012a6.668 6.668 0 0 0-1.522-.008 7.374 7.374 0 0 0-1.465.314 8.26 8.26 0 0 0-.347.117l-.042.015-.022.008.032-.01h-.001l-.072.025c-.055.02-.134.047-.189.068a8.344 8.344 0 0 0-.689.294 9.808 9.808 0 0 0-1.232.717 14.045 14.045 0 0 0-1.058.798c-.658.543-1.235 1.083-1.805 1.576a26.94 26.94 0 0 1-.427.36l-.215.172-.055.042-.013.01-.017.013-.03.022-.009.007-.002.002-.005.007-.01.012-.036.03a1.562 1.562 0 0 1-.326.215 2.08 2.08 0 0 1-.432.151c-.322.08-.708.106-1.115.12-.205.008-.415.012-.629.025-.213.01-.43.026-.647.06l-.04.186.264.184c.088.062.175.12.263.18.175.12.355.236.542.35.373.221.78.429 1.264.558a3.245 3.245 0 0 0 .778.114 3.22 3.22 0 0 0 .844-.09c.036-.008.07-.019.106-.028l.113-.035.037-.01.018-.005.02-.006.084-.024a9.76 9.76 0 0 0 .961-.346c.827-.344 1.571-.763 2.26-1.136.69-.376 1.326-.709 1.924-.935a7.976 7.976 0 0 1 .44-.152c.041-.014.059-.017.1-.03l.072-.02.01-.003h.002l.002-.001.003-.002h.002l.049-.015.014-.005.029-.009.23-.07a8.517 8.517 0 0 1 1.8-.293l.047-.003h.076l.117-.003c.077-.003.154-.004.232-.003.077.002.156 0 .235.004l.238.01a9.883 9.883 0 0 1 2.73.552s-3.534 1.897-7.719 8.996C30.865 37.076 34 58 34 58l2 .5s-2.5-21.602 4.5-33.102c3.921-6.442 7.51-9.418 7.51-9.418Z" fill="#EAD295"/></svg>