<svg width="123" height="51" fill="none" xmlns="http://www.w3.org/2000/svg"><path d="M40.58 26.634c.364 0 .644.168.84.504.224.336.336.798.336 1.386 0 1.092-.266 1.96-.798 2.604-1.456 1.792-2.842 3.094-4.158 3.906a8.147 8.147 0 0 1-4.242 1.176c-2.968 0-5.138-1.4-6.51-4.2-1.372-2.8-2.058-6.594-2.058-11.382 0-2.212.126-4.508.378-6.888-1.316 4.704-2.674 8.68-4.074 11.928-1.4 3.248-3.066 5.838-4.998 7.77-1.932 1.932-4.172 2.898-6.72 2.898-1.792 0-3.36-.448-4.704-1.344-1.344-.896-2.338-2.114-2.982-3.654-.252-.644-.378-1.246-.378-1.806 0-.84.224-1.54.672-2.1.476-.588 1.078-.882 1.806-.882.588 0 1.064.14 1.428.42.364.28.63.728.798 1.344C5.552 29.518 6 30.4 6.56 30.96c.56.532 1.26.798 2.1.798 1.008 0 2.212-.882 3.612-2.646 1.4-1.792 2.842-4.34 4.326-7.644 1.736-3.864 3.794-9.758 6.174-17.682.364-1.176.91-2.03 1.638-2.562.756-.56 1.708-.84 2.856-.84s1.946.266 2.394.798c.448.504.63 1.344.546 2.52-.42 5.712-.63 10.304-.63 13.776 0 4.256.308 7.616.924 10.08.644 2.436 1.736 3.654 3.276 3.654.896 0 1.736-.28 2.52-.84.812-.588 1.862-1.638 3.15-3.15.308-.392.686-.588 1.134-.588Zm19.208-3.528c.364 0 .644.182.84.546.196.364.294.826.294 1.386 0 1.344-.406 2.142-1.218 2.394-1.68.588-3.528.924-5.544 1.008-.532 2.352-1.582 4.242-3.15 5.67-1.568 1.4-3.346 2.1-5.334 2.1-1.68 0-3.122-.406-4.326-1.218-1.176-.812-2.072-1.89-2.688-3.234-.616-1.344-.924-2.8-.924-4.368 0-2.128.406-4.018 1.218-5.67.812-1.68 1.932-2.982 3.36-3.906a8.372 8.372 0 0 1 4.746-1.428c2.128 0 3.836.742 5.124 2.226 1.316 1.456 2.086 3.262 2.31 5.418 1.316-.084 2.884-.364 4.704-.84.224-.056.42-.084.588-.084Zm-13.776 8.652c.896 0 1.666-.364 2.31-1.092.672-.728 1.12-1.778 1.344-3.15a5.96 5.96 0 0 1-2.016-2.31 7.016 7.016 0 0 1-.672-3.024c0-.448.042-.896.126-1.344h-.21c-1.12 0-2.058.546-2.814 1.638-.728 1.064-1.092 2.576-1.092 4.536 0 1.54.294 2.716.882 3.528.616.812 1.33 1.218 2.142 1.218Zm43.813-5.124c.364 0 .644.168.84.504.224.336.336.798.336 1.386 0 1.12-.266 1.988-.798 2.604-1.288 1.484-2.618 2.702-3.99 3.654-1.344.952-2.884 1.428-4.62 1.428-1.512 0-2.73-.532-3.654-1.596-1.652 1.064-3.346 1.596-5.082 1.596-.42 0-.77-.07-1.05-.21-.14 1.96-.21 4.368-.21 7.224l.042 4.536c0 1.54-.826 2.31-2.478 2.31-.756 0-1.358-.182-1.806-.546-.42-.364-.63-.924-.63-1.68 0-3.808.098-6.944.294-9.408.224-2.632.476-4.648.756-6.048h-.084c-.868 1.372-1.722 2.352-2.562 2.94-.812.588-1.694.882-2.646.882-1.736 0-3.122-.63-4.158-1.89-1.036-1.26-1.554-2.912-1.554-4.956 0-2.24.518-4.354 1.554-6.342 1.036-2.016 2.408-3.626 4.116-4.83 1.736-1.232 3.57-1.848 5.502-1.848.448 0 .812.07 1.092.21.252-1.596.518-3.164.798-4.704.308-1.54.63-3.066.966-4.578l.252-1.176c.224-1.12.588-1.904 1.092-2.352.532-.448 1.19-.672 1.974-.672.812 0 1.386.126 1.722.378.364.252.546.672.546 1.26 0 .392-.056.798-.168 1.218-.588 2.38-1.162 4.732-1.722 7.056-.56 2.296-1.078 4.69-1.554 7.182h.084c1.54-2.548 3.332-3.822 5.376-3.822 1.736 0 3.094.63 4.074 1.89.98 1.232 1.47 2.884 1.47 4.956 0 1.456-.238 2.898-.714 4.326a13.275 13.275 0 0 1-1.932 3.822c.588.168 1.092.252 1.512.252.924 0 1.806-.336 2.646-1.008.84-.672 1.918-1.792 3.234-3.36.336-.392.714-.588 1.134-.588ZM68.447 20.25c-1.148.028-2.212.476-3.192 1.344-.98.84-1.764 1.96-2.352 3.36a11.38 11.38 0 0 0-.882 4.452c0 .868.168 1.512.504 1.932.364.42.854.63 1.47.63.644 0 1.26-.392 1.848-1.176.588-.812 1.008-1.932 1.26-3.36l1.344-7.182Zm3.822 12.054c1.148-.028 2.212-.462 3.192-1.302.98-.868 1.764-2.002 2.352-3.402.588-1.4.882-2.884.882-4.452 0-.868-.182-1.512-.546-1.932-.336-.42-.812-.63-1.428-.63-.644 0-1.26.406-1.848 1.218-.588.784-1.008 1.89-1.26 3.318l-1.344 7.182Zm18.3 3.906c-1.065 0-1.82-.56-2.269-1.68-.42-1.12-.63-2.912-.63-5.376 0-3.64.518-7.098 1.554-10.374.252-.812.658-1.4 1.218-1.764.588-.392 1.4-.588 2.436-.588.56 0 .952.07 1.176.21.224.14.336.406.336.798 0 .448-.21 1.456-.63 3.024-.28 1.12-.504 2.1-.672 2.94-.168.812-.308 1.834-.42 3.066.756-2.184 1.652-4.032 2.688-5.544 1.064-1.512 2.142-2.632 3.234-3.36 1.12-.756 2.17-1.134 3.15-1.134s1.666.224 2.058.672c.42.448.63 1.134.63 2.058 0 .896-.266 2.52-.798 4.872a47.427 47.427 0 0 0-.462 2.268c1.4-3.444 2.954-5.95 4.662-7.518 1.708-1.568 3.304-2.352 4.788-2.352 1.82 0 2.73.91 2.73 2.73 0 1.092-.308 3.066-.924 5.922-.532 2.436-.798 4.046-.798 4.83 0 1.12.406 1.68 1.218 1.68.56 0 1.218-.336 1.974-1.008.784-.7 1.82-1.82 3.108-3.36.336-.392.714-.588 1.134-.588.364 0 .644.168.84.504.224.336.336.798.336 1.386 0 1.12-.266 1.988-.798 2.604-1.204 1.484-2.506 2.702-3.906 3.654-1.372.952-2.94 1.428-4.704 1.428-1.428 0-2.506-.406-3.234-1.218-.728-.84-1.092-2.044-1.092-3.612 0-.784.196-2.184.588-4.2.364-1.764.546-2.982.546-3.654 0-.448-.154-.672-.462-.672-.364 0-.882.476-1.554 1.428-.672.924-1.344 2.156-2.016 3.696a30.169 30.169 0 0 0-1.638 4.872c-.308 1.344-.672 2.24-1.092 2.688-.392.448-1.036.672-1.932.672-.924 0-1.624-.434-2.1-1.302-.448-.896-.672-1.974-.672-3.234 0-1.064.14-2.604.42-4.62.224-1.792.336-2.968.336-3.528 0-.448-.154-.672-.462-.672-.42 0-.952.504-1.596 1.512-.644 1.008-1.274 2.296-1.89 3.864a39.495 39.495 0 0 0-1.428 4.62c-.308 1.316-.672 2.212-1.092 2.688-.392.448-1.022.672-1.89.672Z" fill="#EAD295"/></svg>