<svg width="128" height="86" fill="none" xmlns="http://www.w3.org/2000/svg"><g clip-path="url(#a)" fill="#EAD295"><path d="m108.021 32.176-5.961-6.237h-.026v-5.894L94.264 8.83V.03h-1.529v8.788l-8.24 11.216v6.37l-5.517 5.773v22.835h2.497v31.012h24.05V55.011h2.497l-.001-22.835Zm-2.589-.465H81.567l4.012-4.198h15.84l4.013 4.198Zm-19.409-5.772v-4.854h14.482v4.854H86.023Zm.773-6.428 6.685-9.101 6.305 9.1h-12.99Zm17.199 64.938H83.003V55.013h20.994l-.002 29.438Zm1.529-31.012H80.505V33.285h25.987v20.152h-.968Z"/><path d="M93.5 34.57c-4.706 0-8.535 3.944-8.535 8.79 0 4.847 3.829 8.79 8.535 8.79 4.706 0 8.535-3.943 8.535-8.79 0-4.846-3.83-8.79-8.535-8.79Zm0 16.007c-3.863 0-7.007-3.238-7.007-7.216 0-3.979 3.144-7.216 7.007-7.216 3.863 0 7.006 3.237 7.006 7.216 0 3.978-3.143 7.216-7.006 7.216Z"/><path d="m93.388 42.334-2.073-1.438-.854 1.306 3.15 2.185 4.266-4.659-1.112-1.08-3.377 3.686Zm-6.6 15.876h1.529v23.745h-1.529V58.21Zm5.713 0h1.529v23.745H92.5V58.21Zm5.713 0h1.529v23.745h-1.53V58.21Z"/></g><path d="M18.373 27.6H3.75v14.336c0 .853-.064 1.675-.192 2.464a9.531 9.531 0 0 1-.576 2.08c-.256.619-.565 1.11-.928 1.472a1.81 1.81 0 0 1-1.28.512V50c1.003 0 1.845-.352 2.528-1.056.704-.704 1.227-1.643 1.568-2.816.363-1.173.544-2.443.544-3.808V29.264h11.2V50h1.76V27.6Zm3.797 15.04c0 1.472.33 2.795.992 3.968a7.308 7.308 0 0 0 2.688 2.72c1.152.661 2.442.992 3.872.992 1.43 0 2.71-.33 3.84-.992a7.238 7.238 0 0 0 2.72-2.72c.661-1.173.992-2.496.992-3.968 0-1.493-.33-2.816-.992-3.968a7.238 7.238 0 0 0-2.72-2.72c-1.13-.661-2.41-.992-3.84-.992-1.43 0-2.72.33-3.872.992a7.308 7.308 0 0 0-2.688 2.72c-.662 1.152-.992 2.475-.992 3.968Zm1.696 0c0-1.195.256-2.25.768-3.168a5.584 5.584 0 0 1 2.08-2.144c.896-.533 1.899-.8 3.008-.8 1.11 0 2.101.267 2.976.8a5.459 5.459 0 0 1 2.112 2.176c.512.917.768 1.963.768 3.136 0 1.195-.256 2.25-.768 3.168a5.747 5.747 0 0 1-2.112 2.176c-.875.512-1.867.768-2.976.768-1.11 0-2.112-.256-3.008-.768a5.824 5.824 0 0 1-2.08-2.176c-.512-.917-.768-1.973-.768-3.168Zm17.917.352h10.752v-1.568H41.783v1.568Zm9.728-7.712V50h1.664V35.28H51.51Zm-10.72 0V50h1.664V35.28H40.79Zm25.187 2.528 5.344 11.488h1.856l-7.2-15.136-7.2 15.136h1.856l5.344-11.488ZM73.434 50v2.88h1.664v-4.448h-18.24v4.448h1.76V50h14.816Zm40.364-7.008h10.752v-1.568h-10.752v1.568Zm9.728-7.712V50h1.664V35.28h-1.664Zm-10.72 0V50h1.664V35.28h-1.664Z" fill="#EAD295"/><defs><clipPath id="a"><path fill="#fff" transform="translate(79)" d="M0 0h29v86H0z"/></clipPath></defs></svg>