<svg width="127" height="25" fill="none" xmlns="http://www.w3.org/2000/svg"><path d="M11.18 13.016h.256l1.6 1.92v2.336c-.832 0-1.376.15-1.632.448-.235.299-.352.779-.352 1.44v.48c.149 0 .277-.085.384-.256l.896.576 1.6 1.92c-.128 1.003-.491 1.76-1.088 2.272-.598.512-1.323.768-2.176.768-.832 0-1.654-.288-2.464-.864-.811.576-1.654.864-2.528.864-.854 0-1.835-.512-2.944-1.536-1.11-1.024-1.728-2.165-1.856-3.424l.896-.576c.085.192.288.288.608.288.917 0 1.376-.8 1.376-2.4h-.384l-1.6-1.92v-2.336c.874 0 1.493.032 1.856.096v-6.08h-.256l-1.6-1.92V.6H9.42l5.152 6.24L19.788.6h6.976l1.6 1.92v4.512h-1.92v5.984h.256l1.6 1.92v2.336c-.832 0-1.376.15-1.632.448-.235.299-.352.779-.352 1.44v.48c.149 0 .277-.085.384-.256l.896.576 1.6 1.92c-.128 1.003-.491 1.76-1.088 2.272-.598.512-1.323.768-2.176.768-.832 0-1.654-.288-2.464-.864-.811.576-1.654.864-2.528.864-.854 0-1.835-.512-2.944-1.536-1.11-1.024-1.728-2.165-1.856-3.424l.896-.576c.085.192.288.288.608.288.917 0 1.376-.8 1.376-2.4h-.384l-1.6-1.92v-.544l-.832 1.024h-.736l-1.6-1.888-2.688-3.392v2.464Zm9.504 1.056c.213-.128.469-.384.768-.768h.832c.277.384.533.64.768.768a2.23 2.23 0 0 1 .832-.704V4.216h1.984v-2.72h-5.632L14.604 8.12h-.736l-5.6-6.624h-5.6v2.72h1.92v9.152c.298.15.576.384.832.704.213-.128.469-.384.768-.768h.832c.277.384.533.64.768.768.234-.32.544-.565.928-.736v-6.08h.864l4.64 5.792 4.672-5.792h.864v6.08c.341.15.65.395.928.736ZM6.7 21.048c.768.661 1.61.992 2.528.992.938 0 1.621-.533 2.048-1.6-.15.085-.32.128-.512.128-1.494 0-2.24-1.099-2.24-3.296 0-1.792.704-2.688 2.112-2.688v-.8c-.406 0-.715.021-.928.064-.214.021-.48.15-.8.384-.32.235-.608.587-.864 1.056-.512-.107-.992-.48-1.44-1.12-.448.576-.928.95-1.44 1.12-.278-.47-.576-.821-.896-1.056-.32-.235-.587-.363-.8-.384a4.828 4.828 0 0 0-.896-.064v.8c1.408 0 2.112.896 2.112 2.688 0 1.621-.342 2.635-1.024 3.04-.32.17-.726.256-1.216.256l-.512-.128c.426 1.067 1.098 1.6 2.016 1.6.938 0 1.792-.33 2.56-.992H6.7Zm15.264 0c.768.661 1.61.992 2.528.992.938 0 1.621-.533 2.048-1.6-.15.085-.32.128-.512.128-1.494 0-2.24-1.099-2.24-3.296 0-1.792.704-2.688 2.112-2.688v-.8c-.406 0-.715.021-.928.064-.214.021-.48.15-.8.384-.32.235-.608.587-.864 1.056-.512-.107-.992-.48-1.44-1.12-.448.576-.928.95-1.44 1.12-.576-.981-1.344-1.472-2.304-1.472h-.288v.768c1.408 0 2.112.896 2.112 2.688 0 1.621-.342 2.635-1.024 3.04-.32.17-.726.256-1.216.256l-.512-.128c.426 1.067 1.098 1.6 2.016 1.6.938 0 1.792-.33 2.56-.992h.192ZM36.462.6h15.68l1.6 1.92v4.448h-1.664l1.184 6.08c.192-.021.49-.032.896-.032l1.6 1.92.384 2.304c-1.152 0-1.728.512-1.728 1.536 0 .619.074.928.224.928.362 0 .565-.107.608-.32l1.024.608 1.6 1.92c0 1.024-.256 1.781-.768 2.272-.491.49-1.131.736-1.92.736-.768 0-1.654-.267-2.656-.8-.79.533-1.558.8-2.304.8-1.174 0-2.283-.523-3.328-1.568-1.024-1.045-1.718-2.165-2.08-3.36l.768-.608c.17.213.416.32.736.32.704 0 1.056-.416 1.056-1.248l-.096-.736c-.406-.213-.907-.32-1.504-.32-.576 0-1.131.17-1.664.512-.534.341-.896.832-1.088 1.472l.768.608 1.6 1.92c-.299 1.003-.8 1.75-1.504 2.24-.683.512-1.419.768-2.208.768-.768 0-1.579-.267-2.432-.8-.96.533-1.846.8-2.656.8-1.11 0-2.091-.533-2.944-1.6-.832-1.067-1.248-2.176-1.248-3.328l.992-.608c.042.213.245.32.608.32.384 0 .746-.256 1.088-.768a3.788 3.788 0 0 0 .672-1.696l-1.696-1.92.384-2.304c.917 0 1.61.064 2.08.192l1.28-6.528-1.344-1.632V.6Zm11.872 13.504c.192-.15.405-.416.64-.8h.832c.341.405.65.672.928.8.085-.15.256-.33.512-.544l-1.824-9.44h1.824V1.496H37.358V4.12h1.824l-1.856 9.44c.256.192.448.373.576.544.256-.15.554-.416.896-.8h.832c.17.405.352.672.544.8.81-.81 2.176-1.216 4.096-1.216 1.941 0 3.296.405 4.064 1.216Zm2.496 6.944c.938.725 1.834 1.088 2.688 1.088.874 0 1.45-.555 1.728-1.664-.107.085-.256.128-.448.128-.811 0-1.504-.395-2.08-1.184-.555-.81-.832-1.579-.832-2.304 0-1.515.586-2.357 1.76-2.528l-.128-.768c-.406 0-.715.021-.928.064-.192.021-.427.15-.704.384-.278.213-.512.555-.704 1.024-.491-.085-1.046-.448-1.664-1.088-.15.277-.331.512-.544.704-.192.17-.416.299-.672.384-.832-1.024-2.176-1.536-4.032-1.536-1.856 0-3.179.512-3.968 1.536-.491-.085-.907-.448-1.248-1.088-.512.555-1.046.917-1.6 1.088-.192-.47-.438-.81-.736-1.024-.278-.235-.523-.363-.736-.384a4.827 4.827 0 0 0-.896-.064l-.128.768c.597.085 1.034.341 1.312.768.298.405.448.981.448 1.728s-.288 1.525-.864 2.336c-.555.79-1.227 1.184-2.016 1.184l-.448-.128c.277 1.11.832 1.664 1.664 1.664.853 0 1.76-.363 2.72-1.088h.192c.725.725 1.45 1.088 2.176 1.088.96 0 1.792-.555 2.496-1.664a1.27 1.27 0 0 1-.576.128c-1.195 0-1.792-.619-1.792-1.856s.405-2.208 1.216-2.912c.81-.725 1.749-1.088 2.816-1.088 1.066 0 2.005.363 2.816 1.088.81.704 1.216 1.675 1.216 2.912 0 1.237-.598 1.856-1.792 1.856l-.608-.128c.682 1.11 1.525 1.664 2.528 1.664.746 0 1.472-.363 2.176-1.088h.192Zm-9.44-8.928 1.728-8h2.368l1.792 8H41.39Zm3.936-4.64-.832 3.808h1.696l-.864-3.808Zm30.197 7.04h-2.368l.352.416v2.336c-.832 0-1.376.15-1.632.448-.235.299-.352.779-.352 1.44v.48c.15 0 .277-.085.384-.256l.896.576 1.6 1.92c-.128 1.003-.49 1.76-1.088 2.272-.597.512-1.323.768-2.176.768-.832 0-1.653-.288-2.464-.864-.81.576-1.653.864-2.528.864-.854 0-1.835-.512-2.944-1.536-1.11-1.024-1.728-2.165-1.856-3.424l.896-.576c.085.192.288.288.608.288.917 0 1.376-.8 1.376-2.4h-.384l-1.6-1.92v-2.336c.874 0 1.493.032 1.856.096v-6.08h-.896l-1.6-1.92V.6h17.184l1.6 1.92v7.808h-3.712l-1.6-1.92V7.032H71.65v1.856h2.272l1.6 1.92v3.712Zm-9.632-.448c.213-.128.47-.384.768-.768h.832c.277.384.533.64.768.768a2.22 2.22 0 0 1 .832-.704v-1.664h3.936v-1.92H69.09V4.216h6.88v3.296h1.92V1.496H62.499v2.72h2.56v9.152c.299.15.576.384.832.704Zm1.28 6.976c.768.661 1.61.992 2.528.992.939 0 1.621-.533 2.048-1.6-.15.085-.32.128-.512.128-1.493 0-2.24-1.099-2.24-3.296 0-1.792.704-2.688 2.112-2.688v-.8c-.406 0-.715.021-.928.064-.213.021-.48.15-.8.384-.32.235-.608.587-.864 1.056-.512-.107-.992-.48-1.44-1.12-.448.576-.928.95-1.44 1.12-.278-.47-.576-.821-.896-1.056-.32-.235-.587-.363-.8-.384a4.828 4.828 0 0 0-.896-.064v.8c1.408 0 2.112.896 2.112 2.688 0 1.621-.341 2.635-1.024 3.04-.32.17-.725.256-1.216.256l-.512-.128c.427 1.067 1.099 1.6 2.016 1.6.939 0 1.792-.33 2.56-.992h.192Zm29.4-14.016h-1.92v5.984h.256l1.6 1.92v2.336c-.832 0-1.376.15-1.632.448-.235.299-.352.779-.352 1.44v.48c.149 0 .277-.085.384-.256l.896.576 1.6 1.92c-.128 1.003-.491 1.76-1.088 2.272-.598.512-1.323.768-2.176.768-.832 0-1.654-.288-2.464-.864-.811.576-1.654.864-2.528.864-.854 0-1.835-.512-2.944-1.536-1.11-1.024-1.728-2.165-1.856-3.424l.896-.576c.085.192.288.288.608.288.917 0 1.376-.8 1.376-2.4h-.384l-1.6-1.92v-2.336c.874 0 1.493.032 1.856.096v-6.08h-.256l-1.6-1.92V.6h9.728l1.6 1.92v4.512Zm-7.68 7.04c.213-.128.469-.384.768-.768h.832c.277.384.533.64.768.768a2.23 2.23 0 0 1 .832-.704V4.216h1.984v-2.72h-7.936v2.72h1.92v9.152c.298.15.576.384.832.704Zm1.28 6.976c.768.661 1.61.992 2.528.992.938 0 1.621-.533 2.048-1.6-.15.085-.32.128-.512.128-1.494 0-2.24-1.099-2.24-3.296 0-1.792.704-2.688 2.112-2.688v-.8c-.406 0-.715.021-.928.064-.214.021-.48.15-.8.384-.32.235-.608.587-.864 1.056-.512-.107-.992-.48-1.44-1.12-.448.576-.928.95-1.44 1.12-.278-.47-.576-.821-.896-1.056-.32-.235-.587-.363-.8-.384a4.827 4.827 0 0 0-.896-.064v.8c1.408 0 2.112.896 2.112 2.688 0 1.621-.342 2.635-1.024 3.04-.32.17-.726.256-1.216.256l-.512-.128c.426 1.067 1.098 1.6 2.016 1.6.938 0 1.792-.33 2.56-.992h.192ZM105.079.6h15.68l1.6 1.92v4.448h-1.664l1.184 6.08c.192-.021.491-.032.896-.032l1.6 1.92.384 2.304c-1.152 0-1.728.512-1.728 1.536 0 .619.075.928.224.928.363 0 .565-.107.608-.32l1.024.608 1.6 1.92c0 1.024-.256 1.781-.768 2.272-.491.49-1.131.736-1.92.736-.768 0-1.653-.267-2.656-.8-.789.533-1.557.8-2.304.8-1.173 0-2.283-.523-3.328-1.568-1.024-1.045-1.717-2.165-2.08-3.36l.768-.608c.171.213.416.32.736.32.704 0 1.056-.416 1.056-1.248l-.096-.736c-.405-.213-.907-.32-1.504-.32-.576 0-1.131.17-1.664.512-.533.341-.896.832-1.088 1.472l.768.608 1.6 1.92c-.299 1.003-.8 1.75-1.504 2.24-.683.512-1.419.768-2.208.768-.768 0-1.579-.267-2.432-.8-.96.533-1.845.8-2.656.8-1.109 0-2.091-.533-2.944-1.6-.832-1.067-1.248-2.176-1.248-3.328l.992-.608c.043.213.245.32.608.32.384 0 .747-.256 1.088-.768a3.781 3.781 0 0 0 .672-1.696l-1.696-1.92.384-2.304c.917 0 1.611.064 2.08.192l1.28-6.528-1.344-1.632V.6Zm11.872 13.504c.192-.15.405-.416.64-.8h.832c.341.405.651.672.928.8.085-.15.256-.33.512-.544l-1.824-9.44h1.824V1.496h-13.888V4.12h1.824l-1.856 9.44c.256.192.448.373.576.544.256-.15.555-.416.896-.8h.832c.171.405.352.672.544.8.811-.81 2.176-1.216 4.096-1.216 1.941 0 3.296.405 4.064 1.216Zm2.496 6.944c.939.725 1.835 1.088 2.688 1.088.875 0 1.451-.555 1.728-1.664-.107.085-.256.128-.448.128-.811 0-1.504-.395-2.08-1.184-.555-.81-.832-1.579-.832-2.304 0-1.515.587-2.357 1.76-2.528l-.128-.768c-.405 0-.715.021-.928.064-.192.021-.427.15-.704.384-.277.213-.512.555-.704 1.024-.491-.085-1.045-.448-1.664-1.088a2.585 2.585 0 0 1-.544.704c-.192.17-.416.299-.672.384-.832-1.024-2.176-1.536-4.032-1.536-1.856 0-3.179.512-3.968 1.536-.491-.085-.907-.448-1.248-1.088-.512.555-1.045.917-1.6 1.088-.192-.47-.437-.81-.736-1.024-.277-.235-.523-.363-.736-.384a4.825 4.825 0 0 0-.896-.064l-.128.768c.597.085 1.035.341 1.312.768.299.405.448.981.448 1.728s-.288 1.525-.864 2.336c-.555.79-1.227 1.184-2.016 1.184l-.448-.128c.277 1.11.832 1.664 1.664 1.664.853 0 1.76-.363 2.72-1.088h.192c.725.725 1.451 1.088 2.176 1.088.96 0 1.792-.555 2.496-1.664a1.273 1.273 0 0 1-.576.128c-1.195 0-1.792-.619-1.792-1.856s.405-2.208 1.216-2.912c.811-.725 1.749-1.088 2.816-1.088 1.067 0 2.005.363 2.816 1.088.811.704 1.216 1.675 1.216 2.912 0 1.237-.597 1.856-1.792 1.856l-.608-.128c.683 1.11 1.525 1.664 2.528 1.664.747 0 1.472-.363 2.176-1.088h.192Zm-9.44-8.928 1.728-8h2.368l1.792 8h-5.888Zm3.936-4.64-.832 3.808h1.696l-.864-3.808Z" fill="#EAD295"/></svg>