<svg width="121" height="56" fill="none" xmlns="http://www.w3.org/2000/svg"><g clip-path="url(#a)" fill="#EAD295"><path d="M14.757 22.285h.479v-.48h-.48v.48Zm0-1.106h.479V20.7h-.48v.48Zm.848 2.212h.479v-.48h-.48v.48Zm0-1.106h.479v-.48h-.48v.48Zm0-1.106h.479V20.7h-.48v.48Zm.847 6.635h.48v-.479h-.48v.48Zm0-1.105h.48v-.48h-.48v.48Zm0-1.106h.48v-.48h-.48v.48Zm0-1.106h.48v-.48h-.48v.48Zm0-1.106h.48v-.48h-.48v.48Zm0-1.106h.48v-.48h-.48v.48Zm0-1.106h.48V20.7h-.48v.48Zm-5.029-3.095h5.308v1.525h1.274V56H12.89V40.227C12.111 45.494 10.704 56 10.704 56H6.881L5.08 39.81V56H0V19.609h1.338v-1.526H6.54v1.526h1.23l1.185 12.244 1.317-12.244h1.151v-1.526Zm17.562 5.307h-.479v-.48h.48v.48Zm0 1.106h-.479v-.48h.48v.48Zm0 1.106h-.479v-.48h.48v.48Zm0 1.105h-.479v-.479h.48v.48Zm0 1.106h-.479v-.479h.48v.48Zm-.848-7.74h-.479v-.48h.48v.48Zm0 1.105h-.479V20.7h.48v.48Zm0 1.106h-.479v-.48h.48v.48Zm0 1.106h-.479v-.48h.48v.48Zm0 1.106h-.479v-.48h.48v.48Zm-.848-5.53h-.479v-.479h.48v.48Zm0 1.106h-.479v-.479h.48v.48Zm0 1.106h-.479V20.7h.48v.48Zm-.848-4.423h-.479v-.48h.48v.48Zm0 1.106h-.479v-.48h.48v.48Zm0 1.106h-.479v-.48h.48v.48ZM24.88 42.486l.737-11.332.738 11.332h-1.476Zm4.486-25.077-.46-.4s-.308-2.302-.925-3.92c-.443-1.162-1.77-1.988-1.77-1.988l-.594-6.435-.594 6.435s-1.327.826-1.77 1.987c-.616 1.619-.924 3.922-.924 3.922l-.46.399L18.712 56h5.196s.405-5.425.494-8.047h2.428c.09 2.622.494 8.047.494 8.047h5.197l-3.156-38.591Zm14.769 2.664h.48v-.479h-.48v.48Zm0-1.105h.48v-.48h-.48v.48Zm.848 3.317h.48v-.48h-.48v.48Zm0-1.106h.48V20.7h-.48v.48Zm0-1.106h.48v-.479h-.48v.48Zm0-1.105h.48v-.48h-.48v.48Zm.848 3.317h.48v-.48h-.48v.48Zm0-1.106h.48V20.7h-.48v.48Zm-11.084-3.095h4.643l2.541 15.15.041-15.15h4.166v1.525h.847L47.075 56h-5.873s-1.657-9.662-2.555-14.49L38.6 56h-5.258V19.609h1.404v-1.526Zm56.46 1.989h.479v-.479h-.48v.48Zm0-1.105h.479v-.48h-.48v.48Zm-2.544 0h.479v-.48h-.479v.48Zm3.392 2.211h.479V20.7h-.479v.48Zm0-1.106h.479v-.479h-.479v.48Zm0-1.105h.479v-.48h-.479v.48Zm-2.544 0h.48v-.48h-.48v.48Zm3.392 3.317h.479v-.48h-.48v.48Zm0-1.106h.479V20.7h-.48v.48Zm0-1.106h.479v-.479h-.48v.48Zm0-1.105h.479v-.48h-.48v.48Zm-2.544 1.105h.479v-.479h-.479v.48Zm0-1.105h.479v-.48h-.479v.48Zm-15.664-.884H93.91v4.943h-2.654V56h-5.673V23.027h-2.178V56h-5.808l-.035-32.973h-2.875l.008-4.944Zm25.211.884h.48v-.48h-.48v.48Zm0-1.106h.48v-.48h-.48v.48Zm0-1.106h.48v-.48h-.48v.48Zm.848 3.317h.479v-.479h-.479v.48Zm0-1.105h.479v-.48h-.479v.48Zm-3.392-2.212h.48v-.48h-.48v.48Zm.849 1.106h.479v-.48h-.48v.48Zm0-1.106h.479v-.48h-.48v.48Zm.847 1.106h.48v-.48h-.48v.48Zm0-1.106h.48v-.48h-.48v.48Zm0-1.106h.48v-.48h-.48v.48Zm2.544 6.635h.48v-.48h-.48v.48Zm0-1.106h.48V20.7h-.48v.48Zm0-1.106h.48v-.479h-.48v.48Zm0-1.105h.48v-.48h-.48v.48Zm-3.71 28.985L97.307 56H92.31l2.807-37.916h1.329l.178-2.486h1.11l.236-1.635h.823v-1.929h.487v1.929h.824l.235 1.635h1.11l.179 2.486h1.329L105.764 56h-4.996l-.587-8.047h-2.288Zm1.908-5.467-.763-11.332-.764 11.332H99.8Zm17.726-25.73h.479v-.48h-.479v.48Zm.848-2.212h.479v-.48h-.479v.48Zm0 3.318h.479v-.48h-.479v.48Zm0-1.106h.479v-.48h-.479v.48Zm0-1.106h.479v-.48h-.479v.48Zm.848-1.106h.479v-.48h-.479v.48Zm0-1.105h.479v-.48h-.479v.48Zm0 7.74h.479V20.7h-.479v.48Zm0-1.106h.479v-.479h-.479v.48Zm0-1.105h.479v-.48h-.479v.48Zm0-1.106h.479v-.48h-.479v.48Zm0-1.106h.479v-.48h-.479v.48Zm0-1.106h.479v-.48h-.479v.48Zm1.122-4.724V56h-5.592l-2.875-14.384V56h-5.123l-.02-37.916h5.661l2.741 13.974V14.527a140.78 140.78 0 0 1 5.208-3.601ZM58.99 9.015h.48v-.48h-.48v.48Zm0-1.106h.48v-.48h-.48v.48Zm0-1.106h.48v-.479h-.48v.48Zm-1.696 0h.48v-.479h-.48v.48Zm0-1.106h.48v-.479h-.48v.48Zm2.544 5.53h.48v-.48h-.48v.48Zm0-1.106h.48v-.48h-.48v.48Zm0-1.106h.48v-.48h-.48v.48Zm0-1.106h.48v-.48h-.48v.48Zm0-1.106h.48v-.479h-.48v.48Zm0-1.106h.48v-.479h-.48v.48ZM58.142 7.91h.48v-.48h-.48v.48Zm0-1.106h.48v-.479h-.48v.48Zm0-1.106h.48v-.479h-.48v.48Zm2.544 9.953h.48v-.48h-.48v.48Zm0-1.106h.48v-.48h-.48v.48Zm0-1.105h.48v-.48h-.48v.48Zm0-1.107h.48v-.479h-.48v.48Zm0-1.105h.48v-.48h-.48v.48Zm0-1.106h.48v-.48h-.48v.48Zm0-1.106h.48v-.48h-.48v.48Zm0-1.106h.48v-.48h-.48v.48Zm0-1.106h.48v-.479h-.48v.48Zm0-1.106h.48v-.479h-.48v.48Zm-1.696 0h.48v-.479h-.48v.48Zm-4.263-1.36v22.309h1.442V4.338h5.692V56H56.17V32.367h-1.442V56h-5.591l-.06-51.662h5.651Zm14.289 9.101h.48v-.48h-.48v.48Zm.848 0h.48v-.48h-.48v.48Zm-.848 1.105h.48v-.48h-.48v.48Zm.848 0h.48v-.48h-.48v.48Zm0 2.212h.48v-.48h-.48v.48Zm0-1.106h.48v-.48h-.48v.48Zm.848 4.423h.48v-.479h-.48v.48Zm0-1.105h.48v-.48h-.48v.48Zm0-1.106h.48v-.48h-.48v.48Zm0-1.106h.48v-.48h-.48v.48Zm-2.414 31.197L67.716 56h-5.128l3.184-39.61 1.049-.206.452-4.189.848-.205.556-6.446h.502V-.001h.302v5.345h.502l.556 6.446.847.205.453 4.19 1.049.205L76.071 56h-5.128l-.582-8.047h-2.063Zm1.032-16.8-.68 11.334h1.36l-.68-11.333Z"/></g><defs><clipPath id="a"><path fill="#fff" d="M0 0h120.343v56H0z"/></clipPath></defs></svg>