<svg width="79" height="50" fill="none" xmlns="http://www.w3.org/2000/svg"><path d="M6.927 33.37V48h-.814V33.37H.723v-.726h11.594v.726h-5.39Zm14.758 14.894c-1.92 0-3.417-.66-4.488-1.98-1.056-1.335-1.584-3.322-1.584-5.962 0-2.64.528-4.62 1.584-5.94 1.071-1.335 2.567-2.002 4.488-2.002 1.922 0 3.41.667 4.466 2.002 1.071 1.32 1.606 3.3 1.606 5.94 0 2.64-.535 4.627-1.606 5.962-1.056 1.32-2.544 1.98-4.466 1.98Zm0-.726c1.6 0 2.86-.557 3.784-1.672.94-1.115 1.408-2.743 1.408-4.884v-1.32c0-2.141-.469-3.77-1.408-4.884-.924-1.115-2.185-1.672-3.784-1.672-1.598 0-2.867.557-3.806 1.672-.924 1.115-1.386 2.743-1.386 4.884v1.32c0 2.141.462 3.77 1.386 4.884.94 1.115 2.208 1.672 3.806 1.672ZM33.27 32.644h.814v7.194h3.41l3.828-6.424c.162-.293.323-.491.484-.594a1.13 1.13 0 0 1 .638-.176H43.5v.726h-1.32l-3.608 6.05c-.16.264-.3.447-.418.55a.727.727 0 0 1-.396.198v.066c.176.03.338.103.484.22.162.117.33.323.506.616l3.74 6.204h1.32V48h-1.166c-.234 0-.432-.051-.594-.154-.16-.103-.322-.286-.484-.55l-4.07-6.754h-3.41V48h-.814V32.644Zm15.553 0h.792v12.298l-.11 2.002h.066l1.056-1.892 8.206-12.408h.704V48h-.792V35.702l.132-2.002h-.066l-1.056 1.892L49.548 48h-.726V32.644Zm22.315 15.62c-1.921 0-3.417-.66-4.488-1.98-1.056-1.335-1.584-3.322-1.584-5.962 0-2.64.528-4.62 1.584-5.94 1.071-1.335 2.567-2.002 4.488-2.002 1.922 0 3.41.667 4.466 2.002 1.071 1.32 1.606 3.3 1.606 5.94 0 2.64-.535 4.627-1.606 5.962-1.056 1.32-2.544 1.98-4.466 1.98Zm0-.726c1.599 0 2.86-.557 3.784-1.672.939-1.115 1.408-2.743 1.408-4.884v-1.32c0-2.141-.469-3.77-1.408-4.884-.924-1.115-2.185-1.672-3.784-1.672-1.598 0-2.867.557-3.806 1.672-.924 1.115-1.386 2.743-1.386 4.884v1.32c0 2.141.462 3.77 1.386 4.884.939 1.115 2.208 1.672 3.806 1.672ZM5.832 12.026h6.091v2.547H5.832v-2.547Zm0-3.938h6.091v2.494H5.832V8.088Zm14.52 0v2.494h-6.46V8.088h6.46Zm0 6.485h-6.46v-2.547h6.46v2.547Zm1.97 1.523V6.538h-8.43V4.333h10.53V2.495h-10.53V.026h-1.969v2.469H1.656v1.838h10.267v2.205H3.941v9.558h6.354C7.958 18.538 4.31 20.796 1 21.952c.473.394 1.05 1.129 1.365 1.628 3.335-1.366 7.064-3.86 9.558-6.67v7.064h1.97V16.83c2.52 2.836 6.354 5.436 9.768 6.801.289-.551.893-1.286 1.365-1.68-3.36-1.13-7.09-3.387-9.479-5.856h6.775Zm28.306-13.05h-10.45V0h-2.023v3.046H27.888V4.91h22.74V3.046Zm-18.46 13.497c-.945 1.812-2.862 3.965-4.752 5.304.446.289 1.129.788 1.549 1.155 1.917-1.47 3.965-3.755 5.2-5.83l-1.996-.63Zm.867-7.536h12.551v4.306H33.035V9.007Zm14.573 6.013V7.3H31.092v7.72h7.09v6.67c0 .367-.105.472-.604.472-.447.026-2.075.052-3.887 0 .263.499.552 1.287.657 1.812 2.31 0 3.807 0 4.674-.29.893-.288 1.155-.84 1.155-1.969V15.02h7.431Zm-3.518 2.39c1.785 1.759 3.886 4.253 4.857 5.776l1.891-.972c-1.05-1.549-3.256-3.938-4.989-5.645l-1.76.84Zm16.542-9.48V4.779h3.073c-.683 1.103-1.47 2.153-2.285 3.151h-.788Zm3.388 8.429h-5.882v-2.547h5.882v2.547Zm-5.882 4.332v-2.757h5.882v2.758h-5.882ZM65.727.946c-.552 1.234-1.13 2.416-1.839 3.545V3.046h-3.256V.236h-1.838v2.81h-4.017v1.733h4.017V7.93h-5.199v1.733h6.223a25.68 25.68 0 0 1-6.8 4.858c.367.394.997 1.208 1.234 1.601a27.189 27.189 0 0 0 2.074-1.26v9.007h1.812v-1.55h5.882v1.182h1.864v-11.29h-6.118c.893-.789 1.707-1.655 2.494-2.548h4.806V7.93h-3.388c1.47-1.943 2.784-4.096 3.808-6.486l-1.76-.499Zm10.45.473-.315.079h-7.694V24h1.917V3.361h4.884a96.902 96.902 0 0 1-3.203 7.116c2.757 2.284 3.571 4.254 3.571 5.908.026.945-.184 1.733-.761 2.048-.342.184-.788.29-1.235.315-.577.053-1.365.027-2.232-.052.342.551.552 1.365.578 1.917.814.052 1.733.052 2.442-.027.657-.078 1.287-.262 1.76-.603.971-.604 1.365-1.812 1.339-3.414 0-1.864-.71-3.912-3.466-6.355a155.204 155.204 0 0 0 3.807-7.877l-1.392-.92Z" fill="#EAD295"/></svg>