<svg width="115" height="101" fill="none" xmlns="http://www.w3.org/2000/svg"><path d="M17.306 68.812V92h-2.55v-9.214h-4.692c-.408 0-.714-.011-.918-.034L4.046 92H1.36l5.542-9.792c-1.337-.544-2.38-1.383-3.128-2.516-.725-1.156-1.088-2.448-1.088-3.876 0-2.153.646-3.853 1.938-5.1 1.315-1.27 3.071-1.904 5.27-1.904h7.412Zm-2.55 2.108H9.894c-1.45 0-2.595.442-3.434 1.326-.816.884-1.224 2.074-1.224 3.57 0 1.519.43 2.709 1.292 3.57.861.861 2.097 1.292 3.706 1.292h4.522V70.92Zm21.925 5.168h2.449V92h-2.313V79.624l-5.44 10.506h-1.495l-5.169-10.268V92h-2.312V76.088h2.619l5.745 11.356 5.916-11.356Zm21.755 0V92h-2.312v-2.346a7.265 7.265 0 0 1-2.414 2.142c-.952.499-1.995.748-3.128.748-1.519 0-2.879-.363-4.08-1.088-1.201-.725-2.142-1.734-2.822-3.026-.68-1.292-1.02-2.765-1.02-4.42 0-1.632.329-3.083.986-4.352.68-1.292 1.61-2.3 2.788-3.026 1.201-.725 2.561-1.088 4.08-1.088 1.156 0 2.21.26 3.162.782a6.716 6.716 0 0 1 2.448 2.142v-2.38h2.312Zm-7.922 14.348c1.088 0 2.051-.272 2.89-.816.861-.544 1.53-1.303 2.006-2.278.476-.975.714-2.074.714-3.298 0-1.224-.238-2.323-.714-3.298-.476-.975-1.145-1.734-2.006-2.278-.839-.544-1.802-.816-2.89-.816-1.065 0-2.017.272-2.856.816-.839.544-1.496 1.303-1.972 2.278-.476.952-.714 2.04-.714 3.264 0 1.247.238 2.357.714 3.332.476.975 1.133 1.734 1.972 2.278s1.79.816 2.856.816Zm24.193-14.348h2.312V92h-2.313V79.318L65.255 92h-2.312V76.088h2.312V88.94l9.453-12.852Zm-4.896-2.516c-1.474 0-2.653-.295-3.537-.884-.883-.59-1.326-1.383-1.326-2.38h2.313c0 1.043.85 1.564 2.55 1.564 1.7 0 2.55-.521 2.55-1.564h2.311c0 .997-.441 1.79-1.325 2.38-.884.59-2.063.884-3.536.884ZM94.62 92h-2.618l-5.61-7.208h-2.55V92H81.53V76.088h2.312v6.596h2.584l4.964-6.596h2.584l-5.78 7.548L94.62 92Zm17.438-15.912V92h-2.312v-2.346a7.263 7.263 0 0 1-2.414 2.142c-.952.499-1.995.748-3.128.748-1.519 0-2.879-.363-4.08-1.088-1.201-.725-2.142-1.734-2.822-3.026-.68-1.292-1.02-2.765-1.02-4.42 0-1.632.329-3.083.986-4.352.68-1.292 1.61-2.3 2.788-3.026 1.201-.725 2.561-1.088 4.08-1.088 1.156 0 2.21.26 3.162.782a6.71 6.71 0 0 1 2.448 2.142v-2.38h2.312Zm-7.922 14.348c1.088 0 2.051-.272 2.89-.816.861-.544 1.53-1.303 2.006-2.278.476-.975.714-2.074.714-3.298 0-1.224-.238-2.323-.714-3.298-.476-.975-1.145-1.734-2.006-2.278-.839-.544-1.802-.816-2.89-.816-1.065 0-2.017.272-2.856.816-.839.544-1.496 1.303-1.972 2.278-.476.952-.714 2.04-.714 3.264 0 1.247.238 2.357.714 3.332.476.975 1.133 1.734 1.972 2.278s1.791.816 2.856.816Z" fill="#EAD295"/><g clip-path="url(#a)"><path d="m113.711 36.319-5.16-1.302c.14.2.295.38.422.6 1.879 3.285 1.621 7.792-.77 13.401a1.097 1.097 0 0 1-1.958.115l-2.625-4.555a.5.5 0 0 1-.037-.065l-2.516-4.38a.566.566 0 0 1-.041-.075l-2.483-4.322a108.669 108.669 0 0 0-7.11 22.101v.07a84.053 84.053 0 0 0-.969 5.947h23.069c.603 0 1.093.485 1.093 1.084 0 .6-.49 1.085-1.093 1.085H26.032a1.09 1.09 0 0 1-1.093-1.085c0-.599.489-1.084 1.093-1.084h24.253a83.98 83.98 0 0 0-.971-5.947v-.07a108.649 108.649 0 0 0-7.108-22.102l-2.485 4.338-.033.055-2.541 4.392-.024.044-2.625 4.554a1.079 1.079 0 0 1-1.015.547 1.094 1.094 0 0 1-.945-.651c-2.39-5.61-2.652-10.117-.77-13.4.124-.218.28-.4.42-.601l-5.157 1.301a1.1 1.1 0 0 1-1.085-.32 1.078 1.078 0 0 1-.28-.838 8.443 8.443 0 0 1 3.685-6.654 12.146 12.146 0 0 1 7.746-1.39l-6.895-6.53a1.08 1.08 0 0 1 .326-1.782 9.65 9.65 0 0 1 8.64-.187 9.28 9.28 0 0 1 3.83 4.395 9.67 9.67 0 0 1 5.594-5.72 9.39 9.39 0 0 1 3.64-7.298 9.557 9.557 0 0 1 8.018-1.757 9.481 9.481 0 0 1 6.403 5.098 9.345 9.345 0 0 1 .002 8.141 9.482 9.482 0 0 1-6.4 5.101 9.562 9.562 0 0 1-8.019-1.752l-3.062 2.542c2.38-.171 4.752.431 6.755 1.718a13.266 13.266 0 0 1 5.186 8.739c.047.378-.11.752-.412.986a1.102 1.102 0 0 1-1.065.16L47.636 34.42a114.85 114.85 0 0 1 5.083 10.722c3.339.514 21.396 2.989 35.702-.924 1.969-4.625 3.58-7.809 4.676-9.793l-12 4.543a1.1 1.1 0 0 1-1.062-.16 1.081 1.081 0 0 1-.412-.983 13.246 13.246 0 0 1 5.183-8.74 11.046 11.046 0 0 1 6.757-1.719l-5.8-4.815-4.156-3.455a1.08 1.08 0 0 1 .344-1.857 15.402 15.402 0 0 1 11.546.699 10.338 10.338 0 0 1 4.25 5.075 9.274 9.274 0 0 1 3.83-4.394 9.638 9.638 0 0 1 8.641.186 1.08 1.08 0 0 1 .326 1.783l-6.895 6.53a12.166 12.166 0 0 1 7.746 1.39 8.441 8.441 0 0 1 3.668 6.651 1.08 1.08 0 0 1-.279.838 1.099 1.099 0 0 1-.815.355c-.087 0-.173-.012-.258-.034Zm-20.542 7.114-1.722-.65a156.741 156.741 0 0 0-1.951 4.537l2.155.791a116.11 116.11 0 0 1 1.518-4.678Zm-2.129 6.773-2.356-.867a222.36 222.36 0 0 0-2.128 5.566l3.036 1.14c.44-2.025.93-3.982 1.448-5.839ZM81.133 63.85a275.863 275.863 0 0 1 3.833-10.966 25.862 25.862 0 0 1-14.396 4.731 26.41 26.41 0 0 1-15.057-5.433 282.954 282.954 0 0 1 4.1 11.676l21.52-.008Zm-29.968-7.808 3.038-1.14a218.437 218.437 0 0 0-2.129-5.567l-2.358.868a114.04 114.04 0 0 1 1.438 5.846l.01-.007Zm-2.056-7.93 2.155-.791a163.245 163.245 0 0 0-1.95-4.54l-1.725.65a141.11 141.11 0 0 1 1.508 4.689l.012-.008Zm20.518.469c-4.704-.01-9.402-.3-14.07-.867 2.272.722 5.566 1.759 7.625 2.358.523.15.854.66.777 1.195a1.092 1.092 0 0 1-1.392.887 313.575 313.575 0 0 1-5.75-1.763 24.41 24.41 0 0 0 13.763 5.045 24.509 24.509 0 0 0 14.437-5.297 54.513 54.513 0 0 1-10.237 1.375h-.057a1.09 1.09 0 0 1-1.12-1.057 1.089 1.089 0 0 1 1.066-1.112 38.698 38.698 0 0 0 12.545-2.227l.181-.453a77.795 77.795 0 0 1-17.78 1.923l.012-.007ZM50.857 16.64a17.52 17.52 0 0 1 7.948.597 1.08 1.08 0 0 1 .343 1.857l-5.196 4.313a7.273 7.273 0 0 0 5.969.996 7.203 7.203 0 0 0 4.635-3.86 7.1 7.1 0 0 0 .041-6.002 7.2 7.2 0 0 0-4.58-3.923 7.271 7.271 0 0 0-5.983.914 7.147 7.147 0 0 0-3.178 5.108ZM43.27 32.876c.035.07 1.66 3.338 3.574 8.512l1.553-.584a62.768 62.768 0 0 0-4.182-7.886 1.076 1.076 0 0 1 .04-1.288 1.099 1.099 0 0 1 1.252-.341l5.007 1.895-.405-.778a1.081 1.081 0 0 1 .477-1.46 1.099 1.099 0 0 1 1.473.47l1.512 2.926 4.921 1.864a10.12 10.12 0 0 0-3.78-5.33 10.746 10.746 0 0 0-9.012-.744 1.097 1.097 0 0 1-1.258-.541 1.078 1.078 0 0 1 .265-1.335l3.61-3-1.112-.303a1.083 1.083 0 0 1-.763-1.334c.16-.578.762-.916 1.345-.757l2.568.703 1.23-1.02-1.515-.297a1.085 1.085 0 0 1-.852-1.28c.12-.587.699-.965 1.29-.845l3.22.65 2.354-1.952a11.723 11.723 0 0 0-7.717.996 9.59 9.59 0 0 0-4.262 7.066c0 .02-.017.037-.02.057-.09.359-.322.666-.642.855a1.11 1.11 0 0 1-.84.005 1.088 1.088 0 0 1-.595-.585c-.02-.05 0-.11-.016-.165a.966.966 0 0 1-.052-.139 9.473 9.473 0 0 0-3.82-6.398 6.63 6.63 0 0 0-5.116-.287l2.49 2.359 2.592-.651a1.094 1.094 0 0 1 1.327.79c.147.581-.21 1.17-.797 1.316l-1.25.308 3.98 3.789c.367.35.441.905.18 1.337-.261.433-.788.63-1.273.476-.06-.017-6.093-1.952-9.708.38a5.667 5.667 0 0 0-2.407 3.47l2.048-.522 2.293-2.72a1.1 1.1 0 0 1 1.52-.113c.454.376.524 1.042.157 1.503l-.341.406 2.325-.592a13.963 13.963 0 0 1 3.833-1.115 1.092 1.092 0 0 1 1.203.928 1.086 1.086 0 0 1-.901 1.219c-1.094.152-2.16.457-3.167.906l-.1.05a7.277 7.277 0 0 0-3.318 2.926c-1.313 2.278-1.277 5.423.07 9.379l1.275-2.223-1.075-4.135a1.084 1.084 0 0 1 .79-1.297 1.095 1.095 0 0 1 1.327.756l.514 1.97.96-1.675-1.024-3.2a1.084 1.084 0 0 1 .729-1.316 1.096 1.096 0 0 1 1.356.666l.413 1.301 2.322-4.075c.194-.339.556-.547.949-.547h.03c.402.011.765.24.946.596Zm9.216 30.974h4.813a303.6 303.6 0 0 0-2.367-6.904L51.585 58.2a79.74 79.74 0 0 1 .9 5.649Zm35.775 0c.239-1.922.536-3.811.89-5.64l-3.342-1.258a285.93 285.93 0 0 0-2.37 6.904l4.822-.006Zm24.351-30.05a5.672 5.672 0 0 0-2.406-3.47c-3.619-2.328-9.649-.398-9.709-.38a1.097 1.097 0 0 1-1.273-.476 1.078 1.078 0 0 1 .18-1.338l3.99-3.778-1.249-.308a1.086 1.086 0 0 1-.798-1.315c.146-.582.74-.936 1.327-.79l2.592.65 2.49-2.358a6.636 6.636 0 0 0-5.117.286 9.475 9.475 0 0 0-3.817 6.393 1.053 1.053 0 0 1-.053.138c-.013.053 0 .115-.015.165a1.09 1.09 0 0 1-.595.584c-.27.109-.57.107-.838-.004a1.04 1.04 0 0 1-.542-.58 1.01 1.01 0 0 1-.103-.275c0-.02-.018-.037-.02-.057a9.592 9.592 0 0 0-4.26-7.066 11.728 11.728 0 0 0-7.718-.996l2.08 1.735 3.163-.65c.592-.12 1.17.259 1.29.846.121.586-.26 1.16-.853 1.28l-1.454.292 1.503 1.247 2.565-.703c.583-.16 1.185.18 1.346.757a1.084 1.084 0 0 1-.764 1.334l-1.111.304 3.61 3c.393.328.503.883.264 1.334a1.097 1.097 0 0 1-1.258.542 10.752 10.752 0 0 0-9.012.744 10.105 10.105 0 0 0-3.796 5.32l4.92-1.863 1.512-2.926a1.1 1.1 0 0 1 1.473-.471c.539.273.751.927.476 1.46l-.403.779 5.004-1.895a1.1 1.1 0 0 1 1.254.34c.297.375.313.897.04 1.288a63.39 63.39 0 0 0-4.18 7.89l1.551.58c1.914-5.172 3.54-8.441 3.574-8.51.18-.358.544-.587.947-.6.41-.033.798.184.983.548l2.329 4.058.411-1.302a1.1 1.1 0 0 1 1.372-.71c.577.18.897.79.715 1.361l-1.026 3.2.962 1.672.514-1.968c.152-.58.75-.928 1.334-.777.585.15.936.742.785 1.321l-1.079 4.133 1.278 2.223c1.347-3.955 1.372-7.101.068-9.379a7.29 7.29 0 0 0-3.33-2.928l-.096-.046a11.692 11.692 0 0 0-3.17-.908 1.087 1.087 0 0 1-.936-1.202 1.11 1.11 0 0 1 1.235-.924c1.325.187 2.615.562 3.831 1.115l2.325.592-.341-.406a1.078 1.078 0 0 1 .117-1.55 1.103 1.103 0 0 1 1.561.16l2.293 2.72 2.058.518Z" fill="#EAD295"/></g><defs><clipPath id="a"><path fill="#fff" transform="translate(25)" d="M0 0h90v66H0z"/></clipPath></defs></svg>