<svg width="161" height="88" fill="none" xmlns="http://www.w3.org/2000/svg"><g opacity=".75" filter="url(#a)" fill="#EFD4E0"><path d="M36.395 40.535h-1.811l-12.68-14.522c6.06-2.19 11.158-6.198 11.158-11.002a9.418 9.418 0 0 0-2.925-6.994 10.974 10.974 0 0 0-7.843-2.768H5.377v34.037h10.396l.906 1.258H4.063V4h18.114c3.776 0 6.756 1.04 8.993 3.185a10.65 10.65 0 0 1 3.242 7.826c0 4.75-4.664 9.22-10.152 11.518l12.135 14.006ZM73.508 4v19.57a17.742 17.742 0 0 1-4.528 12.26c-2.98 3.393-7.055 5.067-12.172 5.067-5.117 0-9.192-1.674-12.172-5.067a17.741 17.741 0 0 1-4.528-12.26V4h33.4ZM63.474 38.237a13.294 13.294 0 0 0 4.863-3.62 17.063 17.063 0 0 0 3.867-10.857V5.25h-30.72v18.43c0 5.998 2.926 11.843 8.722 14.612a16.587 16.587 0 0 0 13.268-.054ZM26.406 63.39a8.691 8.691 0 0 1 5.85 3.383 10.995 10.995 0 0 1 2.3 6.84c0 5.845-4.12 10.007-11.383 10.007H4V47.103h19.227c5.48 0 8.567 3.13 8.567 7.356a11.065 11.065 0 0 1-.996 4.017 7.854 7.854 0 0 1-1.204 1.728c-.33.43-.697.83-1.096 1.195a32.99 32.99 0 0 1-1.196 1.149l-.317.316-.58.525ZM5.304 48.333v33.214l20.685-19.47c.996-.987 1.811-1.72 2.246-2.19a9.184 9.184 0 0 0 1.467-2.298c.51-.946.777-2.003.78-3.077 0-3.619-2.61-6.161-7.246-6.161l-17.932-.018ZM23.173 82.38c6.34 0 10.08-3.393 10.08-8.767a9.178 9.178 0 0 0-2.247-6.333 8.277 8.277 0 0 0-5.696-2.868L6.29 82.362l16.882.018ZM36.44 47.103h1.304V83.62H36.44V47.103Zm35.81 0h1.313V83.62H40.281V47.103h1.81l30.186 34.653-.027-34.653ZM41.594 48.56v33.82h29.424L41.594 48.56Z"/><path d="m73.174 82.797-1.006.841L4.063 5.565l1.051-.986 68.06 78.218Zm15.749-43.312h27.423v1.249H87.619V4.208h1.304v35.277Zm48.524 2.398a17.617 17.617 0 0 1-13.159-5.528 18.1 18.1 0 0 1-5.488-13.31 18.294 18.294 0 0 1 5.488-13.354 17.772 17.772 0 0 1 13.159-5.483 17.985 17.985 0 0 1 13.214 5.483 18.458 18.458 0 0 1 5.434 13.354 18.126 18.126 0 0 1-5.479 13.31 17.638 17.638 0 0 1-13.169 5.528Zm12.281-6.415A17.119 17.119 0 0 0 154.791 23a16.904 16.904 0 0 0-5.063-12.413 17.214 17.214 0 0 0-18.895-3.79 17.214 17.214 0 0 0-5.612 3.79A17 17 0 0 0 120.104 23a17.178 17.178 0 0 0 5.117 12.477 17.101 17.101 0 0 0 12.254 5.168 17.114 17.114 0 0 0 12.253-5.168v-.01Zm6.367 11.681v1.248H138.1L138.181 84h-1.304l-.082-35.603-17.995.245v-1.213l37.295-.28Zm-68.476.325V84h1.304V71.007h19.906l-1.06-1.257H88.923V48.705h21.926v.018h5.506v-1.249H87.619Z"/></g><path d="M36.395 40.535h-1.811l-12.68-14.522c6.06-2.19 11.158-6.198 11.158-11.002a9.42 9.42 0 0 0-2.925-6.994 10.974 10.974 0 0 0-7.843-2.768H5.377v34.037h10.396l.906 1.258H4.063V4h18.113c3.777 0 6.757 1.04 8.994 3.185a10.65 10.65 0 0 1 3.242 7.826c0 4.75-4.664 9.22-10.152 11.518l12.135 14.006ZM73.508 4v19.57a17.741 17.741 0 0 1-4.528 12.26c-2.98 3.393-7.055 5.067-12.172 5.067-5.117 0-9.192-1.674-12.172-5.067a17.741 17.741 0 0 1-4.528-12.26V4h33.4ZM63.474 38.237a13.294 13.294 0 0 0 4.863-3.62 17.063 17.063 0 0 0 3.867-10.857V5.25h-30.72v18.43c0 5.998 2.926 11.843 8.722 14.612a16.586 16.586 0 0 0 13.268-.054ZM26.406 63.39a8.691 8.691 0 0 1 5.85 3.383 10.995 10.995 0 0 1 2.3 6.84c0 5.845-4.12 10.007-11.383 10.007H4V47.103h19.227c5.48 0 8.567 3.13 8.567 7.356a11.065 11.065 0 0 1-.996 4.017 7.854 7.854 0 0 1-1.204 1.728c-.33.43-.697.83-1.096 1.195a32.99 32.99 0 0 1-1.196 1.149l-.317.316-.58.525ZM5.304 48.333v33.214l20.685-19.47c.996-.987 1.811-1.72 2.246-2.19a9.184 9.184 0 0 0 1.467-2.298c.51-.946.777-2.003.78-3.077 0-3.619-2.61-6.161-7.246-6.161l-17.932-.018ZM23.173 82.38c6.34 0 10.08-3.393 10.08-8.767a9.178 9.178 0 0 0-2.247-6.333 8.277 8.277 0 0 0-5.696-2.868L6.29 82.362l16.882.018ZM36.44 47.103h1.304V83.62H36.44V47.103Zm35.81 0h1.313V83.62H40.281V47.103h1.81l30.186 34.653-.027-34.653ZM41.594 48.56v33.82h29.424L41.594 48.56Z" fill="#EFD4E0"/><path d="m73.174 82.797-1.006.841L4.063 5.565l1.051-.986 68.06 78.218Zm15.749-43.312h27.423v1.249H87.619V4.208h1.304v35.277Zm48.524 2.398a17.62 17.62 0 0 1-13.159-5.528 18.084 18.084 0 0 1-5.488-13.31 18.294 18.294 0 0 1 5.488-13.354 17.772 17.772 0 0 1 13.159-5.483 17.985 17.985 0 0 1 13.214 5.483 18.458 18.458 0 0 1 5.434 13.354 18.143 18.143 0 0 1-5.479 13.31 17.638 17.638 0 0 1-13.169 5.528Zm12.281-6.415A17.119 17.119 0 0 0 154.791 23a16.906 16.906 0 0 0-5.063-12.413 17.214 17.214 0 0 0-18.895-3.79 17.214 17.214 0 0 0-5.612 3.79A17 17 0 0 0 120.104 23a17.178 17.178 0 0 0 5.117 12.477 17.101 17.101 0 0 0 12.254 5.168 17.114 17.114 0 0 0 12.253-5.168v-.01Zm6.367 11.681v1.248H138.1L138.181 84h-1.304l-.081-35.603-17.996.245v-1.213l37.295-.28Zm-68.476.325V84h1.304V71.007h19.906l-1.06-1.257H88.922V48.705h21.927v.018h5.506v-1.249H87.619Z" fill="#EFD4E0"/><defs><filter id="a" x="0" y="0" width="160.098" height="88" filterUnits="userSpaceOnUse" color-interpolation-filters="sRGB"><feFlood flood-opacity="0" result="BackgroundImageFix"/><feBlend in="SourceGraphic" in2="BackgroundImageFix" result="shape"/><feGaussianBlur stdDeviation="2" result="effect1_foregroundBlur_1145_73"/></filter></defs></svg>