<svg width="153" height="130" fill="none" xmlns="http://www.w3.org/2000/svg"><g clip-path="url(#a)"><g opacity=".75" filter="url(#b)"><path fill-rule="evenodd" clip-rule="evenodd" d="M83.747 58.43a10.2 10.2 0 0 1 2.585.511L111 46.001 153 69v25l-.251.134c-.021 1.442-.38 2.779-.985 3.787-.615 1.025-1.569 1.829-2.764 1.829-1.133 0-1.832-.765-2.199-1.353a4.655 4.655 0 0 1-.42-.87L95.736 124.51c-.073 1.297-.42 2.491-.972 3.411-.615 1.025-1.569 1.829-2.764 1.829-1.196 0-2.15-.804-2.765-1.829-.567-.944-.917-2.177-.976-3.514l-31.696-17.735a4.572 4.572 0 0 1-.365.725c-.367.588-1.065 1.353-2.198 1.353-1.196 0-2.15-.804-2.765-1.829-.604-1.007-.962-2.341-.984-3.78L50 103V78l21.202-11.122c.406-1.07.931-2.051 1.551-2.936L.634 23.655l.732-1.31L73.694 62.75c1.785-2.013 4.097-3.383 6.514-3.989l-1.45-10.154 1.484-.212 1.442 10.093c.187-.023.374-.04.56-.053L78.751 1.046l1.497-.092 3.499 57.476Zm63.95 38.395.03-.008.002.007.008.028.005.016a3.12 3.12 0 0 0 .331.734c.258.413.56.648.927.648.461 0 1.007-.316 1.478-1.1.34-.568.598-1.32.71-2.185l-3.491 1.86Zm-95.879 7.193 3.42 1.913a3.257 3.257 0 0 1-.312.672c-.258.412-.56.647-.926.647-.462 0-1.008-.316-1.478-1.1-.334-.556-.588-1.29-.704-2.132Zm38.046 21.287c.13.722.363 1.353.658 1.845.47.784 1.016 1.1 1.478 1.1.461 0 1.007-.316 1.478-1.1.286-.477.514-1.086.646-1.782L92 126.5l-2.136-1.195ZM73.377 65.737l11.169-5.86c-4.015-.77-8.72 1.431-11.169 5.86Zm18.64 34.524L52.654 78.496l58.328-30.79 39.362 21.764-58.329 30.791ZM93 101.87v22.107l58.5-30.881V70.988L93 101.87ZM51.5 80.044v22.071L91 123.957v-22.072L51.5 80.044Zm53.3-26.017-5.073 2.874.739 1.305 5.074-2.873-.74-1.306Zm-7.097 3.824-5.074 2.874.74 1.305 5.073-2.874-.74-1.305ZM.937 61.748l66 5.5.125-1.495-66-5.5-.125 1.495Zm109.577-10.466c-.29-.076-.745-.078-1.261.103-.515.182-.869.468-1.047.71a.743.743 0 0 0-.117.21.736.736 0 0 0 .222.089c.291.077.746.078 1.261-.103.516-.182.869-.468 1.048-.71a.745.745 0 0 0 .117-.21.74.74 0 0 0-.223-.089Zm.259.122s-.003-.002-.006-.008a.114.114 0 0 1 .006.008Zm-.028-.07v-.01.01Zm-2.692.938.006.008-.004-.004-.002-.004Zm.028.07v.01-.01Zm4.087-1.474c-.363-1.032-1.891-1.434-3.413-.898-1.522.536-2.461 1.807-2.098 2.838.364 1.032 1.892 1.434 3.413.898 1.522-.536 2.461-1.807 2.098-2.838Z" fill="#EAD295"/></g><path fill-rule="evenodd" clip-rule="evenodd" d="M83.747 58.43a10.2 10.2 0 0 1 2.585.511L111 46.001 153 69v25l-.251.134c-.021 1.442-.38 2.779-.985 3.787-.615 1.025-1.569 1.829-2.764 1.829-1.133 0-1.832-.765-2.199-1.353a4.655 4.655 0 0 1-.42-.87L95.736 124.51c-.073 1.297-.42 2.491-.972 3.411-.615 1.025-1.569 1.829-2.764 1.829-1.196 0-2.15-.804-2.765-1.829-.567-.944-.917-2.177-.976-3.514l-31.696-17.735a4.572 4.572 0 0 1-.365.725c-.367.588-1.065 1.353-2.198 1.353-1.196 0-2.15-.804-2.765-1.829-.604-1.007-.962-2.341-.984-3.78L50 103V78l21.202-11.122c.406-1.07.931-2.051 1.551-2.936L.634 23.655l.732-1.31L73.694 62.75c1.785-2.013 4.097-3.383 6.514-3.989l-1.45-10.154 1.484-.212 1.442 10.093c.187-.023.374-.04.56-.053L78.751 1.046l1.497-.092 3.499 57.476Zm63.95 38.395.03-.008.002.007.008.028.005.016a3.12 3.12 0 0 0 .331.734c.258.413.56.648.927.648.461 0 1.007-.316 1.478-1.1.34-.568.598-1.32.71-2.185l-3.491 1.86Zm-95.879 7.193 3.42 1.913a3.257 3.257 0 0 1-.312.672c-.258.412-.56.647-.926.647-.462 0-1.008-.316-1.478-1.1-.334-.556-.588-1.29-.704-2.132Zm38.046 21.287c.13.722.363 1.353.658 1.845.47.784 1.016 1.1 1.478 1.1.461 0 1.007-.316 1.478-1.1.286-.477.514-1.086.646-1.782L92 126.5l-2.136-1.195ZM73.377 65.737l11.169-5.86c-4.015-.77-8.72 1.431-11.169 5.86Zm18.64 34.524L52.654 78.496l58.328-30.79 39.362 21.764-58.329 30.791ZM93 101.87v22.107l58.5-30.881V70.988L93 101.87ZM51.5 80.044v22.071L91 123.957v-22.072L51.5 80.044Zm53.3-26.017-5.073 2.874.739 1.305 5.074-2.873-.74-1.306Zm-7.097 3.824-5.074 2.874.74 1.305 5.073-2.874-.74-1.305ZM.937 61.748l66 5.5.125-1.495-66-5.5-.125 1.495Zm109.577-10.466c-.29-.076-.745-.078-1.261.103-.515.182-.869.468-1.047.71a.743.743 0 0 0-.117.21.736.736 0 0 0 .222.089c.291.077.746.078 1.261-.103.516-.182.869-.468 1.048-.71a.745.745 0 0 0 .117-.21.74.74 0 0 0-.223-.089Zm.259.122s-.003-.002-.006-.008a.114.114 0 0 1 .006.008Zm-.028-.07v-.01.01Zm-2.692.938.006.008-.004-.004-.002-.004Zm.028.07v.01-.01Zm4.087-1.474c-.363-1.032-1.891-1.434-3.413-.898-1.522.536-2.461 1.807-2.098 2.838.364 1.032 1.892 1.434 3.413.898 1.522-.536 2.461-1.807 2.098-2.838Z" fill="#EAD295"/></g><defs><clipPath id="a"><path fill="#fff" d="M0 0h153v130H0z"/></clipPath><filter id="b" x="-3.366" y="-3.046" width="160.366" height="136.796" filterUnits="userSpaceOnUse" color-interpolation-filters="sRGB"><feFlood flood-opacity="0" result="BackgroundImageFix"/><feBlend in="SourceGraphic" in2="BackgroundImageFix" result="shape"/><feGaussianBlur stdDeviation="2" result="effect1_foregroundBlur_1145_123"/></filter></defs></svg>