<svg width="161" height="88" viewBox="0 0 161 88" fill="none" xmlns="http://www.w3.org/2000/svg">
<g opacity="0.75" filter="url(#filter0_f_1145_73)">
<path d="M36.3952 40.5347H34.5839L21.9048 26.0131C27.9636 23.8236 33.0624 19.8154 33.0624 15.0111C33.0858 13.7065 32.8379 12.4114 32.3343 11.2075C31.8308 10.0036 31.0826 8.91728 30.1372 8.01719C27.9882 6.10126 25.171 5.10679 22.2942 5.24859H5.37668V39.2861H15.7735L16.6792 40.5438H4.06349V4H22.1765C25.9531 4 28.9326 5.04049 31.1696 7.1848C32.2171 8.19836 33.0454 9.41589 33.6031 10.7621C34.1608 12.1082 34.436 13.5544 34.4118 15.0111C34.4118 19.7611 29.7477 24.2307 24.2595 26.5288L36.3952 40.5347Z" fill="#EFD4E0"/>
<path d="M73.5085 4V23.5702C73.6144 28.0834 71.9951 32.4672 68.9803 35.8299C66.0007 39.2228 61.9253 40.8966 56.8083 40.8966C51.6914 40.8966 47.616 39.2228 44.6364 35.8299C41.6215 32.4672 40.0023 28.0834 40.1082 23.5702V4H73.5085ZM63.4739 38.2366C65.3525 37.4206 67.0169 36.1821 68.3373 34.6175C70.8469 31.5556 72.2139 27.7177 72.2044 23.7602V5.24859H41.4847V23.6788C41.4847 29.6775 44.41 35.5223 50.2061 38.2909C52.3021 39.1953 54.5626 39.6574 56.8457 39.648C59.1288 39.6387 61.3854 39.1582 63.4739 38.2366Z" fill="#EFD4E0"/>
<path d="M26.4058 63.3892C27.5579 63.5339 28.6692 63.9079 29.6741 64.4891C30.679 65.0703 31.557 65.8469 32.2563 66.773C33.771 68.7299 34.5813 71.1396 34.5566 73.6131C34.5566 79.4579 30.4359 83.6199 23.1726 83.6199H4V47.1033H23.2269C28.7061 47.1033 31.7944 50.2338 31.7944 54.4591C31.718 55.8488 31.38 57.2116 30.7982 58.4763C30.4762 59.1037 30.071 59.685 29.5937 60.2044C29.264 60.6337 28.8973 61.0333 28.4978 61.3987C28.3439 61.5615 27.9726 61.9234 27.3024 62.5477L26.9854 62.8644L26.4058 63.3892ZM5.30414 48.3338V81.548L25.9892 62.0773C26.9854 61.0911 27.8005 60.3582 28.2352 59.8877C28.8359 59.1988 29.3304 58.4243 29.7023 57.5896C30.2114 56.6438 30.479 55.5872 30.4812 54.5134C30.4812 50.8943 27.8729 48.3519 23.236 48.3519L5.30414 48.3338ZM23.1726 82.3803C29.5122 82.3803 33.2525 78.9874 33.2525 73.6131C33.3315 71.2943 32.5291 69.0316 31.0065 67.2797C30.294 66.449 29.4237 65.7677 28.4459 65.2754C27.468 64.7831 26.4022 64.4895 25.3099 64.4116L6.29129 82.3622L23.1726 82.3803Z" fill="#EFD4E0"/>
<path d="M36.4402 47.1033H37.7443V83.6199H36.4402V47.1033Z" fill="#EFD4E0"/>
<path d="M72.25 47.1033H73.5631V83.6199H40.2805V47.1033H42.0918L72.2771 81.7561L72.25 47.1033ZM41.5937 48.56V82.3803H71.0183L41.5937 48.56Z" fill="#EFD4E0"/>
<path d="M73.1736 82.7968L72.1684 83.6382L4.06349 5.56539L5.11404 4.57919L73.1736 82.7968Z" fill="#EFD4E0"/>
<path d="M88.9229 39.4852H116.346V40.7338H87.6187V4.2081H88.9229V39.4852Z" fill="#EFD4E0"/>
<path d="M137.447 41.8827C134.989 41.9303 132.548 41.463 130.282 40.5109C128.015 39.5587 125.974 38.1429 124.288 36.3546C122.511 34.6293 121.107 32.5579 120.163 30.2686C119.219 27.9794 118.755 25.5209 118.8 23.0454C118.76 20.5639 119.226 18.1003 120.17 15.8045C121.113 13.5086 122.515 11.4286 124.288 9.69094C125.984 7.91881 128.028 6.51674 130.293 5.57308C132.558 4.62943 134.994 4.16464 137.447 4.20801C139.908 4.1691 142.351 4.6357 144.624 5.57887C146.897 6.52203 148.952 7.92166 150.661 9.69094C152.417 11.4388 153.803 13.522 154.737 15.8163C155.67 18.1105 156.132 20.5691 156.095 23.0454C156.139 25.5199 155.675 27.9771 154.733 30.266C153.79 32.5549 152.389 34.6269 150.616 36.3546C148.928 38.1427 146.885 39.5583 144.617 40.5104C142.349 41.4624 139.907 41.9299 137.447 41.8827ZM149.728 35.4679C151.371 33.8388 152.666 31.8942 153.536 29.7515C154.406 27.6087 154.833 25.3121 154.791 23.0001C154.838 20.6956 154.413 18.4058 153.542 16.2712C152.672 14.1365 151.374 12.2021 149.728 10.5867C148.127 8.96446 146.219 7.67631 144.116 6.79709C142.012 5.91786 139.755 5.46509 137.475 5.46509C135.194 5.46509 132.937 5.91786 130.833 6.79709C128.73 7.67631 126.822 8.96446 125.221 10.5867C123.569 12.2004 122.264 14.1333 121.384 16.2674C120.505 18.4016 120.069 20.6924 120.104 23.0001C120.071 25.317 120.508 27.6166 121.387 29.7607C122.266 31.9048 123.571 33.8491 125.221 35.477C126.814 37.1125 128.72 38.4125 130.824 39.3001C132.929 40.1878 135.19 40.6451 137.475 40.6451C139.759 40.6451 142.02 40.1878 144.125 39.3001C146.23 38.4125 148.135 37.1125 149.728 35.477V35.4679Z" fill="#EFD4E0"/>
<path d="M156.095 47.1487V48.3973H138.1L138.181 84.0001H136.877L136.795 48.3973L118.8 48.6415V47.4291L156.095 47.1487Z" fill="#EFD4E0"/>
<path d="M87.6187 47.4743V84H88.9229V71.0075H108.829L107.769 69.7498H88.9229V48.7048H110.849V48.7229H116.355V47.4743H87.6187Z" fill="#EFD4E0"/>
</g>
<path d="M36.3952 40.5347H34.5839L21.9048 26.0131C27.9636 23.8236 33.0624 19.8154 33.0624 15.0111C33.0858 13.7065 32.8378 12.4114 32.3343 11.2075C31.8308 10.0036 31.0826 8.91728 30.1371 8.01719C27.9882 6.10126 25.171 5.10679 22.2942 5.24859H5.37667V39.2861H15.7735L16.6792 40.5438H4.06348V4H22.1765C25.953 4 28.9326 5.04049 31.1696 7.1848C32.2171 8.19836 33.0454 9.41589 33.6031 10.7621C34.1607 12.1082 34.436 13.5544 34.4118 15.0111C34.4118 19.7611 29.7477 24.2307 24.2595 26.5288L36.3952 40.5347Z" fill="#EFD4E0"/>
<path d="M73.5085 4V23.5702C73.6144 28.0834 71.9952 32.4672 68.9803 35.8299C66.0007 39.2228 61.9253 40.8966 56.8083 40.8966C51.6914 40.8966 47.616 39.2228 44.6364 35.8299C41.6215 32.4672 40.0023 28.0834 40.1082 23.5702V4H73.5085ZM63.4739 38.2366C65.3525 37.4206 67.0169 36.1821 68.3373 34.6175C70.8469 31.5556 72.2139 27.7177 72.2044 23.7602V5.24859H41.4847V23.6788C41.4847 29.6775 44.41 35.5223 50.2062 38.2909C52.3021 39.1953 54.5626 39.6574 56.8457 39.648C59.1288 39.6387 61.3854 39.1582 63.4739 38.2366Z" fill="#EFD4E0"/>
<path d="M26.4058 63.3892C27.5579 63.5339 28.6692 63.9079 29.6741 64.4891C30.679 65.0703 31.557 65.8469 32.2563 66.773C33.771 68.7299 34.5813 71.1396 34.5566 73.6131C34.5566 79.4579 30.4359 83.6199 23.1726 83.6199H4V47.1033H23.2269C28.7061 47.1033 31.7944 50.2338 31.7944 54.4591C31.718 55.8488 31.38 57.2116 30.7982 58.4763C30.4762 59.1037 30.071 59.685 29.5937 60.2044C29.264 60.6337 28.8973 61.0333 28.4978 61.3987C28.3439 61.5615 27.9726 61.9234 27.3024 62.5477L26.9854 62.8644L26.4058 63.3892ZM5.30414 48.3338V81.548L25.9892 62.0773C26.9854 61.0911 27.8005 60.3582 28.2352 59.8877C28.8359 59.1988 29.3304 58.4243 29.7023 57.5896C30.2114 56.6438 30.479 55.5872 30.4812 54.5134C30.4812 50.8943 27.8729 48.3519 23.236 48.3519L5.30414 48.3338ZM23.1726 82.3803C29.5122 82.3803 33.2525 78.9874 33.2525 73.6131C33.3315 71.2943 32.5291 69.0316 31.0065 67.2797C30.294 66.449 29.4237 65.7677 28.4459 65.2754C27.468 64.7831 26.4022 64.4895 25.3099 64.4116L6.29129 82.3622L23.1726 82.3803Z" fill="#EFD4E0"/>
<path d="M36.4402 47.1033H37.7443V83.6199H36.4402V47.1033Z" fill="#EFD4E0"/>
<path d="M72.2499 47.1033H73.5631V83.6199H40.2805V47.1033H42.0918L72.2771 81.7561L72.2499 47.1033ZM41.5937 48.56V82.3803H71.0182L41.5937 48.56Z" fill="#EFD4E0"/>
<path d="M73.1736 82.7968L72.1683 83.6382L4.06348 5.5654L5.11403 4.57919L73.1736 82.7968Z" fill="#EFD4E0"/>
<path d="M88.9228 39.4852H116.346V40.7338H87.6187V4.2081H88.9228V39.4852Z" fill="#EFD4E0"/>
<path d="M137.447 41.8828C134.989 41.9303 132.548 41.463 130.282 40.5109C128.015 39.5587 125.974 38.1429 124.288 36.3546C122.511 34.6293 121.106 32.5579 120.162 30.2686C119.218 27.9794 118.755 25.5209 118.8 23.0454C118.76 20.5639 119.226 18.1003 120.17 15.8045C121.113 13.5086 122.515 11.4286 124.288 9.69094C125.984 7.91881 128.028 6.51674 130.293 5.57309C132.558 4.62943 134.994 4.16464 137.447 4.20802C139.908 4.16911 142.351 4.6357 144.624 5.57887C146.897 6.52204 148.952 7.92166 150.661 9.69094C152.417 11.4388 153.803 13.522 154.737 15.8163C155.67 18.1105 156.132 20.5691 156.095 23.0454C156.138 25.5199 155.675 27.9771 154.733 30.266C153.79 32.5549 152.389 34.6269 150.616 36.3546C148.928 38.1427 146.885 39.5583 144.617 40.5104C142.349 41.4624 139.907 41.9299 137.447 41.8828ZM149.728 35.4679C151.371 33.8388 152.666 31.8942 153.536 29.7515C154.406 27.6087 154.833 25.3121 154.791 23.0001C154.838 20.6956 154.413 18.4058 153.542 16.2712C152.672 14.1366 151.374 12.2022 149.728 10.5867C148.127 8.96446 146.219 7.67632 144.116 6.79709C142.012 5.91786 139.755 5.46509 137.475 5.46509C135.194 5.46509 132.937 5.91786 130.833 6.79709C128.73 7.67632 126.822 8.96446 125.221 10.5867C123.569 12.2004 122.264 14.1333 121.384 16.2674C120.504 18.4016 120.069 20.6924 120.104 23.0001C120.071 25.317 120.508 27.6166 121.387 29.7607C122.266 31.9048 123.571 33.8491 125.221 35.477C126.814 37.1125 128.72 38.4125 130.824 39.3001C132.929 40.1878 135.19 40.6451 137.475 40.6451C139.759 40.6451 142.02 40.1878 144.125 39.3001C146.229 38.4125 148.135 37.1125 149.728 35.477V35.4679Z" fill="#EFD4E0"/>
<path d="M156.095 47.1487V48.3973H138.1L138.181 84.0001H136.877L136.796 48.3973L118.8 48.6415V47.4291L156.095 47.1487Z" fill="#EFD4E0"/>
<path d="M87.6187 47.4743V84H88.9228V71.0075H108.829L107.769 69.7498H106.112H88.9228V49.4558V48.7048H110.849V48.7229H116.355V47.4743H87.6187Z" fill="#EFD4E0"/>
<defs>
<filter id="filter0_f_1145_73" x="0" y="0" width="160.098" height="88.0001" filterUnits="userSpaceOnUse" color-interpolation-filters="sRGB">
<feFlood flood-opacity="0" result="BackgroundImageFix"/>
<feBlend mode="normal" in="SourceGraphic" in2="BackgroundImageFix" result="shape"/>
<feGaussianBlur stdDeviation="2" result="effect1_foregroundBlur_1145_73"/>
</filter>
</defs>
</svg>
