<svg width="116" height="96" viewBox="0 0 116 96" fill="none" xmlns="http://www.w3.org/2000/svg">
<path d="M27.8474 32.6512V15.8827H46.1782V32.6512H27.8474ZM4.66253 32.6512V15.8827H22.9294V32.6512H4.66253ZM27.8474 11.2634V0H22.9294V11.2634H0V41.1937H4.66253V37.2705H22.9294V57.7724H27.8474V37.2705H46.1782V40.8773H51.0323V11.2634H27.8474Z" fill="#EAD295"/>
<path d="M106.472 12.3391C105.003 10.8837 102.065 9.17525 99.5737 8.03625L97.3383 10.3775C99.8292 11.4532 102.767 13.4148 104.172 14.807L106.472 12.3391ZM89.4184 37.9033C82.2649 39.1688 75.1753 40.4344 70.3212 41.1937L70.9599 44.7373C76.1972 43.7881 82.9675 42.4593 89.61 41.1937L89.4184 37.9033ZM83.8617 32.3348H76.5166V26.0071H83.8617V32.3348ZM73.1953 23.033V35.3089H87.3107V23.033H73.1953ZM101.554 21.9573C100.468 26.2602 98.8712 30.1834 96.8273 33.6004C95.7415 29.5506 94.9751 24.4884 94.4641 19.0466H108.068V15.503H94.1448C94.017 13.2883 93.8893 11.0736 93.7615 8.79559H89.6739C89.8016 11.0736 89.9932 13.2883 90.1848 15.503H70.9599V19.0466H90.5042C91.2067 26.1969 92.2925 32.7145 94.017 37.7767C91.3345 41.0672 88.141 43.8514 84.3726 46.0028C85.2029 46.6989 86.6081 48.2175 87.1829 48.9769C90.3126 46.952 93.1228 44.5474 95.6138 41.6999C97.3383 45.0536 99.5099 47.2684 102.256 47.8379C105.578 49.1034 107.749 46.5723 108.579 39.675C107.685 39.2954 106.28 38.3462 105.514 37.5869C105.067 41.6366 104.428 44.3576 103.534 44.1045C101.426 43.7881 99.7015 41.6367 98.3602 38.2829C101.426 33.9168 103.853 28.728 105.45 22.7799L101.554 21.9573ZM67.447 50.8119V7.21364H111.262V50.8119H67.447ZM62.9122 2.91077V57.9623H67.447V55.0515H111.262V57.9623H115.925V2.91077H62.9122Z" fill="#EAD295"/>
<path d="M8.69536 87.3781C9.60827 87.6148 10.4028 88.0121 11.0791 88.57C11.7553 89.1278 12.347 89.8886 12.8542 90.8522L15.5422 96H13.0824L10.6733 91.5369C10.2 90.6747 9.71815 90.0238 9.22789 89.5843C8.73763 89.1279 8.16283 88.8151 7.50351 88.646C6.8611 88.4601 6.04117 88.3671 5.04374 88.3671V96H2.55861V79.5423H5.04374V86.6427C6.05808 86.6427 6.84419 86.5497 7.40208 86.3638C7.95997 86.1609 8.46714 85.7298 8.92359 85.0705L12.8542 79.5423H15.5422L10.8508 85.7045C10.2253 86.5159 9.50683 87.0738 8.69536 87.3781Z" fill="#EAD295"/>
<path d="M26.3308 79.5423H28.5877V92.8809L37.8943 79.5423H40.1512V96H37.8943V82.4332L28.5877 96H26.3308V79.5423Z" fill="#EAD295"/>
<path d="M57.0566 81.2667H51.4777V79.5423H65.0952V81.2667H59.5164V96H57.0566V81.2667Z" fill="#EAD295"/>
<path d="M80.994 79.5423H83.8342L90.2245 96H87.6633L85.7868 91.0044H78.7371L76.8859 96H74.4515L80.994 79.5423ZM85.1782 89.3054L82.3887 81.8753H82.1605L79.3711 89.3054H85.1782Z" fill="#EAD295"/>
<path d="M101.137 79.5423H103.394V92.8809L112.701 79.5423H114.958V96H112.701V82.4332L103.394 96H101.137V79.5423ZM107.908 77.7926C106.708 77.7926 105.753 77.5052 105.043 76.9304C104.333 76.3387 103.952 75.5526 103.901 74.5721H105.778C105.93 75.8907 106.64 76.55 107.908 76.55C109.176 76.55 109.886 75.8907 110.038 74.5721H111.915C111.881 75.5357 111.509 76.3134 110.799 76.9051C110.089 77.4968 109.125 77.7926 107.908 77.7926Z" fill="#EAD295"/>
</svg>
