<svg width="146" height="108" fill="none" xmlns="http://www.w3.org/2000/svg"><g opacity=".25" filter="url(#a)"><mask id="b" fill="#fff"><path d="M32.193 104h81.392a28.171 28.171 0 0 0 16.026-51.433 3.13 3.13 0 0 1-1.251-3.13c.568-2.645.861-5.34.876-8.046a37.568 37.568 0 0 0-72.782-12.897 3.128 3.128 0 0 1-1.628 1.785 3.131 3.131 0 0 1-2.41 0 21.913 21.913 0 0 0-29.332 17.185 3.13 3.13 0 0 1-1.878 2.41A28.174 28.174 0 0 0 32.193 104Z"/></mask><path d="M56.157 86.276a1 1 0 0 0 1.267 1.548l-1.267-1.548Zm16.733-3.922-.013 1 .013-1Zm15.487 5.487a1 1 0 1 0 1.224-1.582l-1.224 1.582Zm2.998-27.122a1 1 0 0 0 1.414 1.414l-1.414-1.414Zm10-7.172a1 1 0 1 0-1.414-1.414l1.414 1.414Zm-1.414 8.586a1 1 0 1 0 1.414-1.414l-1.414 1.414Zm-7.172-10a1 1 0 0 0-1.414 1.414l1.414-1.414Zm-48.654 8.586a1 1 0 0 0 1.414 1.414l-1.414-1.414Zm10-7.172a1 1 0 0 0-1.414-1.414l1.415 1.414Zm-1.414 8.586a1 1 0 0 0 1.415-1.414l-1.415 1.414Zm-7.172-10a1 1 0 0 0-1.414 1.414l1.414-1.414ZM56.791 87.05l.632.774-.001.001a.908.908 0 0 1 .049-.038 14.261 14.261 0 0 1 .936-.644c.674-.426 1.685-1 3.007-1.572 2.643-1.144 6.528-2.28 11.463-2.217l.026-2c-5.262-.067-9.426 1.145-12.284 2.381a24.07 24.07 0 0 0-3.281 1.717 16.232 16.232 0 0 0-1.09.752 6.54 6.54 0 0 0-.063.05l-.018.014-.006.005-.002.001v.001c-.001 0-.002 0 .632.775Zm16.086-3.696c4.949.064 8.847 1.203 11.498 2.319 1.326.558 2.34 1.11 3.016 1.518a14.897 14.897 0 0 1 .938.614l.041.03.008.007.61-.792c.613-.791.612-.792.612-.792h-.001l-.002-.002-.006-.005-.018-.013a10.219 10.219 0 0 0-.29-.208 16.938 16.938 0 0 0-.86-.552 25.571 25.571 0 0 0-3.272-1.649c-2.85-1.199-7.001-2.407-12.248-2.475l-.026 2Zm19.912-21.22 4.293-4.294-1.414-1.414-4.293 4.293 1.414 1.414Zm4.293-4.294 4.293-4.293-1.414-1.414-4.293 4.293 1.414 1.414Zm-1.414 0 4.293 4.293 1.414-1.414-4.293-4.293-1.414 1.414Zm1.414-1.414-4.293-4.293-1.414 1.414 4.293 4.293 1.414-1.414ZM45.55 62.133l4.294-4.293-1.415-1.414-4.293 4.293 1.414 1.414Zm4.294-4.293 4.293-4.293-1.415-1.414-4.293 4.293 1.415 1.414Zm-1.415 0 4.293 4.293 1.415-1.414-4.294-4.293-1.414 1.414Zm1.415-1.414-4.294-4.293-1.414 1.414 4.293 4.293 1.415-1.414ZM113.584 104l.009-2h-.009v2Zm-81.392 0v-2h-.002l.002 2ZM9.87 93.04l1.583-1.221-1.583 1.222Zm11.335-43.165-.777-1.843h-.002l.779 1.843Zm1.878-2.41-1.977-.306v.003l1.977.302Zm10.58-15.568 1.01 1.726-1.01-1.726Zm18.752-1.618.77-1.846-.035-.014-.035-.013-.7 1.873Zm2.41 0 .77 1.846.037-.016.036-.016-.843-1.814Zm1.628-1.785-1.875-.696-.004.012-.004.011 1.883.673ZM80.994 5.55l-.569-1.918.569 1.918Zm33.081 5.862 1.193-1.606-1.193 1.606Zm15.161 29.98 2 .01v-.02l-2 .01Zm-.876 8.044-1.956-.42-.005.023-.004.023 1.965.375Zm1.251 3.131-1.165 1.626.018.013.019.012 1.128-1.65Zm12.065 19.821-1.985.244 1.985-.244Zm-6.904 22.153-1.495-1.328 1.495 1.328ZM113.585 102H32.193v4h81.392v-4Zm-81.393 0a26.173 26.173 0 0 1-20.738-10.181l-3.166 2.444A30.174 30.174 0 0 0 32.194 106l-.003-4ZM11.454 91.819a26.173 26.173 0 0 1-4.596-22.64L2.99 68.163a30.173 30.173 0 0 0 5.299 26.1l3.166-2.444Zm-4.596-22.64a26.174 26.174 0 0 1 15.126-17.462l-1.557-3.684a30.174 30.174 0 0 0-17.438 20.13l3.87 1.016Zm15.124-17.461a5.13 5.13 0 0 0 3.079-3.951l-3.954-.605a1.13 1.13 0 0 1-.678.87l1.553 3.686Zm3.078-3.949a19.913 19.913 0 0 1 9.615-14.146l-2.022-3.451a23.913 23.913 0 0 0-11.546 16.987l3.953.61Zm9.615-14.146a19.906 19.906 0 0 1 17.04-1.47l1.401-3.747a23.906 23.906 0 0 0-20.464 1.766l2.023 3.45Zm16.97-1.498a5.13 5.13 0 0 0 3.951 0l-1.54-3.692a1.13 1.13 0 0 1-.87 0l-1.54 3.692Zm4.024-.032a5.128 5.128 0 0 0 2.669-2.926l-3.767-1.346a1.128 1.128 0 0 1-.588.644l1.686 3.628Zm2.66-2.903A35.568 35.568 0 0 1 81.562 7.467l-1.137-3.835A39.567 39.567 0 0 0 54.58 27.798l3.75 1.392ZM81.562 7.467a35.567 35.567 0 0 1 31.32 5.55l2.386-3.21a39.569 39.569 0 0 0-34.843-6.175l1.137 3.835Zm31.32 5.55A35.567 35.567 0 0 1 127.236 41.4l4-.018a39.563 39.563 0 0 0-15.968-31.576l-2.386 3.211Zm14.354 28.363a37.264 37.264 0 0 1-.832 7.636l3.911.84c.597-2.778.906-5.611.921-8.454l-4-.022Zm-.841 7.682a5.131 5.131 0 0 0 2.051 5.13l2.33-3.25a1.132 1.132 0 0 1-.452-1.13l-3.929-.75Zm2.088 5.156a26.171 26.171 0 0 1 11.208 18.414l3.97-.488a30.17 30.17 0 0 0-12.921-21.228l-2.257 3.302Zm11.208 18.414a26.176 26.176 0 0 1-6.414 20.58l2.99 2.658a30.17 30.17 0 0 0 7.394-23.726l-3.97.488Zm-6.414 20.58A26.172 26.172 0 0 1 113.594 102l-.018 4a30.172 30.172 0 0 0 22.691-10.13l-2.99-2.657Z" fill="#B12763" mask="url(#b)"/></g><path d="m111.369 103 .882 1H32.193l82.142-.662h-.001l-.749.661V103h-2.216Zm0 0H32.193a27.174 27.174 0 0 1-21.53-10.57l-.792.61.792-.61a27.173 27.173 0 0 1 10.932-41.634 4.13 4.13 0 0 0 2.477-3.18A20.913 20.913 0 0 1 34.17 32.76a20.906 20.906 0 0 1 17.88-1.55 4.131 4.131 0 0 0 3.162-.008l.019-.008.018-.008c1-.465 1.773-1.31 2.146-2.35a36.568 36.568 0 0 1 56.085-16.621 36.568 36.568 0 0 1 14.757 29.176 38.357 38.357 0 0 1-.854 7.835l-.002.012-.003.011a4.13 4.13 0 0 0 1.652 4.131l.009.006.009.007a27.176 27.176 0 0 1 4.978 40.484l.747.664-.747-.664a27.171 27.171 0 0 1-20.436 9.122l-2.229-.01.009.011Z" stroke="#B12763" stroke-width="2"/><path d="M56.157 86.276a1 1 0 0 0 1.267 1.548l-1.267-1.548Zm32.22 1.565a1 1 0 1 0 1.224-1.582l-1.224 1.582Zm-31.586-.791.632.774-.001.001a.908.908 0 0 1 .049-.038 14.261 14.261 0 0 1 .936-.644c.674-.426 1.685-1 3.007-1.572 2.643-1.144 6.528-2.28 11.463-2.217l.026-2c-5.262-.067-9.427 1.145-12.284 2.381a24.07 24.07 0 0 0-3.281 1.717 16.232 16.232 0 0 0-1.09.752 6.54 6.54 0 0 0-.063.05l-.018.014-.006.005-.002.001v.001c-.001 0-.002 0 .632.775Zm16.086-3.696c4.949.064 8.847 1.203 11.498 2.319 1.326.558 2.34 1.11 3.016 1.518a14.897 14.897 0 0 1 .938.614l.041.03.008.007.61-.792a119.579 119.579 0 0 0 .611-.793l-.002-.001-.006-.005-.018-.013a10.463 10.463 0 0 0-.29-.208 16.938 16.938 0 0 0-.86-.552 25.571 25.571 0 0 0-3.272-1.649c-2.85-1.199-7.001-2.407-12.248-2.475l-.026 2Z" fill="#B12763"/><path d="m92.082 61.426 4.293-4.293m4.293-4.293-4.293 4.293m0 0 4.293 4.293m-4.293-4.293-4.293-4.293m-47.24 8.586 4.293-4.293m4.294-4.293-4.294 4.293m0 0 4.294 4.293m-4.294-4.293-4.293-4.293" stroke="#B12763" stroke-width="2" stroke-linecap="round"/><defs><filter id="a" x="0" y="0" width="145.887" height="108" filterUnits="userSpaceOnUse" color-interpolation-filters="sRGB"><feFlood flood-opacity="0" result="BackgroundImageFix"/><feBlend in="SourceGraphic" in2="BackgroundImageFix" result="shape"/><feGaussianBlur stdDeviation="2" result="effect1_foregroundBlur_1984_515"/></filter></defs></svg>