<svg width="118" height="31" fill="none" xmlns="http://www.w3.org/2000/svg"><path d="M87.29 0h1.46v30.091h-1.46V0Z" fill="#B12763"/><path fill-rule="evenodd" clip-rule="evenodd" d="M24.85 30.034h.012l.063.072h2.001l-.062-.072h.005l-1.162-1.336-8.755-10.104c2.156-.94 4.146-2.288 5.616-3.875 1.527-1.647 2.507-3.567 2.508-5.564a8.85 8.85 0 0 0-2.698-6.51C20.513.858 18.037 0 14.928 0H0v30.113h10.848l-1.024-1.422H1.468V3.23l23.381 26.803Zm-3.585-26.42a8.723 8.723 0 0 0-6.232-2.199H1.967L15.89 17.418c1.953-.832 3.718-1.9 5.063-3.142 1.628-1.503 2.624-3.245 2.624-5.123v-.004a7.458 7.458 0 0 0-2.313-5.536Zm31.867 22.599a14.625 14.625 0 0 0 3.733-10.103V0H29.307v16.11a14.625 14.625 0 0 0 3.733 10.103c2.466 2.808 5.838 4.187 10.046 4.187 4.208 0 7.58-1.379 10.046-4.187Zm-4.707 1.641h.001a10.61 10.61 0 0 0 3.88-2.887 13.674 13.674 0 0 0 3.098-8.7V1.415H30.827v14.786c0 4.813 2.345 9.485 6.974 11.698a13.286 13.286 0 0 0 10.624-.045ZM117.874 0h-1.468l.022 27.841L92.176 0h-1.764v30.091h27.462V0Zm-2.709 28.683L91.88 1.92v26.764h23.285ZM82.034 1.753C80.804.647 79.01 0 76.746 0H60.913v30.091h15.789c2.99 0 5.357-.857 6.978-2.338 1.622-1.483 2.478-3.573 2.478-5.997 0 0-.013-.934-.208-2.106-.175-1.05-.773-2.34-1.703-3.577v-.001a7.258 7.258 0 0 0-4.471-2.763l.16-.145.263-.262c.536-.5.84-.796.973-.936.33-.302.632-.631.904-.985A6.586 6.586 0 0 0 83.08 9.54l.004-.008a9.196 9.196 0 0 0 .828-3.34v-.01c0-1.769-.648-3.32-1.878-4.428Zm-.202 6.885.003-.007a5.1 5.1 0 0 0 .61-2.406c0-1.42-.511-2.616-1.464-3.458-.957-.845-2.378-1.352-4.227-1.352l-14.38-.014v26.342l16.477-15.51.002-.002c.368-.364.701-.682.988-.955.352-.336.635-.606.829-.815a7.267 7.267 0 0 0 1.159-1.816l.003-.007Zm1.089 8.098h-.001a6.53 6.53 0 0 0-2.046-1.595l-.01-.005a6.536 6.536 0 0 0-2.351-.657L63.479 28.67l13.223.014c2.543 0 4.54-.68 5.899-1.876 1.355-1.192 2.097-2.916 2.097-5.052v-.007a7.258 7.258 0 0 0-1.777-5.012Z" fill="#B12763"/></svg>