<svg width="126" height="38" fill="none" xmlns="http://www.w3.org/2000/svg"><g opacity=".25" filter="url(#a)" fill="#B12763"><path d="M30.288 33.706h-1.472l-10.31-11.808c4.927-1.78 9.072-5.039 9.072-8.945A7.66 7.66 0 0 0 25.2 7.266a8.923 8.923 0 0 0-6.377-2.25H5.068V32.69h8.453l.737 1.022H4V4h14.727c3.071 0 5.494.846 7.313 2.59a8.658 8.658 0 0 1 2.636 6.363c0 3.862-3.793 7.496-8.255 9.365l9.867 11.388ZM60.465 4v15.912a14.425 14.425 0 0 1-3.682 9.968C54.36 32.64 51.047 34 46.886 34c-4.16 0-7.474-1.361-9.897-4.12a14.425 14.425 0 0 1-3.681-9.968V4h27.157Zm-8.16 27.837a10.81 10.81 0 0 0 3.955-2.942 13.874 13.874 0 0 0 3.144-8.828V5.015H34.427V20c0 4.878 2.378 9.63 7.091 11.881a13.486 13.486 0 0 0 10.788-.044ZM83.13 17.242a7.064 7.064 0 0 1 4.758 2.751 8.94 8.94 0 0 1 1.87 5.562c0 4.752-3.35 8.136-9.256 8.136H64.913V4h15.633c4.455 0 6.966 2.545 6.966 5.98a8.996 8.996 0 0 1-.81 3.267 6.36 6.36 0 0 1-.98 1.405 7.532 7.532 0 0 1-.89.971c-.125.133-.427.427-.972.935l-.258.257-.471.427ZM65.975 5v27.006l16.818-15.83c.81-.803 1.473-1.399 1.826-1.781.489-.56.89-1.19 1.193-1.869a5.3 5.3 0 0 0 .633-2.501c0-2.943-2.12-5.01-5.89-5.01L65.974 5Zm14.528 27.683c5.155 0 8.196-2.759 8.196-7.128a7.463 7.463 0 0 0-1.826-5.15 6.73 6.73 0 0 0-4.632-2.332L66.776 32.668l13.726.015ZM91.29 4h1.06v29.691h-1.06V4Zm29.116 0h1.068v29.691H94.412V4h1.473l24.543 28.176L120.406 4ZM95.48 5.184v27.5h23.924L95.48 5.183Z"/><path d="M4.854 4.471 4 5.273l24.74 28.361h1.49L4.854 4.471Z"/></g><path d="M64.813 33.791V3.9h15.733c2.246 0 4.014.642 5.22 1.728 1.209 1.086 1.846 2.61 1.846 4.353v.005a9.099 9.099 0 0 1-.819 3.303l-.002.004a6.485 6.485 0 0 1-.992 1.424 7.69 7.69 0 0 1-.897.978 27.13 27.13 0 0 1-.973.935h-.001l-.255.256-.004.003-.313.284a7.165 7.165 0 0 1 4.611 2.76l-.08.06a8.94 8.94 0 0 1 1.871 5.562L64.813 33.79Zm0 0h15.689c2.972 0 5.312-.852 6.91-2.312 1.599-1.461 2.446-3.523 2.446-5.923L64.813 33.79Zm-34.525.015h.22l-.063-.072h.005l-.145-.165-.873-1.005-8.845-10.208c2.193-.937 4.22-2.3 5.708-3.905 1.516-1.636 2.48-3.533 2.48-5.497a8.75 8.75 0 0 0-2.666-6.436C24.267 4.751 21.817 3.9 18.727 3.9H3.9v1.33l-.039.036.039.044v28.503h10.553l-.114-.158-.737-1.023-.03-.041H5.168V6.763L28.665 33.7l.03.034h.013l.032.038.03.034h1.518ZM24.822 18.15c-1.37 1.265-3.171 2.349-5.159 3.188L5.547 5.115h13.281a8.823 8.823 0 0 1 6.304 2.225 7.567 7.567 0 0 1 2.346 5.611v.002c0 1.915-1.016 3.682-2.656 5.197ZM60.565 4v-.1H33.207v16.011a14.525 14.525 0 0 0 3.707 10.036c2.445 2.783 5.788 4.153 9.972 4.153 4.184 0 7.527-1.37 9.972-4.153a14.525 14.525 0 0 0 3.707-10.036V4Zm-8.3 27.745a13.388 13.388 0 0 1-10.706.045c-4.67-2.232-7.032-6.944-7.032-11.79V5.115h24.777v14.952a13.774 13.774 0 0 1-3.12 8.764 10.71 10.71 0 0 1-3.918 2.915ZM85.724 12.48l-.003.007a7.368 7.368 0 0 1-1.176 1.842c-.195.21-.482.484-.837.824-.288.274-.62.59-.984.951l-.001.001-16.648 15.67V5.102l14.48.014c1.867 0 3.314.512 4.293 1.377.977.863 1.497 2.087 1.498 3.533a5.2 5.2 0 0 1-.622 2.454Zm2.875 13.072v.004c0 2.16-.751 3.913-2.131 5.128-1.382 1.215-3.405 1.9-5.965 1.9l-13.474-.014 15.248-14.393a6.635 6.635 0 0 1 4.52 2.294 7.363 7.363 0 0 1 1.802 5.081ZM91.29 3.9h-.1v29.891h1.26V3.9h-1.16Zm29.116 0h-.1V4l.022 27.908L95.96 3.934l-.03-.034h-1.618v29.891h27.262V3.9h-1.168Zm-1.221 28.683H95.58V5.452l23.605 27.131Z" fill="#B12763" stroke="#B12763" stroke-width=".2"/><defs><filter id="a" x="0" y="0" width="125.474" height="38" filterUnits="userSpaceOnUse" color-interpolation-filters="sRGB"><feFlood flood-opacity="0" result="BackgroundImageFix"/><feBlend in="SourceGraphic" in2="BackgroundImageFix" result="shape"/><feGaussianBlur stdDeviation="2" result="effect1_foregroundBlur_1005:291"/></filter></defs></svg>