<svg width="52" height="48" fill="none" xmlns="http://www.w3.org/2000/svg"><path fill-rule="evenodd" clip-rule="evenodd" d="M4.568 4.562c5.889-5.879 15.309-6.076 21.434-.592 6.107-5.476 15.545-5.294 21.429.592 5.881 5.89 6.084 15.269.614 21.387L25.997 48 3.955 25.949c-5.47-6.118-5.265-15.513.613-21.387Zm21.435.751-.668-.598C19.603-.417 10.786-.232 5.275 5.27c-5.494 5.49-5.693 14.267-.593 19.992l21.315 21.324 21.32-21.324c5.1-5.724 4.905-14.487-.593-19.993C41.218-.239 32.384-.41 26.67 4.715l-.667.598Z" fill="#B12763"/><path d="m25.335 4.715.668.598.667-.598C32.385-.41 41.218-.24 46.724 5.269c5.498 5.506 5.693 14.269.593 19.993l-21.32 21.324L4.682 25.262C-.418 19.537-.22 10.76 5.275 5.27c5.511-5.502 14.328-5.687 20.06-.555Z" fill="#B12763"/></svg>