<svg width="30" height="24" fill="none" xmlns="http://www.w3.org/2000/svg"><g clip-path="url(#a)"><path d="M9.04 5.05c-.45-1.523-1.67-1.356-2.505-.646-2.056 1.899-4.733 5.885-3.02 11.625C4.95 20.89 10.922 24 10.922 24H3.96S.367 19.973.046 15.236c-.407-5.99 1.992-9.767 4.776-12.23C7.435.69 9.919.001 9.919.001L15 16.651 20.082.001s2.485.689 5.097 3.005c2.784 2.463 5.183 6.24 4.776 12.23C29.635 19.973 26.04 24 26.04 24h-6.96s5.97-3.11 7.406-7.972c1.713-5.74-.964-9.726-3.02-11.625-.835-.71-2.056-.877-2.505.647l-5.96 18.795S10.583 9.909 9.041 5.05Z" fill="#C83732"/></g><defs><clipPath id="a"><path fill="#fff" d="M0 0h30v24H0z"/></clipPath></defs></svg>