<svg width="168" height="168" fill="none" xmlns="http://www.w3.org/2000/svg"><g opacity=".25" filter="url(#a)"><mask id="b" fill="#fff"><path d="M164 84c0 44.183-35.817 80-80 80S4 128.183 4 84 39.817 4 84 4s80 35.817 80 80Z"/></mask><path d="M55.217 86.803a1 1 0 1 0-1.434 1.394l1.434-1.394ZM72.5 106l-.717.697a1 1 0 0 0 1.453-.02L72.5 106ZM53.783 88.197l18 18.5 1.434-1.394-18-18.5-1.434 1.394Zm19.453 18.48 40.5-44-1.472-1.354-40.5 44 1.472 1.354ZM162 84c0 43.078-34.922 78-78 78v4c45.287 0 82-36.713 82-82h-4Zm-78 78c-43.078 0-78-34.922-78-78H2c0 45.287 36.713 82 82 82v-4ZM6 84C6 40.922 40.922 6 84 6V2C38.713 2 2 38.713 2 84h4ZM84 6c43.078 0 78 34.922 78 78h4c0-45.287-36.713-82-82-82v4Z" fill="#B12763" mask="url(#b)"/></g><path d="m54.5 87.5 18 18.5L113 62" stroke="#B12763" stroke-width="2" stroke-linecap="round" stroke-linejoin="round"/><circle cx="84" cy="84" r="79" stroke="#B12763" stroke-width="2"/><defs><filter id="a" x="0" y="0" width="168" height="168" filterUnits="userSpaceOnUse" color-interpolation-filters="sRGB"><feFlood flood-opacity="0" result="BackgroundImageFix"/><feBlend in="SourceGraphic" in2="BackgroundImageFix" result="shape"/><feGaussianBlur stdDeviation="2" result="effect1_foregroundBlur_1968_540"/></filter></defs></svg>