<svg width="62" height="28" fill="none" xmlns="http://www.w3.org/2000/svg"><path d="M.646 14.354a.5.5 0 0 1 0-.708l3.182-3.182a.5.5 0 1 1 .708.708L1.707 14l2.829 2.828a.5.5 0 1 1-.708.707L.646 14.354ZM9 14.5H1v-1h8v1Z" fill="#BEBDBF"/><path d="M17.5 24.643V3.357L20.357.5h21.286L44.5 3.357v21.286L41.643 27.5H20.357L17.5 24.643Z" stroke="#BEBDBF"/><circle cx="31.5" cy="13.5" r="3" stroke="#7B767A"/><path d="m32 14 3.5 10.5L37 19l5-1.5L32 14Z" fill="#37383D"/><path d="m35.5 24.5-.474.158a.5.5 0 0 0 .956-.026L35.5 24.5ZM32 14l.165-.472a.5.5 0 0 0-.64.63L32 14Zm10 3.5.144.479a.5.5 0 0 0 .021-.95L42 17.5ZM37 19l-.144-.479a.5.5 0 0 0-.338.347L37 19Zm-1.026 5.342-3.5-10.5-.948.316 3.5 10.5.948-.316Zm-4.14-9.87 10 3.5.331-.944-10-3.5-.33.944Zm10.022 2.55-5 1.5.288.957 5-1.5-.288-.958Zm-5.338 1.846-1.5 5.5.964.264 1.5-5.5-.964-.264Zm24.836-4.514a.5.5 0 0 0 0-.708l-3.182-3.182a.5.5 0 1 0-.707.708L60.293 14l-2.828 2.828a.5.5 0 1 0 .707.707l3.182-3.181ZM53 14.5h8v-1h-8v1Z" fill="#BEBDBF"/></svg>