<svg width="48" height="48" fill="none" xmlns="http://www.w3.org/2000/svg"><path d="m14.004 34 1.352-4.968A9.955 9.955 0 0 1 14 24c0-5.523 4.477-10 10-10s10 4.477 10 10-4.477 10-10 10a9.953 9.953 0 0 1-5.03-1.355L14.004 34Zm6.387-14.692a.96.96 0 0 0-.371.1 1.291 1.291 0 0 0-.294.228c-.12.113-.188.211-.261.306a2.729 2.729 0 0 0-.565 1.678c.002.49.13.967.33 1.413.409.902 1.082 1.857 1.971 2.742.214.213.423.427.648.626a9.448 9.448 0 0 0 3.84 2.046l.569.087c.185.01.37-.004.556-.013a1.99 1.99 0 0 0 .833-.231 4.83 4.83 0 0 0 .383-.22s.043-.028.125-.09c.135-.1.218-.171.33-.288.083-.086.155-.187.21-.302.078-.163.156-.474.188-.733.024-.198.017-.306.014-.373-.004-.107-.093-.218-.19-.265l-.582-.261s-.87-.379-1.401-.621a.498.498 0 0 0-.177-.041.482.482 0 0 0-.378.127v-.002c-.005 0-.072.057-.795.933a.35.35 0 0 1-.368.13 1.418 1.418 0 0 1-.191-.066c-.124-.052-.167-.072-.252-.109l-.005-.002a6.011 6.011 0 0 1-1.57-1c-.126-.11-.243-.23-.363-.346a6.298 6.298 0 0 1-1.02-1.268l-.059-.095a.923.923 0 0 1-.102-.205c-.038-.147.061-.265.061-.265s.243-.266.356-.41c.094-.12.182-.244.263-.373.118-.19.155-.385.093-.536-.28-.684-.57-1.365-.868-2.041-.059-.134-.234-.23-.393-.249a4.439 4.439 0 0 0-.162-.016 3.387 3.387 0 0 0-.403.004v.001Z" fill="#64D862"/><circle cx="24" cy="24" r="23.5" stroke="#64D862"/></svg>