<svg width="53" height="65" fill="none" xmlns="http://www.w3.org/2000/svg"><g opacity=".5" filter="url(#a)" fill="#EAD295"><path d="M32.737 38.548v-.144s0-.073-.072-.073l-.072-.072-11.781-7.806c-.145-.072-.29-.072-.434-.072l-15.54 5.71h-.072a.487.487 0 0 0-.289.433v15.54c0 .145.072.289.217.434l11.709 7.806h.072c.072.072.145.072.289.072h.145l15.54-5.637c.216-.073.361-.29.361-.434V38.693c-.073-.072-.073-.073-.073-.145ZM20.45 31.392l10.77 7.156-14.384 5.276-10.77-7.155 14.384-5.276ZM5.416 37.465l10.77 7.156v14.383l-10.77-7.156V37.464ZM31.798 53.87l-14.6 5.349V44.692l14.6-5.349v14.528Z"/><path d="M20.45 48.017c.65-.217 1.229-1.012 1.229-1.663 0-.65-.507-1.011-1.23-.794-.65.216-1.228 1.011-1.228 1.662 0 .65.579 1.012 1.229.795Zm8.095-3.036c.65-.217 1.229-1.012 1.229-1.662 0-.65-.506-1.012-1.229-.795-.65.216-1.229 1.012-1.229 1.662 0 .65.507 1.084 1.23.795Zm-8.095 8.673c-.65.217-1.229 1.012-1.229 1.663 0 .65.506 1.012 1.229.795.65-.217 1.229-1.012 1.229-1.662 0-.723-.579-1.085-1.23-.796Zm8.095-2.963c-.65.217-1.229 1.012-1.229 1.662 0 .65.507 1.012 1.23.795.722-.216 1.228-1.011 1.228-1.662 0-.723-.578-1.084-1.229-.795Zm-17.708-3.686c-.506-.362-.94-.072-.94.578 0 .65.434 1.518.94 1.807.506.362.94.072.94-.578-.073-.651-.434-1.446-.94-1.807Zm-.507-9.541c.507.362 1.446.434 2.097.145.65-.217.795-.723.289-1.012-.507-.362-1.446-.434-2.096-.145-.65.29-.795.723-.29 1.012Zm8.024-2.964c.506.362 1.445.434 2.096.145.65-.217.795-.723.289-1.012-.507-.361-1.446-.433-2.096-.144-.65.217-.795.723-.29 1.012Zm-5.06 4.988c.506.361 1.446.434 2.096.145.65-.217.795-.723.29-1.012-.507-.362-1.446-.434-2.097-.145-.65.217-.794.723-.289 1.012Zm8.023-2.963c.506.361 1.446.433 2.096.144.65-.217.795-.723.289-1.012-.506-.361-1.446-.433-2.096-.144-.65.216-.794.722-.289 1.012Zm-2.529 4.119c-.507-.361-1.446-.433-2.096-.144-.65.217-.795.723-.29 1.011.507.362 1.446.434 2.097.145.65-.217.794-.723.289-1.012Zm5.637-2.096c.506.362 1.446.434 2.096.145.65-.217.795-.723.289-1.012-.506-.361-1.445-.433-2.096-.145-.65.217-.795.65-.289 1.012ZM49 17.804v-.288l-.072-.072-10.12-13.227a.397.397 0 0 0-.36-.217l-14.095.289h-.072s-.072 0-.072.072c0 0-.072 0-.072.072l-.073.072-8.457 13.227c-.144.145-.072.362 0 .579l10.12 13.154a.397.397 0 0 0 .36.217h.073l14.022-.289c.145 0 .289-.072.433-.217L49 17.804ZM38.23 5.011l9.324 12.143-12.865.289L25.292 5.3l12.939-.289Zm-13.877.65 9.469 12.288-7.806 12.287L16.62 17.95l7.733-12.287Zm15.54 24.648-12.938.289 7.662-12.143 13.01-.29-7.734 12.144Z"/><path d="M30.713 19.033c.362-.578.29-1.518-.144-2.024-.434-.578-1.084-.578-1.446 0-.361.578-.289 1.518.145 2.024.506.578 1.084.578 1.445 0Zm-5.203-6.867c.361-.578.288-1.518-.145-2.023-.434-.579-1.084-.579-1.446 0-.361.578-.289 1.518.145 2.023.434.579 1.084.579 1.445 0Zm.433 6.867c.362-.578.289-1.518-.145-2.024-.433-.578-1.083-.578-1.445 0-.362.578-.289 1.518.145 2.024.433.506 1.084.506 1.445 0Zm.434 6.794c.361-.578.289-1.518-.145-2.024-.433-.578-1.084-.578-1.445 0-.362.579-.29 1.518.144 2.024.434.578 1.156.578 1.446 0Zm-6.794-8.89c-.362.578-.29 1.518.144 2.024.434.578 1.084.578 1.446 0 .361-.578.289-1.518-.145-2.024-.434-.506-1.084-.506-1.445 0Zm24.213 2.891c-.578 0-1.373.506-1.735 1.012-.361.578-.145 1.012.434 1.012.578 0 1.373-.506 1.735-1.012.361-.578.144-1.012-.434-1.012ZM32.16 26.767c-.58 0-1.374.506-1.736 1.012-.361.578-.144 1.012.434 1.012s1.373-.507 1.735-1.012c.361-.506.144-1.012-.434-1.012ZM38.23 8.77c.579 0 .724-.507.29-1.013-.434-.578-1.301-1.011-1.88-1.011-.578 0-.723.506-.289 1.011.434.579 1.301 1.012 1.88 1.012Zm-.94 3.541c.58 0 .724-.506.29-1.012s-1.301-1.012-1.88-1.012c-.578 0-.722.506-.288 1.012.433.579 1.3 1.012 1.879 1.012Zm-1.083 3.397c.578 0 .723-.506.289-1.012s-1.301-1.011-1.88-1.011c-.578 0-.722.506-.288 1.011.36.579 1.228 1.012 1.879 1.012Z"/></g><path d="M32.737 38.548v-.144s0-.073-.072-.073l-.072-.072-11.781-7.806c-.145-.072-.29-.072-.434-.072l-15.54 5.71h-.072a.487.487 0 0 0-.289.433v15.54c0 .145.072.289.217.434l11.709 7.806h.072c.072.072.145.072.289.072h.145l15.54-5.637c.216-.073.361-.29.361-.434V38.693c-.073-.072-.073-.073-.073-.145ZM20.45 31.392l10.77 7.156-14.384 5.276-10.77-7.155 14.384-5.276ZM5.416 37.465l10.77 7.156v14.383l-10.77-7.156V37.464ZM31.798 53.87l-14.6 5.349V44.692l14.6-5.349v14.528Z" fill="#EAD295"/><path d="M20.45 48.017c.65-.217 1.229-1.012 1.229-1.663 0-.65-.507-1.011-1.23-.794-.65.216-1.228 1.011-1.228 1.662 0 .65.579 1.012 1.229.795Zm8.095-3.036c.65-.217 1.229-1.012 1.229-1.662 0-.65-.506-1.012-1.229-.795-.65.216-1.229 1.012-1.229 1.662 0 .65.507 1.084 1.23.795Zm-8.095 8.673c-.65.217-1.229 1.012-1.229 1.663 0 .65.506 1.012 1.229.795.65-.217 1.229-1.012 1.229-1.662 0-.723-.579-1.085-1.23-.796Zm8.095-2.963c-.65.217-1.229 1.012-1.229 1.662 0 .65.507 1.012 1.23.795.722-.216 1.228-1.011 1.228-1.662 0-.723-.578-1.084-1.229-.795Zm-17.708-3.686c-.506-.362-.94-.072-.94.578 0 .65.434 1.518.94 1.807.506.362.94.072.94-.578-.073-.651-.434-1.446-.94-1.807Zm-.507-9.541c.507.362 1.446.434 2.097.145.65-.217.795-.723.289-1.012-.507-.362-1.446-.434-2.096-.145-.65.29-.795.723-.29 1.012Zm8.024-2.964c.506.362 1.445.434 2.096.145.65-.217.795-.723.289-1.012-.507-.361-1.446-.433-2.096-.144-.65.217-.795.723-.29 1.012Zm-5.06 4.988c.506.361 1.446.434 2.096.145.65-.217.795-.723.29-1.012-.507-.362-1.446-.434-2.097-.145-.65.217-.794.723-.289 1.012Zm8.023-2.963c.506.361 1.446.433 2.096.144.65-.217.795-.723.289-1.012-.506-.361-1.446-.433-2.096-.144-.65.216-.794.722-.289 1.012Zm-2.529 4.119c-.507-.361-1.446-.433-2.096-.144-.65.217-.795.723-.29 1.011.507.362 1.446.434 2.097.145.65-.217.794-.723.289-1.012Zm5.637-2.096c.506.362 1.446.434 2.096.145.65-.217.795-.723.289-1.012-.506-.361-1.445-.433-2.096-.145-.65.217-.795.65-.289 1.012ZM49 17.804v-.288l-.072-.072-10.12-13.227a.397.397 0 0 0-.36-.217l-14.095.289h-.072s-.072 0-.072.072c0 0-.072 0-.072.072l-.073.072-8.457 13.227c-.144.145-.072.362 0 .579l10.12 13.154a.397.397 0 0 0 .36.217h.073l14.022-.289c.145 0 .289-.072.433-.217L49 17.804ZM38.23 5.011l9.324 12.143-12.865.289L25.292 5.3l12.939-.289Zm-13.877.65 9.469 12.288-7.806 12.287L16.62 17.95l7.733-12.287Zm15.54 24.648-12.938.289 7.662-12.143 13.01-.29-7.734 12.144Z" fill="#EAD295"/><path d="M30.713 19.033c.362-.578.29-1.518-.144-2.024-.434-.578-1.084-.578-1.446 0-.361.578-.289 1.518.145 2.024.506.578 1.084.578 1.445 0Zm-5.203-6.867c.361-.578.288-1.518-.145-2.023-.434-.579-1.084-.579-1.446 0-.361.578-.289 1.518.145 2.023.434.579 1.084.579 1.445 0Zm.433 6.867c.362-.578.289-1.518-.145-2.024-.433-.578-1.083-.578-1.445 0-.362.578-.289 1.518.145 2.024.433.506 1.084.506 1.445 0Zm.434 6.794c.361-.578.289-1.518-.145-2.024-.433-.578-1.084-.578-1.445 0-.362.579-.29 1.518.144 2.024.434.578 1.156.578 1.446 0Zm-6.794-8.89c-.362.578-.29 1.518.144 2.024.434.578 1.084.578 1.446 0 .361-.578.289-1.518-.145-2.024-.434-.506-1.084-.506-1.445 0Zm24.213 2.891c-.578 0-1.373.506-1.735 1.012-.361.578-.145 1.012.434 1.012.578 0 1.373-.506 1.735-1.012.361-.578.144-1.012-.434-1.012ZM32.16 26.767c-.58 0-1.374.506-1.736 1.012-.361.578-.144 1.012.434 1.012s1.373-.507 1.735-1.012c.361-.506.144-1.012-.434-1.012ZM38.23 8.77c.579 0 .724-.507.29-1.013-.434-.578-1.301-1.011-1.88-1.011-.578 0-.723.506-.289 1.011.434.579 1.301 1.012 1.88 1.012Zm-.94 3.541c.58 0 .724-.506.29-1.012s-1.301-1.012-1.88-1.012c-.578 0-.722.506-.288 1.012.433.579 1.3 1.012 1.879 1.012Zm-1.083 3.397c.578 0 .723-.506.289-1.012s-1.301-1.011-1.88-1.011c-.578 0-.722.506-.288 1.011.36.579 1.228 1.012 1.879 1.012Z" fill="#EAD295"/><defs><filter id="a" x=".477" y="0" width="52.523" height="64.376" filterUnits="userSpaceOnUse" color-interpolation-filters="sRGB"><feFlood flood-opacity="0" result="BackgroundImageFix"/><feBlend in="SourceGraphic" in2="BackgroundImageFix" result="shape"/><feGaussianBlur stdDeviation="2" result="effect1_foregroundBlur_507_130"/></filter></defs></svg>