<svg width="98" height="63" fill="none" xmlns="http://www.w3.org/2000/svg"><g opacity=".5" filter="url(#a)" fill="#EAD295"><path fill-rule="evenodd" clip-rule="evenodd" d="M64.338 4 94 20.78v6.597l-61.087 31.26L4 42.868v-6.345L64.338 4ZM5 37.67l27.42 15.196v4.363L5 42.274V37.67Zm28.42 19.584v-4.38L93 21.895v4.871L33.42 57.254Zm59.032-36.201-59.524 30.95L5.543 36.828 64.326 5.142l28.126 15.91Z"/><path fill-rule="evenodd" clip-rule="evenodd" d="M37.47 44.803c5.761-2.16 8.684-7.7 7.004-12.181-1.68-4.481-7.525-6.734-13.287-4.574-5.762 2.16-8.684 7.7-7.004 12.182 1.68 4.48 7.524 6.733 13.286 4.573Zm.35.936c6.12-2.295 9.519-8.325 7.59-13.469-1.929-5.143-8.454-7.453-14.574-5.158-6.12 2.295-9.518 8.325-7.59 13.469 1.93 5.143 8.454 7.453 14.574 5.158Zm27.226-15.973c6.002-1.356 9.651-6.447 8.596-11.115-1.055-4.667-6.538-7.694-12.54-6.338-6.003 1.357-9.652 6.448-8.597 11.115 1.055 4.668 6.538 7.695 12.541 6.338Zm.22.976c6.376-1.441 10.563-6.953 9.352-12.311-1.212-5.359-7.362-8.534-13.737-7.093-6.376 1.44-10.562 6.953-9.351 12.31 1.21 5.359 7.361 8.535 13.736 7.094ZM85.5 23.071l-1-.5 3.5-2 1.1.497-3.6 2.003Zm-5 3-1-.5 3.5-2 1.1.497-3.6 2.003ZM46.473 21.02l3.187 1.307-7.148 3.796-3.188-1.308 7.149-3.796Zm.054 1.103-4.851 2.576.781.32 4.852-2.575-.782-.321Z"/><path fill-rule="evenodd" clip-rule="evenodd" d="M37.215 25.39c.971-.527 1.438-1.544 1.043-2.272-.395-.728-1.502-.892-2.473-.365-.971.526-1.438 1.543-1.043 2.272.172.316.478.526.85.619l-1.577 6.306.97.242 1.642-6.57c.197-.05.395-.128.588-.232Zm-.588.233.358-1.43-.97-.243-.424 1.694c.314.078.673.073 1.036-.021Z"/><path d="m36.985 24.192-.97-.242-.424 1.694c.314.078.673.073 1.036-.021l.358-1.43Z"/><path fill-rule="evenodd" clip-rule="evenodd" d="M50.871 17.475a1.182 1.182 0 0 0-.14-.585c-.395-.729-1.502-.892-2.473-.365-.97.526-1.438 1.543-1.043 2.272.395.728 1.502.891 2.473.365a2.49 2.49 0 0 0 .847-.739l6.872 1.634.231-.972-6.767-1.61Zm0 0-1.255-.298-.232.973 1.151.273c.213-.3.332-.63.337-.948Z"/><path d="m49.616 17.177-.232.973 1.151.273c.213-.3.332-.63.337-.948l-1.256-.298Z"/><path fill-rule="evenodd" clip-rule="evenodd" d="M14.353 38.6 17 40.013l.735-.44-2.647-1.413.883-.529-1.236-.559-.794.477-3.706-1.977-.735.441 3.706 1.977-.97.582 1.235.559.882-.53Zm0 0 .735-.44-1.147-.612-.735.44 1.147.613Z"/><path d="m14.353 38.6.735-.44-1.147-.612-.735.44 1.147.613Z"/><path fill-rule="evenodd" clip-rule="evenodd" d="M14.581 35.122 20 38.012l.735-.44-5.418-2.89.918-.552L15 33.571l-.83.498-.935-.498-.735.441.934.499-.934.56 1.235.559.846-.508Zm0 0 .736-.44-1.147-.613-.736.442 1.147.611Z"/><path d="m14.581 35.122.736-.44-1.147-.613-.736.442 1.147.611Z"/></g><path fill-rule="evenodd" clip-rule="evenodd" d="M64.338 4 94 20.78v4.597l-61.087 31.26L4 40.868v-4.345L64.338 4ZM5 37.67l27.42 15.196v2.363L5 40.274V37.67Zm28.42 17.584v-2.38L93 21.895v2.871L33.42 55.254Zm59.032-34.201-59.524 30.95L5.543 36.828 64.326 5.142l28.126 15.91Z" fill="#EAD295"/><path fill-rule="evenodd" clip-rule="evenodd" d="M37.47 44.803c5.761-2.16 8.684-7.7 7.004-12.181-1.68-4.481-7.525-6.734-13.287-4.574-5.762 2.16-8.684 7.7-7.004 12.182 1.68 4.48 7.524 6.733 13.286 4.573Zm.35.936c6.12-2.295 9.519-8.325 7.59-13.469-1.929-5.143-8.454-7.453-14.574-5.158-6.12 2.295-9.518 8.325-7.59 13.469 1.93 5.143 8.454 7.453 14.574 5.158Zm27.226-15.973c6.002-1.356 9.651-6.447 8.596-11.115-1.055-4.667-6.538-7.694-12.54-6.338-6.003 1.357-9.652 6.448-8.597 11.115 1.055 4.668 6.538 7.695 12.541 6.338Zm.22.976c6.376-1.441 10.563-6.953 9.352-12.311-1.212-5.359-7.362-8.534-13.737-7.093-6.376 1.44-10.562 6.953-9.351 12.31 1.21 5.359 7.361 8.535 13.736 7.094ZM85.5 23.071l-1-.5 3.5-2 1.1.497-3.6 2.003Zm-5 3-1-.5 3.5-2 1.1.497-3.6 2.003ZM46.473 21.02l3.187 1.307-7.148 3.796-3.188-1.308 7.149-3.796Zm.054 1.103-4.851 2.576.781.32 4.852-2.575-.782-.321Z" fill="#EAD295"/><path fill-rule="evenodd" clip-rule="evenodd" d="M37.215 25.39c.971-.527 1.438-1.544 1.043-2.272-.395-.728-1.502-.892-2.473-.365-.971.526-1.438 1.543-1.043 2.272.172.316.478.526.85.619l-1.577 6.306.97.242 1.642-6.57c.197-.05.395-.128.588-.232Zm-.588.233.358-1.43-.97-.243-.424 1.694c.314.078.673.073 1.036-.021Z" fill="#EAD295"/><path d="m36.985 24.192-.97-.242-.424 1.694c.314.078.673.073 1.036-.021l.358-1.43Z" fill="#EAD295"/><path fill-rule="evenodd" clip-rule="evenodd" d="M50.871 17.475a1.182 1.182 0 0 0-.14-.585c-.395-.729-1.502-.892-2.473-.365-.97.526-1.438 1.543-1.043 2.272.395.728 1.502.891 2.473.365a2.49 2.49 0 0 0 .847-.739l6.872 1.634.231-.972-6.767-1.61Zm0 0-1.255-.298-.232.973 1.151.273c.213-.3.332-.63.337-.948Z" fill="#EAD295"/><path d="m49.616 17.177-.232.973 1.151.273c.213-.3.332-.63.337-.948l-1.256-.298Z" fill="#EAD295"/><path fill-rule="evenodd" clip-rule="evenodd" d="M14.353 38.6 17 40.013l.735-.44-2.647-1.413.883-.529-1.236-.559-.794.477-3.706-1.977-.735.441 3.706 1.977-.97.582 1.235.559.882-.53Zm0 0 .735-.44-1.147-.612-.735.44 1.147.613Z" fill="#EAD295"/><path d="m14.353 38.6.735-.44-1.147-.612-.735.44 1.147.613Z" fill="#EAD295"/><path fill-rule="evenodd" clip-rule="evenodd" d="M14.581 35.122 20 38.012l.735-.44-5.418-2.89.918-.552L15 33.571l-.83.498-.935-.498-.735.441.934.499-.934.56 1.235.559.846-.508Zm0 0 .736-.44-1.147-.613-.736.442 1.147.611Z" fill="#EAD295"/><path d="m14.581 35.122.736-.44-1.147-.613-.736.442 1.147.611Z" fill="#EAD295"/><defs><filter id="a" x="0" y="0" width="98" height="62.637" filterUnits="userSpaceOnUse" color-interpolation-filters="sRGB"><feFlood flood-opacity="0" result="BackgroundImageFix"/><feBlend in="SourceGraphic" in2="BackgroundImageFix" result="shape"/><feGaussianBlur stdDeviation="2" result="effect1_foregroundBlur_507_124"/></filter></defs></svg>