<svg width="91" height="88" fill="none" xmlns="http://www.w3.org/2000/svg"><g opacity=".5" filter="url(#a)" fill="#EAD295"><path fill-rule="evenodd" clip-rule="evenodd" d="m40.9 4 4.404 2.446 10.03 32.828-2.767 1.581 33.647 19.038v5.02L49.86 84 15.31 64.907v-4.688L4 22.223 40.9 4ZM16.207 60.924v3.453l33.21 18.353v-3.017l-33.21-18.79ZM50.313 79.72v3.028L85.317 64.37v-3.466L50.313 79.72Zm34.523-19.576-3.082 1.657-29.646-17.164v-3.01l32.729 18.517ZM51.124 40.635 41.508 8.728 9.563 24.044l9.81 33.657 31.75-17.066Zm-34.438 19.53 3.096 1.75L51.21 44.632v-3.023L16.687 60.164ZM51.654 45.41 20.701 62.435 49.87 78.94 80.825 62.3 51.653 45.411ZM16.03 59.498 5.205 23.126l3.458 1.037 9.902 33.973-2.535 1.362ZM8.988 23.324 41.601 7.688l2.309-.99-3.034-1.685L5.76 22.355l3.23.969ZM44.645 7.36l-2.314.991 9.595 31.837 2.34-1.338-9.621-31.49Z"/><path fill-rule="evenodd" clip-rule="evenodd" d="M49.304 50.538c-.15.01-.3.022-.448.035-4.215.359-7.962 1.806-10.691 3.898a15.44 15.44 0 0 0-.377.298c-2.664 2.177-4.26 4.995-4.224 7.995a8.335 8.335 0 0 0 .06.896c.369 3.055 2.416 5.691 5.47 7.502.136.081.275.16.416.238 2.952 1.631 6.765 2.518 10.884 2.322a24.367 24.367 0 0 0 .896-.06c3.944-.336 7.478-1.624 10.152-3.503.131-.092.26-.186.388-.281 2.98-2.228 4.791-5.214 4.752-8.408a8.229 8.229 0 0 0-.06-.895c-.444-3.674-3.315-6.743-7.445-8.499a17.893 17.893 0 0 0-.44-.18c-2.593-1.022-5.645-1.538-8.885-1.383-.15.007-.299.016-.448.026Zm-.388.93c-3.91.336-7.368 1.64-9.919 3.501l10.571 6.323-.652-9.824Zm-.307 10.297L38.24 55.56c-2.425 2.026-3.792 4.544-3.778 7.144l14.148-.94ZM34.52 63.6c.34 2.646 2.107 5.015 4.9 6.711l9.291-7.654-14.19.943Zm15.163-.58-9.425 7.764c2.744 1.433 6.26 2.22 10.076 2.042l-.65-9.806Zm1.547 9.746c3.65-.314 6.91-1.472 9.403-3.14L50.581 62.99l.65 9.776Zm.202-10.29 9.983 6.59c2.73-2.085 4.284-4.765 4.27-7.536l-14.253.947Zm14.193-1.842c-.41-3.19-2.904-5.987-6.745-7.665l-7.737 8.627 14.482-.962Zm-15.175.39-.639-9.615c2.985-.14 5.789.31 8.184 1.202l-7.545 8.414ZM71.02 13.7a.449.449 0 0 1 .616-.154l4.676 2.806 1.821 15.027-.89.108-1.77-14.592-4.299-2.58a.449.449 0 0 1-.154-.615Z"/><path d="M79.034 31.433c0 .248-.603.449-1.346.449-.744 0-1.347-.201-1.347-.45 0-.247.603-.448 1.347-.448.743 0 1.346.201 1.346.449Z"/><path fill-rule="evenodd" clip-rule="evenodd" d="M82.022 25.928c2.039.867 3.431 2.41 3.553 4.247.012.175.012.349 0 .522v3.233s-.198.974-1.184 2.018l-.868-.057-.056.86c-1.117.797-2.808 1.497-5.355 1.666-2.911.195-4.845-.558-6.099-1.465l1.86 12.396.001.019c.051.766.549 1.476 1.403 1.983.828.49 1.958.766 3.198.683 1.194-.079 2.243-.473 2.995-1.035.836-.625 1.266-1.423 1.214-2.216l-.002-.03.785-12.002c.366-.262.671-.534.924-.802l.027.002-.837 12.803c.066 1.172-.583 2.223-1.574 2.964-.904.676-2.124 1.122-3.472 1.212-1.4.093-2.714-.214-3.716-.808-1.023-.607-1.756-1.541-1.839-2.675L70.965 36.01c-.78-.867-1.046-1.633-1.046-1.633v-3.163c-.1-1.504.67-2.923 1.997-4.008 1.353-1.106 3.284-1.864 5.466-2.008 1.706-.114 3.31.164 4.64.73Zm2.656 4.739v1.531c-.353.665-.903 1.286-1.618 1.821-1.26.942-3.004 1.593-4.977 1.724-2.05.136-3.93-.317-5.319-1.14-.873-.52-1.54-1.174-1.947-1.913v-1.505l-.002-.03c-.076-1.136.498-2.297 1.67-3.253 1.19-.974 2.938-1.674 4.957-1.808 1.575-.105 3.037.154 4.228.66 1.852.788 2.918 2.097 3.01 3.48.009.136.009.27 0 .403l-.002.03Zm-13.861 3.528v.005c.043.094.113.235.217.408.21.349.555.82 1.083 1.28 1.033.904 2.846 1.84 5.936 1.634 3.127-.209 4.775-1.252 5.637-2.14a4.38 4.38 0 0 0 .84-1.194 2.96 2.96 0 0 0 .142-.356l.006-.02v-.062a7.25 7.25 0 0 1-1.08.988c-1.413 1.056-3.328 1.76-5.456 1.9-2.21.148-4.273-.337-5.835-1.264a6.795 6.795 0 0 1-1.49-1.18Z"/><path d="m84.391 35.948-.868-.057-.056.86c.366-.263.671-.535.924-.803Z"/></g><path fill-rule="evenodd" clip-rule="evenodd" d="m40.9 4 4.404 2.446 10.03 32.828-2.767 1.581 33.647 19.038v5.02L49.86 84 15.31 64.907v-4.688L4 22.223 40.9 4ZM16.207 60.924v3.453l33.21 18.353v-3.017l-33.21-18.79ZM50.313 79.72v3.028L85.317 64.37v-3.466L50.313 79.72Zm34.523-19.576-3.082 1.657-29.646-17.164v-3.01l32.729 18.517ZM51.124 40.635 41.508 8.728 9.563 24.044l9.81 33.657 31.75-17.066Zm-34.438 19.53 3.096 1.75L51.21 44.632v-3.023L16.687 60.164ZM51.654 45.41 20.701 62.435 49.87 78.94 80.825 62.3 51.653 45.411ZM16.03 59.498 5.205 23.126l3.458 1.037 9.902 33.973-2.535 1.362ZM8.988 23.324 41.601 7.688l2.309-.99-3.034-1.685L5.76 22.355l3.23.969ZM44.645 7.36l-2.314.991 9.595 31.837 2.34-1.338-9.621-31.49Z" fill="#EAD295"/><path fill-rule="evenodd" clip-rule="evenodd" d="M49.304 50.538c-.15.01-.3.022-.448.035-4.215.359-7.962 1.806-10.691 3.898a15.44 15.44 0 0 0-.377.298c-2.664 2.177-4.26 4.995-4.224 7.995a8.335 8.335 0 0 0 .06.896c.369 3.055 2.416 5.691 5.47 7.502.136.081.275.16.416.238 2.952 1.631 6.765 2.518 10.884 2.322a24.367 24.367 0 0 0 .896-.06c3.944-.336 7.478-1.624 10.152-3.503.131-.092.26-.186.388-.281 2.98-2.228 4.791-5.214 4.752-8.408a8.229 8.229 0 0 0-.06-.895c-.444-3.674-3.315-6.743-7.445-8.499a17.893 17.893 0 0 0-.44-.18c-2.593-1.022-5.645-1.538-8.885-1.383-.15.007-.299.016-.448.026Zm-.388.93c-3.91.336-7.368 1.64-9.919 3.501l10.571 6.323-.652-9.824Zm-.307 10.297L38.24 55.56c-2.425 2.026-3.792 4.544-3.778 7.144l14.148-.94ZM34.52 63.6c.34 2.646 2.107 5.015 4.9 6.711l9.291-7.654-14.19.943Zm15.163-.58-9.425 7.764c2.744 1.433 6.26 2.22 10.076 2.042l-.65-9.806Zm1.547 9.746c3.65-.314 6.91-1.472 9.403-3.14L50.581 62.99l.65 9.776Zm.202-10.29 9.983 6.59c2.73-2.085 4.284-4.765 4.27-7.536l-14.253.947Zm14.193-1.842c-.41-3.19-2.904-5.987-6.745-7.665l-7.737 8.627 14.482-.962Zm-15.175.39-.639-9.615c2.985-.14 5.789.31 8.184 1.202l-7.545 8.414ZM71.02 13.7a.449.449 0 0 1 .616-.154l4.676 2.806 1.821 15.027-.89.108-1.77-14.592-4.299-2.58a.449.449 0 0 1-.154-.615Z" fill="#EAD295"/><path d="M79.034 31.433c0 .248-.603.449-1.346.449-.744 0-1.347-.201-1.347-.45 0-.247.603-.448 1.347-.448.743 0 1.346.201 1.346.449Z" fill="#EAD295"/><path fill-rule="evenodd" clip-rule="evenodd" d="M82.022 25.928c2.039.867 3.431 2.41 3.553 4.247.012.175.012.349 0 .522v3.233s-.198.974-1.184 2.018l-.868-.057-.056.86c-1.117.797-2.808 1.497-5.355 1.666-2.911.195-4.845-.558-6.099-1.465l1.86 12.396.001.019c.051.766.549 1.476 1.403 1.983.828.49 1.958.766 3.198.683 1.194-.079 2.243-.473 2.995-1.035.836-.625 1.266-1.423 1.214-2.216l-.002-.03.785-12.002c.366-.262.671-.534.924-.802l.027.002-.837 12.803c.066 1.172-.583 2.223-1.574 2.964-.904.676-2.124 1.122-3.472 1.212-1.4.093-2.714-.214-3.716-.808-1.023-.607-1.756-1.541-1.839-2.675L70.965 36.01c-.78-.867-1.046-1.633-1.046-1.633v-3.163c-.1-1.504.67-2.923 1.997-4.008 1.353-1.106 3.284-1.864 5.466-2.008 1.706-.114 3.31.164 4.64.73Zm2.656 4.739v1.531c-.353.665-.903 1.286-1.618 1.821-1.26.942-3.004 1.593-4.977 1.724-2.05.136-3.93-.317-5.319-1.14-.873-.52-1.54-1.174-1.947-1.913v-1.505l-.002-.03c-.076-1.136.498-2.297 1.67-3.253 1.19-.974 2.938-1.674 4.957-1.808 1.575-.105 3.037.154 4.228.66 1.852.788 2.918 2.097 3.01 3.48.009.136.009.27 0 .403l-.002.03Zm-13.861 3.528v.005c.043.094.113.235.217.408.21.349.555.82 1.083 1.28 1.033.904 2.846 1.84 5.936 1.634 3.127-.209 4.775-1.252 5.637-2.14a4.38 4.38 0 0 0 .84-1.194 2.96 2.96 0 0 0 .142-.356l.006-.02v-.062a7.25 7.25 0 0 1-1.08.988c-1.413 1.056-3.328 1.76-5.456 1.9-2.21.148-4.273-.337-5.835-1.264a6.795 6.795 0 0 1-1.49-1.18Z" fill="#EAD295"/><path d="m84.391 35.948-.868-.057-.056.86c.366-.263.671-.535.924-.803Z" fill="#EAD295"/><defs><filter id="a" x="0" y="0" width="90.214" height="88" filterUnits="userSpaceOnUse" color-interpolation-filters="sRGB"><feFlood flood-opacity="0" result="BackgroundImageFix"/><feBlend in="SourceGraphic" in2="BackgroundImageFix" result="shape"/><feGaussianBlur stdDeviation="2" result="effect1_foregroundBlur_507_118"/></filter></defs></svg>