<svg width="113" height="104" fill="none" xmlns="http://www.w3.org/2000/svg"><g filter="url(#a)"><path fill-rule="evenodd" clip-rule="evenodd" d="M36.908 61.532c.35.024.693.09 1.023.202l9.768-5.11 16.63 9.083v9.873l-.1.053c-.008.57-.15 1.097-.39 1.496-.243.404-.621.722-1.094.722-.449 0-.726-.302-.871-.534a1.843 1.843 0 0 1-.166-.344L41.655 87.629c-.029.512-.166.984-.385 1.347-.243.405-.621.723-1.094.723-.474 0-.851-.318-1.095-.723-.224-.372-.363-.86-.387-1.387l-12.55-7.004c-.032.08-.079.183-.144.286-.145.232-.422.534-.87.534-.473 0-.851-.317-1.095-.722-.239-.398-.38-.925-.39-1.493l-.099-.056v-9.873l8.395-4.392c.16-.423.369-.81.614-1.16L4 47.8l.29-.518 28.638 15.957a5.148 5.148 0 0 1 2.579-1.575l-.575-4.01.588-.084.571 3.986a3.33 3.33 0 0 1 .222-.021L34.93 38.87l.593-.036 1.385 22.698Zm25.32 15.164.013-.003v.002l.004.011a1.052 1.052 0 0 0 .026.078c.023.062.058.141.107.219.102.163.221.255.367.255.182 0 .398-.124.585-.434a2.25 2.25 0 0 0 .281-.863l-1.382.735Zm-37.962 2.84 1.354.756-.017.046a1.248 1.248 0 0 1-.106.22c-.102.162-.222.255-.367.255-.183 0-.4-.125-.585-.435a2.245 2.245 0 0 1-.279-.842Zm15.064 8.407c.051.285.144.535.26.729.187.31.403.434.586.434.182 0 .399-.124.585-.434.113-.188.204-.429.256-.704l-.841.447-.846-.472Zm-6.528-23.525 4.422-2.314c-1.59-.305-3.452.565-4.422 2.314Zm7.38 13.635-15.585-8.596 23.095-12.16 15.585 8.596-23.095 12.16Zm.39.635v8.73l23.163-12.195v-8.731L40.572 78.688Zm-16.432-8.62v8.717l15.64 8.626v-8.717l-15.64-8.626Zm21.104-10.274-2.008 1.135.292.515 2.01-1.135-.294-.515Zm-2.81 1.51-2.009 1.135.293.515 2.009-1.135-.293-.515ZM4.12 62.843l26.132 2.172.05-.59-26.133-2.173-.049.59Zm43.386-4.134a.886.886 0 0 0-.499.041.884.884 0 0 0-.414.28.292.292 0 0 0-.047.083c.014.01.041.023.088.035.115.03.295.031.5-.04a.885.885 0 0 0 .414-.28.295.295 0 0 0 .047-.083.294.294 0 0 0-.089-.036Zm.103.048-.003-.003a.039.039 0 0 1 .003.004Zm-.011-.027v-.004.004Zm-1.066.37.002.003-.001-.001-.001-.002Zm.011.028v.004-.004Zm1.618-.582c-.144-.408-.748-.566-1.351-.355-.603.212-.974.714-.83 1.121.143.407.748.566 1.35.355.603-.212.975-.714.831-1.121Z" fill="#EAD295"/></g><path fill-rule="evenodd" clip-rule="evenodd" d="M23.715 69.293v9.858l16.56 9.266.198-.394v-9.66l-16.758-9.07Zm.591.806v8.703l15.576 8.612v-8.703L24.307 70.1Z" fill="#EAD295"/><path fill-rule="evenodd" clip-rule="evenodd" d="M40.67 78.705v8.717l23.067-12.176v-8.717L40.67 78.705Zm-.591-.356.197 10.068 24.053-12.815v-9.857l-24.25 12.604Z" fill="#EAD295"/><path fill-rule="evenodd" clip-rule="evenodd" d="m23.715 69.293 16.56 9.45L64.33 65.745l-16.561-9.069-24.053 12.617Zm1.047.196 15.52 8.582 23-12.14-15.52-8.583-23 12.141Z" fill="#EAD295"/><path fill-rule="evenodd" clip-rule="evenodd" d="M37.81 62.277c-1.87-.673-4.334.484-5.21 2.918l-.557-.2c.968-2.689 3.837-3.996 6.064-3.193l-.297.475Z" fill="#EAD295"/><path fill-rule="evenodd" clip-rule="evenodd" d="m36.432 61.623-1.38-22.673.59-.036 1.38 22.673-.59.036Zm-.786.221-.592-4.14.586-.084.591 4.14-.585.084Zm7.677-.87 2-1.133.292.515-2 1.133-.292-.515Zm-2.799 1.508 2-1.133.292.514-2 1.133-.292-.514Zm-7.687 1.352L4.25 47.865l.288-.516 28.587 15.969-.288.516Zm-2.443 1.22L4.37 62.885l.049-.59 26.024 2.17-.05.589Zm17.182-6.296a.881.881 0 0 0-.497.041.881.881 0 0 0-.413.28.289.289 0 0 0-.046.083.29.29 0 0 0 .088.035.88.88 0 0 0 .497-.04.88.88 0 0 0 .413-.28.288.288 0 0 0 .046-.083.291.291 0 0 0-.088-.035Zm.102.049-.002-.004.002.004Zm-.01-.028v-.004.004Zm-1.062.37.002.003-.002-.003Zm.01.027v.005-.005Zm1.612-.58c-.143-.407-.745-.566-1.345-.355-.6.212-.97.713-.828 1.12.144.406.746.565 1.346.353.6-.211.97-.712.827-1.119Zm-8.535 30.077c.186.31.4.434.583.434.182 0 .397-.124.583-.434.182-.303.304-.742.304-1.242h.592c0 .59-.143 1.137-.39 1.547-.242.404-.618.72-1.09.72-.47 0-.847-.316-1.09-.72-.245-.41-.388-.958-.388-1.546h.592c0 .5.122.938.304 1.241Zm-14.983-8.28c.185.31.4.434.582.434.145 0 .264-.093.366-.255a1.24 1.24 0 0 0 .13-.29l.006-.017v-.004l.287.073.287.072v.002l-.002.003-.002.01-.01.033a1.825 1.825 0 0 1-.195.431c-.145.232-.42.533-.867.533-.471 0-.847-.317-1.09-.72-.246-.41-.388-.958-.388-1.547h.591c0 .5.122.939.304 1.242Zm38.624-3.549c-.186.31-.4.434-.583.434-.145 0-.263-.093-.365-.255a1.236 1.236 0 0 1-.13-.29l-.006-.017v-.003l-.287.072a37.5 37.5 0 0 0-.287.072v.002l.001.004.003.01a1.543 1.543 0 0 0 .046.14c.032.086.083.203.158.323.145.232.42.534.867.534.472 0 .848-.317 1.09-.721.246-.41.389-.958.389-1.547h-.592c0 .5-.122.939-.304 1.242Z" fill="#EAD295"/><g filter="url(#b)"><path fill-rule="evenodd" clip-rule="evenodd" d="m60.697 13.415 15.38-8.693 4.5 2.492-15.456 8.947-4.424-2.746Zm15.426-9.383 5.443 2.983v3.675l1.132.554 2.97-1.909 6.576 3.737v46.26l-15.91 10.035-6.484-3.992h-.014v-.01l-5.042-3.103h-.085v-.053l-4.674-2.877V13.005l.014.008-.048-.072 16.122-8.909Zm5.938 7.59-.664-.3-15.472 8.975 3.998 2.448V18.68l.023.013-.013-.014 12.128-7.058ZM70.59 19.064l15.078-9.092 5.516 3.182-14.904 9.18-5.69-3.27Zm-.754 45.534-4.49-2.754v-4.346l4.49 2.735v4.365Zm.636-3.977v4.367l5.494 3.37v-4.39l-5.494-3.347Zm5.494 2.601L60.67 53.905V48.79l15.295 9.318v5.114ZM60.67 54.65v4.327l4.038 2.477V57.11l-4.038-2.46Zm15.295 2.713v-4.749l-5.494-3.346v4.748l5.494 3.347Zm-6.13-3.735-4.49-2.735v-4.749l4.49 2.736v4.748Zm-5.127-3.123v-4.748l-4.038-2.46v4.748l4.038 2.46Zm11.257 1.364L60.67 42.552v-4.748l15.295 9.317v4.748Zm0-5.493v-4.748l-5.494-3.347v4.748l5.494 3.347Zm-6.13-3.734-4.49-2.736v-4.748l4.49 2.735v4.749Zm-5.127-3.124V34.77l-4.038-2.46v4.749l4.038 2.46Zm11.257 1.364L60.67 31.565v-4.382L75.966 36.5v4.382Zm0-5.127V31.74l-5.494-3.346v4.016l5.494 3.346Zm-6.13-3.734-4.442-2.706v-4.016l4.442 2.706v4.016Zm-5.078-3.094v-4.015l-4.087-2.49v4.016l4.087 2.49Zm11.208 2.067L60.67 21.677v-3.812l4.038 2.46v.006l.127.07 11.13 6.781v3.812Zm0-4.557v-3.614l-5.407-3.044v3.364l5.407 3.294Zm-11.257-6.858v-2.924l-4.038-2.506v2.97l4.038 2.46Zm16.22-8.718V7.755l-15.584 9.013v3.134L80.93 10.86Zm10.679 2.736-15.006 9.284v3.504l15.006-9.142v-3.646ZM76.602 68.433v-4.517l15.006-9.142v4.207l-15.006 9.452Zm4.904-8.25-4.904 2.987v-5.114l4.904-2.988v5.115Zm5.127-3.124-4.49 2.736V54.68l4.491-2.736v5.114Zm4.975-3.03-4.338 2.643v-5.115l4.338-2.643v5.115Zm0-5.86-15.006 9.142v-4.748l15.006-9.142v4.748Zm-10.102.66-4.904 2.988V47.07l4.904-2.988v4.749Zm5.127-3.123-4.49 2.736v-4.748l4.49-2.736v4.748Zm4.975-3.03-4.338 2.643V40.57l4.338-2.642v4.748Zm0-5.494-15.006 9.142v-4.748l15.006-9.142v4.748Zm-10.102.66-4.904 2.989v-4.382l4.904-2.988v4.382Zm5.127-3.123-4.49 2.736v-4.382l4.49-2.736v4.382Zm4.975-3.03-4.338 2.643V29.95l4.338-2.643v4.382Zm0-5.127-15.006 9.141v-4.015l15.006-9.142v4.016Zm-10.102 1.393-4.904 2.988V27.13l4.904-2.988v3.813Zm5.078-3.094-4.441 2.706v-3.812l4.441-2.706v3.812Zm5.024-3.06-4.387 2.673V20.66l4.387-2.672V21.8Z" fill="#EAD295"/></g><path fill-rule="evenodd" clip-rule="evenodd" d="M65.668 19.942V16.3l-5.31-3.296v46.327l16.3 10.035.211-46.88-6.624-3.806v4.064l-4.578-2.803Zm5.214-.163v3.813l-5.85-3.26v-3.677l-4.038-2.506v44.828l15.451 9.476V22.911l-5.563-3.132Z" fill="#EAD295"/><path fill-rule="evenodd" clip-rule="evenodd" d="m76.924 22.881 15.006-9.284v45.384l-15.006 9.452V22.881Zm-.636-.355 16.279-10.009v46.815l-15.91 10.035-.37-.934V22.526ZM86.627 9.76l-15.921 9.426-.45-.506 15.92-9.427.451.507Zm-5.233-2.341L65.647 16.78l-.325-.547 15.747-9.362.325.547Zm.001 3.845-15.699 9.362-.326-.547 15.699-9.362.326.547Zm-5.496-6.751-15.151 9.065-.425-.636 15.274-8.91.302.481Z" fill="#EAD295"/><path fill-rule="evenodd" clip-rule="evenodd" d="m81.177 7.567-5.874-2.97.294-.565 5.874 2.97-.294.565Z" fill="#EAD295"/><path fill-rule="evenodd" clip-rule="evenodd" d="M80.828 11.174V7.002h.636v4.172h-.636ZM65.08 29.485v-4.761h.636v4.76h-.636Zm22.463-4.395v-4.578h-.636v4.578h.636Zm-17.385 7.508v-4.761h.637v4.76h-.637Zm12.307-4.578v-4.395h-.636v4.395h.636ZM70.158 43.218v-5.493h.637v5.493h-.637Zm12.307-5.127v-5.127h-.636v5.127h.636Zm-17.434 1.947v-5.426h.637v5.426h-.637Zm22.561-5.128v-5.059h-.636v5.06h.636ZM65.031 51.092V45.6h.637v5.493h-.637Zm22.561-5.127v-5.493h-.636v5.493h.636Zm-17.434 8.24v-5.493h.637v5.493h-.637Zm12.307-5.127v-5.493h-.636v5.493h.636ZM70.158 65.375v-5.31h.637v5.31h-.637Zm12.307-5.127V54.57h-.636v5.677h.636Zm-17.434 2.014v-5.31h.637v5.31h-.637Zm22.561-5.127v-5.676h-.635l-.001 5.676h.636Zm4.683-44.052-6.409-3.296.292-.566 6.409 3.296-.291.566Zm-15.97 14.11-15.93-9.705.33-.543 15.932 9.704-.332.544Z" fill="#EAD295"/><path fill-rule="evenodd" clip-rule="evenodd" d="m76.52 27.376 15.932-9.705-.331-.543-15.931 9.705.33.543Zm-.18 4.394-15.932-9.704.332-.544 15.93 9.705-.33.544Z" fill="#EAD295"/><path fill-rule="evenodd" clip-rule="evenodd" d="m76.487 31.954 15.931-9.705-.33-.543-15.932 9.704.331.544Zm-.147 4.578-15.932-9.705.332-.544 15.93 9.705-.33.544Z" fill="#EAD295"/><path fill-rule="evenodd" clip-rule="evenodd" d="m76.487 36.715 15.931-9.705-.33-.544-15.932 9.705.331.544Zm-.147 4.944-15.932-9.705.332-.544 15.93 9.705-.33.544Z" fill="#EAD295"/><path fill-rule="evenodd" clip-rule="evenodd" d="m76.487 41.842 15.931-9.705-.33-.543-15.932 9.705.331.543Zm-.147 5.31-15.932-9.705.332-.543 15.93 9.705-.33.543Z" fill="#EAD295"/><path fill-rule="evenodd" clip-rule="evenodd" d="m76.487 47.335 15.931-9.705-.33-.543-15.932 9.705.331.543Zm-.147 5.311L60.407 42.94l.332-.544 15.93 9.705-.33.544Z" fill="#EAD295"/><path fill-rule="evenodd" clip-rule="evenodd" d="m76.487 52.829 15.931-9.705-.33-.544-15.932 9.705.331.544Zm-.147 5.31-15.932-9.705.332-.543 15.93 9.705-.33.543Z" fill="#EAD295"/><path fill-rule="evenodd" clip-rule="evenodd" d="m76.487 58.322 15.931-9.705-.33-.543-15.932 9.705.331.543Zm-.147 5.677-15.932-9.705.332-.544 15.93 9.705-.33.544Z" fill="#EAD295"/><path fill-rule="evenodd" clip-rule="evenodd" d="m76.487 64.182 15.931-9.705-.33-.544-15.932 9.705.331.544Zm6.058-52.18-1.465-.796.304-.56 1.465.797-.304.56Z" fill="#EAD295"/><g filter="url(#c)"><path fill-rule="evenodd" clip-rule="evenodd" d="m66.885 81.78 2.776-.802 13.325-7.692 1.666-1.763 3.47-2.003 4.719.801 9.716 4.007 5.83 4.968-.503 3.734-4.242 2.333-4.667-.636-5.09-3.818-1.486 2.757.006-1.06.907-1.697v-1.06l-.888 1.45-.019 1.307-.006 1.06-8.997 5.303h-1.16l.605.583 1.943 3.366-.664 3.476-4.666 2.97-7.849-3.182-.517-.212-6.483-5.303-.517-.925-.636-5.968 3.427-1.994Zm-1.85 8.462 6.06 5.091v-2.97l-6.577-5.407-.424-1.273.424 3.71.517.85Zm6.576 2.334v2.97l7.636 2.97v-2.759l-7.636-3.181Zm8.182 3.227v2.585l3.91-2.418.423-2.758-4.333 2.59Zm.556-8.654 1.232 1.184 1.266.017.007-1.714-2.505.513Zm3.053 1.184 8.442-4.975v-1.723l-8.442 4.872v1.826Zm10.482-8.06 4.694 3.425-1.018-2.64-3.676-1.422v.636ZM99.4 84.09l4.176.558-.782-2.468-4.666-1.06 1.272 2.97Zm4.031-1.91.636 2.204 3.314-1.78.292-2.757-4.242 2.334Zm-19.814-8.623 1.666-1.763 3.064-1.768 4.149.704 9.495 3.916 5.39 4.593-4.328 2.5-5.125-1.083-4.615-1.903-1.554 2.293-8.784 5.072-3.78.793 2.94 2.83 1.765 3.054-4.201 2.426-7.957-3.112-6.767-5.47-.983-2.553 3.356-1.937 2.776-.802 13.493-7.79Zm-10.22 7.663 10.01-5.779c.305-.175.798-.175 1.103 0l2.237 1.292c.304.176.304.46 0 .636l-10.01 5.78c-.305.175-.798.175-1.103 0l-2.237-1.293c-.304-.175-.304-.46 0-.636Zm-.55.954c-.61-.35-.61-.92 0-1.272l10.01-5.779c.608-.351 1.595-.351 2.204 0l2.237 1.292c.609.351.609.92 0 1.272l-10.01 5.78c-.609.35-1.596.35-2.205 0l-2.237-1.293Zm9.311 2.652c.539-.31.539-.815 0-1.126-.539-.312-1.412-.312-1.951 0-.54.31-.54.815 0 1.126.539.311 1.412.311 1.951 0Zm.551.318c.844-.487.844-1.276 0-1.763-.843-.487-2.21-.487-3.053 0-.844.487-.844 1.276 0 1.763.843.487 2.21.487 3.053 0Zm6.667-5.611c.539.31.539.815 0 1.126-.539.312-1.413.312-1.952 0-.538-.31-.538-.815 0-1.126.54-.311 1.413-.311 1.952 0Zm.551-.319c.843.488.843 1.277 0 1.763-.843.487-2.21.487-3.054 0-.843-.486-.843-1.275 0-1.762.844-.487 2.21-.487 3.054 0Zm-.273-4.164c.232-.134.232-.351 0-.485a.93.93 0 0 0-.841 0c-.233.134-.233.351 0 .485a.93.93 0 0 0 .84 0Zm.55.318c.537-.31.537-.812 0-1.121-.536-.31-1.406-.31-1.943 0-.536.31-.536.811 0 1.121.537.31 1.407.31 1.944 0Zm-.55-2.726c.232.134.232.35 0 .485a.93.93 0 0 1-.841 0c-.233-.134-.233-.351 0-.485a.93.93 0 0 1 .84 0Zm.55-.319c.537.31.537.812 0 1.122-.536.31-1.406.31-1.943 0-.536-.31-.536-.812 0-1.122.537-.31 1.407-.31 1.944 0Zm2.78.804c.233-.134.233-.351 0-.485a.93.93 0 0 0-.84 0c-.232.134-.232.35 0 .485a.93.93 0 0 0 .84 0Zm.552.318c.537-.31.537-.812 0-1.122-.537-.31-1.407-.31-1.943 0-.537.31-.537.812 0 1.122.536.31 1.406.31 1.943 0Zm-.551 1.12c.232.134.232.351 0 .485a.93.93 0 0 1-.841 0c-.232-.134-.232-.351 0-.485a.93.93 0 0 1 .84 0Zm.55-.319c.537.31.537.813 0 1.122-.536.31-1.406.31-1.942 0-.537-.31-.537-.812 0-1.121.536-.31 1.406-.31 1.943 0Zm-24.01 11.939c.01.016.056.089-.012.261a1.02 1.02 0 0 1-.402.463.93.93 0 0 1-.841 0c-.232-.134-.232-.351 0-.485.145-.084.46-.187.802-.232.299-.04.425-.013.453-.007Zm.137 1.042c.537-.31.953-1.052.416-1.361-.536-.31-1.823-.07-2.36.24-.536.31-.536.812 0 1.121.537.31 1.407.31 1.944 0Zm-.551-3.047c.145.084.324.266.402.463.068.173.022.245.012.262-.028.006-.154.032-.453-.007-.342-.045-.657-.148-.802-.232-.232-.134-.232-.352 0-.486a.93.93 0 0 1 .84 0Zm.551-.318c.537.31.953 1.052.416 1.362-.536.31-1.823.07-2.36-.24-.536-.31-.536-.812 0-1.122.537-.31 1.407-.31 1.944 0Zm3.335.804c.233-.134.233-.352 0-.486a.93.93 0 0 0-.84 0 1.022 1.022 0 0 0-.403.463c-.068.173-.022.245-.011.262.028.006.153.032.452-.007.342-.045.657-.148.802-.232Zm.552.318c.536-.31.536-.812 0-1.122-.537-.31-1.407-.31-1.944 0-.536.31-.953 1.052-.416 1.362.537.31 1.823.07 2.36-.24Zm-.552 1.44c.233.134.233.352 0 .486a.93.93 0 0 1-.84 0 1.023 1.023 0 0 1-.403-.464c-.068-.172-.022-.245-.011-.261.028-.006.153-.033.452.007.342.045.657.148.802.232Zm.552-.318c.536.31.536.812 0 1.121-.537.31-1.407.31-1.944 0-.536-.31-.953-1.052-.416-1.361.537-.31 1.823-.07 2.36.24Zm11.108-4.004c.078-.046.078-.12 0-.165a.317.317 0 0 0-.286 0c-.08.045-.08.12 0 .165a.314.314 0 0 0 .286 0Zm.55.318c.384-.221.384-.58 0-.802-.383-.22-1.004-.22-1.387 0-.384.222-.384.58 0 .802.383.221 1.004.221 1.388 0Z" fill="#EAD295"/></g><path fill-rule="evenodd" clip-rule="evenodd" d="m69.568 80.86-2.776.8-3.427 1.995.636 5.967.517.925 6.484 5.303v-.636l-6.06-5.091-.516-.849-.425-3.71.425 1.273 6.576 5.407v3.606l.516.213v-3.607l7.637 3.182v2.758l-7.637-2.97v.636l7.849 3.182.334-.976v-2.585l4.333-2.59-.425 2.757-3.908 2.418-.334.976 4.667-2.97.664-3.475-1.944-3.366-1.266-1.22-1.232-1.184 2.505-.512-.007 1.714-1.266-.017.661.636h1.161l8.997-5.303v-.636l-8.997 5.303v-1.826l8.441-4.872v1.722l.556-.327.025-1.731.888-1.451v1.06l-.907 1.698-.006 1.06 1.484-2.757 5.091 3.818-.396-1.03-4.695-3.425v-.636l3.677 1.422 1.414 3.669 4.667.636-.067-.714-4.175-.559-1.273-2.97 4.667 1.061.781 2.468.492-.264-.637-2.204 4.243-2.333-.292 2.758-3.806 2.043.067.714 4.243-2.333.502-3.734-5.83-4.969-9.716-4.006-4.719-.801-3.47 2.003-1.666 1.763-13.325 7.692Zm15.621-9.184-1.665 1.763-13.494 7.79-2.776.801-3.356 1.938.983 2.554 6.767 5.469 7.957 3.111 4.201-2.425-1.764-3.055-2.94-2.83L82.88 86l8.784-5.07 1.555-2.294 4.615 1.903 5.124 1.082 4.329-2.499-5.39-4.593-9.496-3.916-4.149-.704-3.064 1.768Z" fill="#EAD295"/><path fill-rule="evenodd" clip-rule="evenodd" d="m83.314 75.323-10.01 5.779c-.305.176-.305.46 0 .636l2.237 1.292c.304.175.798.175 1.102 0l10.01-5.779c.304-.176.304-.46 0-.636l-2.237-1.292c-.304-.176-.798-.176-1.102 0Zm-10.561 5.46c-.61.352-.61.922 0 1.273l2.237 1.292c.609.351 1.596.351 2.204 0l10.01-5.779c.609-.351.609-.921 0-1.273l-2.237-1.291c-.609-.351-1.596-.351-2.204 0l-10.01 5.779Zm9.312 3.925c.538-.311.538-.816 0-1.127-.54-.31-1.413-.31-1.952 0-.539.311-.539.816 0 1.127.54.31 1.413.31 1.952 0Zm.55.318c.844-.487.844-1.276 0-1.763-.843-.487-2.21-.487-3.053 0s-.843 1.276 0 1.763c.843.487 2.21.487 3.054 0Zm6.667-4.485c.54-.311.54-.815 0-1.126-.539-.312-1.412-.312-1.951 0-.539.31-.539.815 0 1.126.539.311 1.412.311 1.951 0Zm.551.318c.844-.487.844-1.276 0-1.763-.843-.486-2.21-.486-3.053 0-.844.487-.844 1.276 0 1.763.843.487 2.21.487 3.053 0Zm-.273-5.927c.232-.134.232-.352 0-.486a.93.93 0 0 0-.84 0c-.233.135-.233.352 0 .486a.93.93 0 0 0 .84 0Zm.551.318c.537-.31.537-.812 0-1.122-.536-.31-1.406-.31-1.943 0-.537.31-.537.812 0 1.122.537.31 1.407.31 1.943 0Zm-.551-2.241c.232-.134.232-.352 0-.486a.93.93 0 0 0-.84 0c-.233.134-.233.352 0 .486a.93.93 0 0 0 .84 0Zm.551.318c.537-.31.537-.812 0-1.122-.536-.31-1.406-.31-1.943 0-.537.31-.537.812 0 1.122.537.31 1.407.31 1.943 0Zm2.78-.318c.233-.134.233-.352 0-.486a.93.93 0 0 0-.84 0c-.233.134-.233.352 0 .486a.93.93 0 0 0 .84 0Zm.551.318c.537-.31.537-.812 0-1.122-.536-.31-1.406-.31-1.943 0-.536.31-.536.812 0 1.122.537.31 1.407.31 1.944 0Zm-.551 1.605c.233-.134.233-.352 0-.486a.93.93 0 0 0-.84 0c-.233.135-.233.352 0 .486a.93.93 0 0 0 .84 0Zm.551.318c.537-.31.537-.812 0-1.122-.536-.31-1.406-.31-1.943 0-.536.31-.536.812 0 1.122.537.31 1.407.31 1.944 0ZM69.431 86.067c.01.016.056.089-.012.261-.078.197-.256.38-.402.463a.93.93 0 0 1-.84 0c-.233-.134-.233-.351 0-.485.145-.084.46-.187.801-.232.3-.04.425-.013.453-.007Zm.137 1.042c.537-.31.953-1.052.417-1.362-.537-.31-1.823-.07-2.36.24-.537.31-.537.813 0 1.122.537.31 1.407.31 1.943 0Zm-.149-2.584a1.023 1.023 0 0 0-.402-.463.93.93 0 0 0-.84 0c-.233.134-.233.352 0 .486.144.084.46.186.801.232.3.039.425.013.453.007.01-.017.056-.09-.012-.262Zm.566.581c.536-.31.12-1.052-.417-1.362-.536-.31-1.406-.31-1.943 0-.537.31-.537.812 0 1.122.537.31 1.823.55 2.36.24Zm2.919-.559c.232-.133.232-.35 0-.485a.93.93 0 0 0-.841 0 1.023 1.023 0 0 0-.402.463c-.069.173-.023.245-.012.261.028.007.154.033.452-.006.342-.046.657-.148.803-.233Zm.55.319c.537-.31.537-.812 0-1.122-.536-.31-1.406-.31-1.942 0-.537.31-.954 1.052-.417 1.362.537.31 1.823.07 2.36-.24Zm-.55 1.925c.232-.134.232-.351 0-.485-.146-.084-.46-.187-.803-.232-.298-.04-.424-.013-.452-.007-.011.016-.056.089.012.261.078.197.256.38.402.463a.93.93 0 0 0 .84 0Zm.55.318c.537-.31.537-.812 0-1.121-.536-.31-1.822-.55-2.359-.24-.537.309-.12 1.052.417 1.361.536.31 1.406.31 1.943 0Zm11.109-5.126c.079-.045.079-.119 0-.165a.316.316 0 0 0-.286 0c-.079.046-.079.12 0 .165a.316.316 0 0 0 .286 0Zm.551.319c.383-.222.383-.58 0-.802-.383-.221-1.005-.221-1.388 0-.383.222-.383.58 0 .802.383.22 1.005.22 1.388 0Z" fill="#EAD295"/><defs><filter id="a" x="0" y="34.834" width="68.329" height="58.865" filterUnits="userSpaceOnUse" color-interpolation-filters="sRGB"><feFlood flood-opacity="0" result="BackgroundImageFix"/><feBlend in="SourceGraphic" in2="BackgroundImageFix" result="shape"/><feGaussianBlur stdDeviation="2" result="effect1_foregroundBlur_507_39"/></filter><filter id="b" x="56.001" y=".032" width="40.243" height="73.335" filterUnits="userSpaceOnUse" color-interpolation-filters="sRGB"><feFlood flood-opacity="0" result="BackgroundImageFix"/><feBlend in="SourceGraphic" in2="BackgroundImageFix" result="shape"/><feGaussianBlur stdDeviation="2" result="effect1_foregroundBlur_507_39"/></filter><filter id="c" x="59.458" y="65.52" width="52.929" height="37.844" filterUnits="userSpaceOnUse" color-interpolation-filters="sRGB"><feFlood flood-opacity="0" result="BackgroundImageFix"/><feBlend in="SourceGraphic" in2="BackgroundImageFix" result="shape"/><feGaussianBlur stdDeviation="2" result="effect1_foregroundBlur_507_39"/></filter></defs></svg>