<svg width="95" height="81" fill="none" xmlns="http://www.w3.org/2000/svg"><g filter="url(#a)"><path fill-rule="evenodd" clip-rule="evenodd" d="M51.592 36.612c.5.034.993.13 1.467.29l14.006-7.329L90.91 42.599v14.157l-.143.076c-.011.817-.215 1.573-.559 2.145-.349.58-.89 1.035-1.569 1.035-.643 0-1.04-.433-1.248-.766a2.623 2.623 0 0 1-.239-.493l-28.754 15.28c-.04.735-.238 1.411-.551 1.932-.35.58-.891 1.036-1.57 1.036-.678 0-1.22-.455-1.57-1.036-.321-.534-.52-1.233-.554-1.99L36.158 63.931a2.585 2.585 0 0 1-.207.41c-.208.334-.605.767-1.248.767-.679 0-1.22-.455-1.57-1.036-.343-.57-.546-1.326-.558-2.14l-.143-.08V47.695l12.037-6.299c.231-.606.53-1.161.881-1.663L4.405 16.92l.415-.741 41.064 22.88a7.383 7.383 0 0 1 3.699-2.259l-.824-5.75.843-.12.819 5.715a6.45 6.45 0 0 1 .318-.03L48.756 4.116l.85-.052 1.986 32.548Zm36.307 21.743.017-.005.001.004.005.016.003.01.035.102c.033.088.083.202.153.313.146.234.318.367.526.367.262 0 .572-.179.84-.623a3.24 3.24 0 0 0 .402-1.237L87.9 58.355Zm-54.434 4.073 1.941 1.084a1.792 1.792 0 0 1-.177.38c-.146.233-.318.366-.526.366-.262 0-.572-.178-.84-.622a3.22 3.22 0 0 1-.398-1.208Zm21.6 12.055c.073.409.206.766.373 1.045.267.444.577.622.84.622.261 0 .571-.178.839-.622.162-.27.291-.615.367-1.01l-1.206.641-1.213-.676Zm-9.36-33.733 6.34-3.318c-2.279-.437-4.95.81-6.34 3.318ZM56.287 60.3 33.94 47.976 67.055 30.54l22.348 12.325-33.116 17.437Zm.558.912V73.73l33.213-17.488v-12.52L56.845 61.213Zm-23.561-12.36V61.35L55.71 73.72v-12.5L33.284 48.852Zm30.261-14.733-2.88 1.627.42.74 2.88-1.628-.42-.739Zm-4.03 2.165-2.88 1.628.42.739 2.88-1.628-.42-.739ZM4.578 38.491l37.471 3.114.071-.846-37.471-3.114-.07.846Zm62.212-5.927c-.165-.043-.423-.044-.716.059s-.494.265-.595.402a.418.418 0 0 0-.066.118c.02.014.058.033.126.051.165.043.424.044.716-.058.293-.103.493-.265.595-.402a.422.422 0 0 0 .066-.119.421.421 0 0 0-.126-.05Zm.147.07-.004-.005.004.004Zm-.016-.04v-.006.006Zm-1.529.53.004.005-.002-.002-.002-.002Zm.016.04v.006-.005Zm2.32-.834c-.205-.584-1.073-.812-1.937-.508-.864.303-1.397 1.022-1.191 1.607.207.584 1.074.811 1.938.508.864-.304 1.397-1.023 1.19-1.607Z" fill="#EAD295"/></g><path fill-rule="evenodd" clip-rule="evenodd" d="M32.675 47.741v14.135L56.42 75.162l.283-.565V60.745l-24.03-13.004Zm.848 1.156v12.479l22.333 12.348V61.245L33.523 48.897Z" fill="#EAD295"/><path fill-rule="evenodd" clip-rule="evenodd" d="M56.986 61.237v12.499l33.076-17.46v-12.5l-33.076 17.46Zm-.848-.512.283 14.437L90.91 56.787V42.652L56.138 60.725Z" fill="#EAD295"/><path fill-rule="evenodd" clip-rule="evenodd" d="m32.675 47.741 23.746 13.55 34.49-18.638-23.748-13.004L32.675 47.74Zm1.5.28L56.43 60.328l32.98-17.41-22.256-12.305-32.978 17.409Z" fill="#EAD295"/><path fill-rule="evenodd" clip-rule="evenodd" d="M52.885 37.68c-2.681-.965-6.214.694-7.471 4.184l-.798-.287c1.388-3.855 5.5-5.729 8.695-4.578l-.426.681Z" fill="#EAD295"/><path fill-rule="evenodd" clip-rule="evenodd" d="m50.91 36.742-1.98-32.51.847-.052 1.979 32.51-.847.052Zm-1.128.317-.848-5.937.84-.12.847 5.936-.84.12Zm11.008-1.247 2.869-1.625.418.738-2.869 1.625-.418-.738Zm-4.013 2.162 2.869-1.625.418.738-2.869 1.625-.418-.738Zm-11.023 1.939L4.764 17.015l.413-.74 40.991 22.898-.414.74Zm-3.503 1.749-37.316-3.11.07-.845 37.316 3.11-.07.845Zm24.638-9.027c-.164-.043-.421-.044-.713.058-.292.103-.491.265-.592.401a.417.417 0 0 0-.066.119.39.39 0 0 0 .125.05c.165.044.422.045.713-.058.292-.102.492-.264.593-.401a.414.414 0 0 0 .066-.118.415.415 0 0 0-.126-.051Zm.146.069-.003-.005.003.005Zm-.016-.04v-.006.006Zm-1.522.53.004.005-.004-.005Zm.016.04v.006-.006Zm2.31-.833c-.204-.584-1.068-.81-1.929-.508-.86.303-1.391 1.022-1.186 1.605.206.583 1.07.81 1.93.507.86-.303 1.391-1.021 1.186-1.604ZM55.585 75.53c.266.444.575.622.836.622.26 0 .57-.178.836-.622.26-.435.436-1.064.436-1.781h.848c0 .844-.204 1.63-.557 2.217-.348.58-.887 1.034-1.563 1.034-.676 0-1.215-.454-1.563-1.034-.353-.588-.557-1.373-.557-2.217h.848c0 .717.175 1.346.436 1.78ZM34.1 63.657c.267.443.575.622.836.622.208 0 .378-.133.524-.366a1.784 1.784 0 0 0 .187-.416l.008-.025v-.004l.412.104.411.103v.003l-.002.005-.004.014a1.883 1.883 0 0 1-.066.2c-.046.124-.12.293-.227.465-.207.332-.602.765-1.243.765-.676 0-1.215-.455-1.563-1.034-.353-.588-.557-1.373-.557-2.217h.848c0 .717.175 1.345.436 1.78Zm55.384-5.089c-.266.444-.575.622-.836.622-.207 0-.378-.133-.523-.366a1.781 1.781 0 0 1-.188-.415l-.007-.025-.001-.005v.001l-.411.103-.412.104.001.002.001.005.004.014a2.004 2.004 0 0 0 .066.201c.046.124.12.292.227.465.208.332.603.764 1.243.764.676 0 1.216-.454 1.563-1.034.353-.588.558-1.372.558-2.217h-.849c0 .717-.175 1.346-.436 1.781Z" fill="#EAD295"/><defs><filter id="a" x=".405" y=".064" width="94.505" height="80.936" filterUnits="userSpaceOnUse" color-interpolation-filters="sRGB"><feFlood flood-opacity="0" result="BackgroundImageFix"/><feBlend in="SourceGraphic" in2="BackgroundImageFix" result="shape"/><feGaussianBlur stdDeviation="2" result="effect1_foregroundBlur_507_24"/></filter></defs></svg>