<svg width="99" height="88" fill="none" xmlns="http://www.w3.org/2000/svg"><g filter="url(#a)" fill-rule="evenodd" clip-rule="evenodd" fill="#EAD295"><path d="M58.266 4v31.016L39.835 44.67v1.685l-5.661 2.979v-1.699L14.28 58.055V27.04L58.266 4ZM34.86 47.275v.92l4.286-2.255v-.91l-4.286 2.245Zm-19.893-19.82V56.92l42.61-22.32V5.136l-42.61 22.32Z"/><path d="m41.192 43.445 3.695 2.149-11.608 6.091-3.679-1.693.288-.624 3.371 1.551 10.207-5.356-2.62-1.524.346-.594Zm46.817-6.196a.344.344 0 0 1 .295-.005l3.981 1.81v8.241l2.197.942a.344.344 0 0 1 .209.316v10.509l-2.584 1.476L52.59 82.186h-.002L49.325 84l-13.052-7.76V65.535c0-.125.068-.24.177-.301l1.42-.784a3.093 3.093 0 0 1 2.992 0l1.261.697 6.864-3.406V56.8c0-.13.074-.25.191-.308L88.01 37.25Zm-39.022 25.26-6.132 3.043 6.132 3.39v-6.433Zm.688 6.812 2.405 1.33V59.045l-2.405-1.604V69.32Zm.341-12.477 2.433 1.622 38.692-19.178-2.973-1.35-38.152 18.906ZM91.598 39.83l-38.83 19.246v22.23l38.83-21.272V39.829Zm.687 19.815 1.718-.981v-9.518l-1.718.982v9.517Zm0-10.309 1.292-.738-1.292-.554v1.292ZM52.08 81.683v-9.921l-2.405 1.069V83.02l2.405-1.337ZM48.987 83V72.81L36.96 66.12v9.728L48.987 83ZM37.325 65.537l12.023 6.687 2.305-1.025-11.124-6.147c-.724-.4-1.603-.4-2.327 0l-.877.485Zm34.602-30.57.148.428-.708-.153-.007-.002-.026-.005a8.713 8.713 0 0 0-.533-.084 8.594 8.594 0 0 0-1.33-.07c-.495.016-.991.087-1.41.252-.412.163-.783.428-1.002.87-.142.286-.109.492.007.645.117.154.342.285.688.394.71.224 1.818.318 3.04.33a41.837 41.837 0 0 0 3.415-.126 51.585 51.585 0 0 0 1.325-.116 11.204 11.204 0 0 0 .232-.754c.148-.548.301-1.27.323-1.978.023-.716-.09-1.385-.434-1.845a1.397 1.397 0 0 0-.637-.48c-.246-.094-.569-.141-1.015-.104-.737.06-1.214.253-1.536.504a1.67 1.67 0 0 0-.597.938 2.506 2.506 0 0 0-.035.94 2.817 2.817 0 0 0 .09.41l.002.006Zm3.96 2.572.082.239h-.008l-.024.003-.09.01-.339.034c-.29.029-.701.066-1.19.103-.977.073-2.275.143-3.538.13-1.247-.012-2.53-.106-3.43-.39-.458-.144-.843-.346-1.055-.625-.213-.28-.227-.607-.046-.973.268-.54.747-.906 1.338-1.138.583-.23 1.241-.317 1.838-.336a10.03 10.03 0 0 1 1.557.08l.028.004a2.79 2.79 0 0 1 .027-1.138c.096-.39.31-.811.754-1.158.453-.354 1.13-.617 2.093-.696.617-.051 1.152.01 1.594.177.434.164.738.413.95.695.418.56.526 1.316.503 2.047-.023.738-.182 1.485-.333 2.044a11.793 11.793 0 0 1-.293.923l-.005.013-.001.004-.411-.052Zm0 0 .412.053-.06.155-.27.03-.081-.238ZM51.92 46.461l.148.429-.708-.153-.004-.001-.019-.004a4.871 4.871 0 0 0-.393-.062 6.366 6.366 0 0 0-.982-.052c-.365.012-.722.064-1.02.182-.292.114-.561.304-.721.628-.103.207-.076.35 0 .45.078.102.23.193.479.272.517.163 1.336.234 2.262.244a31.74 31.74 0 0 0 2.58-.096 38.999 38.999 0 0 0 .932-.081l.01-.03c.041-.122.096-.295.152-.501.113-.415.228-.96.245-1.495.017-.541-.07-1.039-.322-1.376a.982.982 0 0 0-.446-.34c-.163-.061-.383-.096-.701-.07-.533.045-.871.182-1.1.36a1.22 1.22 0 0 0-.435.686c-.063.256-.053.51-.026.702a2.124 2.124 0 0 0 .063.29l.005.015v.003Zm2.909 1.966.081.238h-.006l-.019.003a12.893 12.893 0 0 1-.328.034c-.22.021-.535.05-.908.078a33.05 33.05 0 0 1-2.702.1c-.95-.01-1.944-.081-2.65-.304-.363-.114-.674-.276-.847-.503-.173-.228-.181-.49-.039-.779.21-.421.586-.711 1.056-.896.463-.182.982-.25 1.448-.265.411-.013.797.014 1.096.048-.03-.212-.04-.5.033-.798.075-.302.24-.632.592-.906.36-.282.898-.49 1.657-.552.49-.04.921.008 1.28.143.352.133.593.332.759.554.327.437.408 1.021.39 1.578a7.016 7.016 0 0 1-.254 1.56 8.92 8.92 0 0 1-.223.705l-.004.01-.001.004-.411-.052Zm0 0 .41.052-.06.155-.269.031-.081-.238ZM25.294 59.484l.149.429-.708-.153h-.002l-.012-.003a3.18 3.18 0 0 0-.28-.044 4.5 4.5 0 0 0-.695-.037 2.13 2.13 0 0 0-.698.123.879.879 0 0 0-.489.43c-.07.142-.048.231-.004.289.045.059.136.117.305.17.358.113.94.166 1.621.173a23.19 23.19 0 0 0 1.89-.07c.247-.019.457-.038.61-.052a6.42 6.42 0 0 0 .104-.347 4.94 4.94 0 0 0 .18-1.096c.012-.398-.052-.754-.229-.99a.64.64 0 0 0-.289-.224 1.002 1.002 0 0 0-.442-.041c-.364.03-.588.122-.74.24a.85.85 0 0 0-.3.478 1.485 1.485 0 0 0 .026.713l.003.01v.002Zm2.042 1.465.082.238h-.005l-.015.002-.052.006a24.669 24.669 0 0 1-.867.077c-.553.042-1.29.082-2.012.075-.705-.007-1.463-.06-2.01-.232-.283-.089-.534-.218-.673-.402-.14-.185-.144-.395-.034-.618.16-.325.453-.552.824-.698a3.435 3.435 0 0 1 1.125-.206c.254-.008.495.004.697.022a1.583 1.583 0 0 1 .035-.523c.057-.228.183-.483.457-.697.284-.222.708-.385 1.298-.434.384-.031.73.007 1.021.116.284.107.474.266.602.438.251.335.31.778.297 1.192a5.214 5.214 0 0 1-.189 1.162 6.643 6.643 0 0 1-.155.494l-.01.03-.004.008V61l-.412-.052Zm0 0 .411.052-.06.155-.27.031-.08-.238ZM22.03 71.404l.148.429-.708-.154h-.006l-.024-.006a8.104 8.104 0 0 0-.493-.078 7.942 7.942 0 0 0-1.23-.064c-.46.015-.915.08-1.3.232-.378.148-.72.393-.922.8-.13.264-.099.452.005.59.106.14.31.26.629.36.655.206 1.68.294 2.818.305a38.916 38.916 0 0 0 3.177-.118 47.881 47.881 0 0 0 1.213-.106 10.642 10.642 0 0 0 .212-.69c.138-.51.28-1.182.301-1.84.021-.666-.084-1.286-.402-1.711a1.28 1.28 0 0 0-.583-.441c-.222-.084-.516-.128-.925-.094-.68.056-1.117.233-1.412.463a1.541 1.541 0 0 0-.55.866c-.08.319-.067.634-.034.872a2.642 2.642 0 0 0 .078.361l.006.02.002.004Zm3.66 2.4.082.238h-.008l-.022.003-.085.01-.315.032c-.27.026-.654.06-1.11.095-.91.068-2.12.134-3.3.122-1.162-.012-2.362-.099-3.206-.365-.432-.136-.796-.327-.996-.591-.202-.266-.214-.574-.044-.918.25-.506.7-.85 1.257-1.069.548-.216 1.167-.297 1.727-.315a9.363 9.363 0 0 1 1.445.073 2.607 2.607 0 0 1 .03-1.04c.09-.366.289-.76.706-1.087.427-.333 1.065-.58 1.97-.655.58-.048 1.086.01 1.504.168.41.154.697.39.895.655.393.524.493 1.23.472 1.912-.022.69-.17 1.385-.311 1.907a11.059 11.059 0 0 1-.273.86l-.005.013v.003l-.001.001-.411-.052Zm0 0 .412.052-.06.155-.27.03-.081-.237ZM8.542 62.22l.149.429-.708-.153-.004-.001-.019-.004a5.282 5.282 0 0 0-.386-.061 6.247 6.247 0 0 0-.962-.05c-.358.011-.707.062-1 .177-.284.112-.548.298-.705.615-.1.203-.073.342 0 .44.076.099.224.188.468.265.506.16 1.31.23 2.22.239.892.009 1.821-.041 2.532-.095.355-.026.652-.053.86-.073l.052-.005.01-.028c.04-.118.093-.288.148-.491a6.62 6.62 0 0 0 .24-1.468c.017-.532-.067-1.02-.315-1.35a.96.96 0 0 0-.435-.333c-.16-.06-.373-.093-.685-.068-.521.043-.852.178-1.075.352a1.195 1.195 0 0 0-.426.672c-.062.251-.052.5-.026.689a2.069 2.069 0 0 0 .062.284l.004.015.001.004Zm2.852 1.932.081.239h-.006l-.019.002-.068.008-.254.026c-.217.02-.526.049-.893.076a32.53 32.53 0 0 1-2.655.099c-.934-.01-1.913-.08-2.609-.299-.357-.112-.664-.272-.834-.496-.171-.226-.18-.485-.039-.768.206-.416.577-.701 1.04-.883.456-.18.968-.247 1.427-.261.4-.013.776.013 1.07.046a2.109 2.109 0 0 1 .033-.78c.073-.297.236-.622.582-.892.355-.278.886-.483 1.633-.545.483-.04.909.009 1.263.142.347.13.585.328.749.546.322.43.401 1.005.384 1.553a6.898 6.898 0 0 1-.25 1.534 8.756 8.756 0 0 1-.22.692l-.003.01-.001.003-.411-.052Zm0 0 .41.052-.06.156-.269.03-.081-.238Z"/></g><path fill-rule="evenodd" clip-rule="evenodd" d="M58.266 4v31.016L39.835 44.67v1.685l-5.661 2.979v-1.699L14.28 58.055V27.04L58.266 4ZM34.86 47.275v.92l4.286-2.255v-.91l-4.286 2.245Zm-19.893-19.82V56.92l42.61-22.32V5.136l-42.61 22.32Z" fill="#EAD295"/><path fill-rule="evenodd" clip-rule="evenodd" d="m41.192 43.445 3.695 2.149-11.608 6.091-3.679-1.693.288-.624 3.371 1.551 10.207-5.356-2.62-1.524.346-.594Zm46.817-6.196a.344.344 0 0 1 .295-.005l3.981 1.81v8.241l2.197.942a.344.344 0 0 1 .209.316v10.509l-2.584 1.476L52.59 82.186h-.002L49.325 84l-13.052-7.76V65.535c0-.125.068-.24.177-.301l1.42-.784a3.093 3.093 0 0 1 2.992 0l1.261.697 6.864-3.406V56.8c0-.13.074-.25.191-.308L88.01 37.25Zm-39.022 25.26-6.132 3.043 6.132 3.39v-6.433Zm.688 6.812 2.405 1.33V59.045l-2.405-1.604V69.32Zm.341-12.477 2.433 1.622 38.692-19.178-2.973-1.35-38.152 18.906ZM91.598 39.83l-38.83 19.246v22.23l38.83-21.272V39.829Zm.687 19.815 1.718-.981v-9.518l-1.718.982v9.517Zm0-10.309 1.292-.738-1.292-.554v1.292ZM52.08 81.683v-9.921l-2.405 1.069V83.02l2.405-1.337ZM48.987 83V72.81L36.96 66.12v9.728L48.987 83ZM37.325 65.537l12.023 6.687 2.305-1.025-11.124-6.147c-.724-.4-1.603-.4-2.327 0l-.877.485Zm34.602-30.57.148.428-.708-.153-.007-.002-.026-.005a8.713 8.713 0 0 0-.533-.084 8.594 8.594 0 0 0-1.33-.07c-.495.016-.991.087-1.41.252-.412.163-.783.428-1.002.87-.142.286-.109.492.007.645.117.154.342.285.688.394.71.224 1.818.318 3.04.33a41.837 41.837 0 0 0 3.415-.126 51.585 51.585 0 0 0 1.325-.116 11.204 11.204 0 0 0 .232-.754c.148-.548.301-1.27.323-1.978.023-.716-.09-1.385-.434-1.845a1.397 1.397 0 0 0-.637-.48c-.246-.094-.569-.141-1.015-.104-.737.06-1.214.253-1.536.504a1.67 1.67 0 0 0-.597.938 2.506 2.506 0 0 0-.035.94 2.817 2.817 0 0 0 .09.41l.002.006Zm3.96 2.572.082.239h-.008l-.024.003-.09.01-.339.034c-.29.029-.701.066-1.19.103-.977.073-2.275.143-3.538.13-1.247-.012-2.53-.106-3.43-.39-.458-.144-.843-.346-1.055-.625-.213-.28-.227-.607-.046-.973.268-.54.747-.906 1.338-1.138.583-.23 1.241-.317 1.838-.336a10.03 10.03 0 0 1 1.557.08l.028.004a2.79 2.79 0 0 1 .027-1.138c.096-.39.31-.811.754-1.158.453-.354 1.13-.617 2.093-.696.617-.051 1.152.01 1.594.177.434.164.738.413.95.695.418.56.526 1.316.503 2.047-.023.738-.182 1.485-.333 2.044a11.793 11.793 0 0 1-.293.923l-.005.013-.001.004-.411-.052Zm0 0 .412.053-.06.155-.27.03-.081-.238ZM51.92 46.461l.148.429-.708-.153-.004-.001-.019-.004a4.871 4.871 0 0 0-.393-.062 6.366 6.366 0 0 0-.982-.052c-.365.012-.722.064-1.02.182-.292.114-.561.304-.721.628-.103.207-.076.35 0 .45.078.102.23.193.479.272.517.163 1.336.234 2.262.244a31.74 31.74 0 0 0 2.58-.096 38.999 38.999 0 0 0 .932-.081l.01-.03c.041-.122.096-.295.152-.501.113-.415.228-.96.245-1.495.017-.541-.07-1.039-.322-1.376a.982.982 0 0 0-.446-.34c-.163-.061-.383-.096-.701-.07-.533.045-.871.182-1.1.36a1.22 1.22 0 0 0-.435.686c-.063.256-.053.51-.026.702a2.124 2.124 0 0 0 .063.29l.005.015v.003Zm2.909 1.966.081.238h-.006l-.019.003a12.893 12.893 0 0 1-.328.034c-.22.021-.535.05-.908.078a33.05 33.05 0 0 1-2.702.1c-.95-.01-1.944-.081-2.65-.304-.363-.114-.674-.276-.847-.503-.173-.228-.181-.49-.039-.779.21-.421.586-.711 1.056-.896.463-.182.982-.25 1.448-.265.411-.013.797.014 1.096.048-.03-.212-.04-.5.033-.798.075-.302.24-.632.592-.906.36-.282.898-.49 1.657-.552.49-.04.921.008 1.28.143.352.133.593.332.759.554.327.437.408 1.021.39 1.578a7.016 7.016 0 0 1-.254 1.56 8.92 8.92 0 0 1-.223.705l-.004.01-.001.004-.411-.052Zm0 0 .41.052-.06.155-.269.031-.081-.238ZM25.294 59.484l.149.429-.708-.153h-.002l-.012-.003a3.18 3.18 0 0 0-.28-.044 4.5 4.5 0 0 0-.695-.037 2.13 2.13 0 0 0-.698.123.879.879 0 0 0-.489.43c-.07.142-.048.231-.004.289.045.059.136.117.305.17.358.113.94.166 1.621.173a23.19 23.19 0 0 0 1.89-.07c.247-.019.457-.038.61-.052a6.42 6.42 0 0 0 .104-.347 4.94 4.94 0 0 0 .18-1.096c.012-.398-.052-.754-.229-.99a.64.64 0 0 0-.289-.224 1.002 1.002 0 0 0-.442-.041c-.364.03-.588.122-.74.24a.85.85 0 0 0-.3.478 1.485 1.485 0 0 0 .026.713l.003.01v.002Zm2.042 1.465.082.238h-.005l-.015.002-.052.006a24.669 24.669 0 0 1-.867.077c-.553.042-1.29.082-2.012.075-.705-.007-1.463-.06-2.01-.232-.283-.089-.534-.218-.673-.402-.14-.185-.144-.395-.034-.618.16-.325.453-.552.824-.698a3.435 3.435 0 0 1 1.125-.206c.254-.008.495.004.697.022a1.583 1.583 0 0 1 .035-.523c.057-.228.183-.483.457-.697.284-.222.708-.385 1.298-.434.384-.031.73.007 1.021.116.284.107.474.266.602.438.251.335.31.778.297 1.192a5.214 5.214 0 0 1-.189 1.162 6.643 6.643 0 0 1-.155.494l-.01.03-.004.008V61l-.412-.052Zm0 0 .411.052-.06.155-.27.031-.08-.238ZM22.03 71.404l.148.429-.708-.154h-.006l-.024-.006a8.104 8.104 0 0 0-.493-.078 7.942 7.942 0 0 0-1.23-.064c-.46.015-.915.08-1.3.232-.378.148-.72.393-.922.8-.13.264-.099.452.005.59.106.14.31.26.629.36.655.206 1.68.294 2.818.305a38.916 38.916 0 0 0 3.177-.118 47.881 47.881 0 0 0 1.213-.106 10.642 10.642 0 0 0 .212-.69c.138-.51.28-1.182.301-1.84.021-.666-.084-1.286-.402-1.711a1.28 1.28 0 0 0-.583-.441c-.222-.084-.516-.128-.925-.094-.68.056-1.117.233-1.412.463a1.541 1.541 0 0 0-.55.866c-.08.319-.067.634-.034.872a2.642 2.642 0 0 0 .078.361l.006.02.002.004Zm3.66 2.4.082.238h-.008l-.022.003-.085.01-.315.032c-.27.026-.654.06-1.11.095-.91.068-2.12.134-3.3.122-1.162-.012-2.362-.099-3.206-.365-.432-.136-.796-.327-.996-.591-.202-.266-.214-.574-.044-.918.25-.506.7-.85 1.257-1.069.548-.216 1.167-.297 1.727-.315a9.363 9.363 0 0 1 1.445.073 2.607 2.607 0 0 1 .03-1.04c.09-.366.289-.76.706-1.087.427-.333 1.065-.58 1.97-.655.58-.048 1.086.01 1.504.168.41.154.697.39.895.655.393.524.493 1.23.472 1.912-.022.69-.17 1.385-.311 1.907a11.059 11.059 0 0 1-.273.86l-.005.013v.003l-.001.001-.411-.052Zm0 0 .412.052-.06.155-.27.03-.081-.237ZM8.542 62.22l.149.429-.708-.153-.004-.001-.019-.004a5.282 5.282 0 0 0-.386-.061 6.247 6.247 0 0 0-.962-.05c-.358.011-.707.062-1 .177-.284.112-.548.298-.705.615-.1.203-.073.342 0 .44.076.099.224.188.468.265.506.16 1.31.23 2.22.239.892.009 1.821-.041 2.532-.095.355-.026.652-.053.86-.073l.052-.005.01-.028c.04-.118.093-.288.148-.491a6.62 6.62 0 0 0 .24-1.468c.017-.532-.067-1.02-.315-1.35a.96.96 0 0 0-.435-.333c-.16-.06-.373-.093-.685-.068-.521.043-.852.178-1.075.352a1.195 1.195 0 0 0-.426.672c-.062.251-.052.5-.026.689a2.069 2.069 0 0 0 .062.284l.004.015.001.004Zm2.852 1.932.081.239h-.006l-.019.002-.068.008-.254.026c-.217.02-.526.049-.893.076a32.53 32.53 0 0 1-2.655.099c-.934-.01-1.913-.08-2.609-.299-.357-.112-.664-.272-.834-.496-.171-.226-.18-.485-.039-.768.206-.416.577-.701 1.04-.883.456-.18.968-.247 1.427-.261.4-.013.776.013 1.07.046a2.109 2.109 0 0 1 .033-.78c.073-.297.236-.622.582-.892.355-.278.886-.483 1.633-.545.483-.04.909.009 1.263.142.347.13.585.328.749.546.322.43.401 1.005.384 1.553a6.898 6.898 0 0 1-.25 1.534 8.756 8.756 0 0 1-.22.692l-.003.01-.001.003-.411-.052Zm0 0 .41.052-.06.156-.269.03-.081-.238Z" fill="#EAD295"/><defs><filter id="a" x="0" y="0" width="98.691" height="88" filterUnits="userSpaceOnUse" color-interpolation-filters="sRGB"><feFlood flood-opacity="0" result="BackgroundImageFix"/><feBlend in="SourceGraphic" in2="BackgroundImageFix" result="shape"/><feGaussianBlur stdDeviation="2" result="effect1_foregroundBlur_507_121"/></filter></defs></svg>