<svg width="426" height="280" viewBox="0 0 426 280" fill="none" xmlns="http://www.w3.org/2000/svg">
<path d="M7.64645 25.6464L7.5 25.7929V26V254V254.207L7.64645 254.354L25.6464 272.354L25.7929 272.5H26H400H400.207L400.354 272.354L418.354 254.354L418.5 254.207V254V26V25.7929L418.354 25.6464L400.354 7.64645L400.207 7.5H400H26H25.7929L25.6464 7.64645L7.64645 25.6464ZM8.5 253.793V26.2071L26.2071 8.5H399.793L417.5 26.2071V253.793L399.793 271.5H26.2071L8.5 253.793ZM0.5 20.2071L20.2071 0.5H405.793L425.5 20.2071V259.793L405.793 279.5H20.2071L0.5 259.793V20.2071Z" stroke="white"/>
</svg>
