<svg width="25" height="24" viewBox="0 0 25 24" fill="none" xmlns="http://www.w3.org/2000/svg">
<path d="M18.864 17.364L12.5 23.728L6.136 17.364C4.87734 16.1053 4.02019 14.5017 3.67293 12.7558C3.32567 11.01 3.50391 9.20041 4.1851 7.55588C4.86629 5.91136 6.01984 4.50575 7.49988 3.51683C8.97992 2.5279 10.72 2.00006 12.5 2.00006C14.28 2.00006 16.0201 2.5279 17.5001 3.51683C18.9802 4.50575 20.1337 5.91136 20.8149 7.55588C21.4961 9.20041 21.6743 11.01 21.3271 12.7558C20.9798 14.5017 20.1227 16.1053 18.864 17.364ZM12.5 13C13.0304 13 13.5391 12.7893 13.9142 12.4142C14.2893 12.0391 14.5 11.5304 14.5 11C14.5 10.4695 14.2893 9.96084 13.9142 9.58577C13.5391 9.2107 13.0304 8.99998 12.5 8.99998C11.9696 8.99998 11.4609 9.2107 11.0858 9.58577C10.7107 9.96084 10.5 10.4695 10.5 11C10.5 11.5304 10.7107 12.0391 11.0858 12.4142C11.4609 12.7893 11.9696 13 12.5 13Z" fill="#B12763"/>
</svg>
