<svg width="126" height="38" viewBox="0 0 126 38" fill="none" xmlns="http://www.w3.org/2000/svg">
<g opacity="0.25" filter="url(#filter0_f_1005:291)">
<path d="M30.2883 33.7057H28.8156L18.5065 21.8985C23.4328 20.1182 27.5785 16.8592 27.5785 12.9529C27.5975 11.8922 27.3959 10.8391 26.9865 9.86029C26.5771 8.88144 25.9688 7.99815 25.2 7.26631C23.4527 5.7085 21.1622 4.89991 18.8231 5.0152H5.06773V32.6905H13.5212L14.2576 33.7131H4V4H18.7274C21.798 4 24.2207 4.846 26.0395 6.5895C26.8912 7.41362 27.5647 8.40356 28.0181 9.49811C28.4716 10.5926 28.6954 11.7685 28.6757 12.9529C28.6757 16.8151 24.8834 20.4492 20.421 22.3178L30.2883 33.7057Z" fill="#B12763"/>
<path d="M60.4647 4V19.9122C60.5508 23.5818 59.2342 27.1462 56.7829 29.8803C54.3602 32.639 51.0466 34 46.8861 34C42.7256 34 39.412 32.639 36.9893 29.8803C34.538 27.1462 33.2214 23.5818 33.3075 19.9122V4H60.4647ZM52.3058 31.8372C53.8332 31.1737 55.1865 30.1667 56.2601 28.8946C58.3006 26.4049 59.4121 23.2845 59.4044 20.0667V5.0152H34.4268V20.0005C34.4268 24.8779 36.8052 29.6302 41.518 31.8813C43.2222 32.6167 45.0601 32.9924 46.9165 32.9848C48.7729 32.9772 50.6077 32.5865 52.3058 31.8372Z" fill="#B12763"/>
<path d="M83.1308 17.2418C84.0676 17.3594 84.9712 17.6635 85.7882 18.1361C86.6053 18.6087 87.3192 19.2401 87.8878 19.9931C89.1193 21.5842 89.7782 23.5435 89.7581 25.5547C89.7581 30.307 86.4077 33.691 80.502 33.691H64.9131V4H80.5462C85.0012 4 87.5122 6.54536 87.5122 9.98087C87.4501 11.1108 87.1753 12.2189 86.7022 13.2472C86.4404 13.7573 86.111 14.23 85.7228 14.6523C85.4548 15.0013 85.1566 15.3263 84.8318 15.6233C84.7066 15.7558 84.4047 16.05 83.8598 16.5576L83.6021 16.8151L83.1308 17.2418ZM65.9735 5.00049V32.0064L82.7921 16.1751C83.6021 15.3732 84.2648 14.7773 84.6183 14.3948C85.1068 13.8347 85.5088 13.2049 85.8112 12.5262C86.2251 11.7573 86.4427 10.8981 86.4445 10.025C86.4445 7.08239 84.3237 5.0152 80.5535 5.0152L65.9735 5.00049ZM80.502 32.6832C85.6566 32.6832 88.6978 29.9245 88.6978 25.5547C88.762 23.6693 88.1096 21.8295 86.8716 20.4051C86.2923 19.7296 85.5846 19.1757 84.7896 18.7754C83.9945 18.3751 83.1279 18.1364 82.2398 18.0731L66.7761 32.6684L80.502 32.6832Z" fill="#B12763"/>
<path d="M91.2896 4H92.3499V33.691H91.2896V4Z" fill="#B12763"/>
<path d="M120.406 4H121.474V33.691H94.4121V4H95.8848L120.428 32.1756L120.406 4ZM95.4798 5.1844V32.6832H119.404L95.4798 5.1844Z" fill="#B12763"/>
<path d="M4.85419 4.47096L4 5.27282L28.7404 33.6343H30.2301L4.85419 4.47096Z" fill="#B12763"/>
</g>
<path d="M64.8131 33.791V33.691V4V3.9H64.9131H80.5462C82.7925 3.9 84.5598 4.54192 85.7667 5.62778C86.9745 6.71436 87.6122 8.23763 87.6122 9.98087V9.98637L87.6121 9.98636C87.5492 11.1289 87.2714 12.2493 86.7931 13.289L86.7913 13.2929L86.7912 13.2928C86.5259 13.8097 86.1924 14.2886 85.7995 14.7167C85.5293 15.0681 85.229 15.3953 84.902 15.6947C84.773 15.8308 84.4697 16.1262 83.9293 16.6296C83.9289 16.63 83.9284 16.6304 83.928 16.6308L83.6728 16.8858L83.6693 16.8893L83.6692 16.8892L83.3563 17.1726C84.2301 17.309 85.0718 17.6062 85.8383 18.0495C86.6668 18.5287 87.3907 19.1689 87.9672 19.9324C87.9673 19.9325 87.9674 19.9327 87.9676 19.9329L87.8878 19.9931C89.1193 21.5842 89.7782 23.5435 89.7581 25.5547L64.8131 33.791ZM64.8131 33.791H64.9131H80.502C83.4737 33.791 85.8138 32.9394 87.4121 31.4788C89.011 30.0177 89.8579 27.9559 89.8581 25.5557L64.8131 33.791ZM30.2883 33.8057H30.5073L30.4454 33.7343H30.4497L30.3055 33.5686L29.4316 32.5642L20.5867 22.3563C22.7802 21.4187 24.8068 20.0569 26.2951 18.4509C27.8113 16.8149 28.7754 14.918 28.7757 12.9538C28.7955 11.7559 28.5691 10.5668 28.1105 9.45983C27.6518 8.35264 26.9706 7.35126 26.109 6.51764L26.1087 6.51731C24.267 4.75193 21.8173 3.9 18.7274 3.9H4H3.9V4V5.22954L3.86126 5.2659L3.9 5.31031V33.7131V33.8131H4H14.2576H14.4529L14.3388 33.6546L13.6024 32.6321L13.5725 32.5905H13.5212H5.16773V6.76359L28.665 33.7L28.6949 33.7343H28.7078L28.7403 33.7715L28.7702 33.8057H28.8156H30.2883ZM24.822 18.1495C23.4514 19.415 21.6509 20.4987 19.6635 21.3383L5.54732 5.1152H18.8231V5.11532L18.828 5.11508C21.1403 5.0011 23.4047 5.80024 25.1323 7.33986C25.8904 8.06195 26.4904 8.93331 26.8943 9.89888C27.2983 10.8649 27.4973 11.9043 27.4785 12.9511H27.4785V12.9529C27.4785 14.8685 26.4622 16.6351 24.822 18.1495ZM60.5647 4V3.9H60.4647H33.3075H33.2075V4V19.9111C33.1211 23.6055 34.4467 27.194 36.9145 29.9467C39.3591 32.7302 42.7019 34.1 46.8861 34.1C51.0704 34.1 54.4132 32.7301 56.8577 29.9467C59.3256 27.1939 60.6511 23.6054 60.5647 19.911V4ZM52.2659 31.7455L52.2654 31.7457C50.5799 32.4894 48.7587 32.8772 46.9161 32.8848C45.0741 32.8923 43.2505 32.5197 41.5594 31.7903C36.8887 29.5584 34.5268 24.8461 34.5268 20.0005V5.1152H59.3044V20.0667V20.0669C59.312 23.2613 58.2087 26.359 56.1832 28.8306C55.1196 30.0907 53.779 31.0882 52.2659 31.7455ZM85.7232 12.4788L85.7229 12.4787L85.7199 12.4855C85.4217 13.1546 85.0254 13.7756 84.5439 14.3279C84.3492 14.5386 84.0621 14.8124 83.7065 15.1516C83.4191 15.4257 83.087 15.7424 82.7227 16.1031C82.7224 16.1034 82.7221 16.1037 82.7217 16.104L66.0735 31.7749V5.10059L80.5534 5.1152C82.4209 5.1152 83.8679 5.627 84.8466 6.49157C85.8242 7.35505 86.3444 8.57889 86.3445 10.0248C86.3427 10.8814 86.1293 11.7244 85.7232 12.4788ZM88.5978 25.5513V25.5547C88.5978 27.7151 87.8469 29.4682 86.4668 30.6825C85.0852 31.8981 83.0622 32.5832 80.502 32.5832L67.0275 32.5687L82.2764 18.1761C83.136 18.2431 83.9744 18.477 84.7446 18.8648C85.5279 19.2591 86.225 19.8048 86.7957 20.4702L86.7961 20.4707C88.0175 21.8761 88.6612 23.6912 88.5978 25.5513ZM91.2896 3.9H91.1896V4V33.691V33.791H91.2896H92.3499H92.4499V33.691V4V3.9H92.3499H91.2896ZM120.406 3.9H120.306L120.306 4.00008L120.328 31.9083L95.9602 3.93432L95.9304 3.9H95.8848H94.4121H94.3121V4V33.691V33.791H94.4121H121.474H121.574V33.691V4V3.9H121.474H120.406ZM119.185 32.5832H95.5798V5.4517L119.185 32.5832Z" fill="#B12763" stroke="#B12763" stroke-width="0.2"/>
<defs>
<filter id="filter0_f_1005:291" x="0" y="0" width="125.474" height="38" filterUnits="userSpaceOnUse" color-interpolation-filters="sRGB">
<feFlood flood-opacity="0" result="BackgroundImageFix"/>
<feBlend mode="normal" in="SourceGraphic" in2="BackgroundImageFix" result="shape"/>
<feGaussianBlur stdDeviation="2" result="effect1_foregroundBlur_1005:291"/>
</filter>
</defs>
</svg>
