<svg width="52" height="48" viewBox="0 0 52 48" fill="none" xmlns="http://www.w3.org/2000/svg">
<path d="M26.0024 4.64165L25.6686 4.34282C19.7397 -0.965398 10.6217 -0.774291 4.92154 4.91605L26.0024 4.64165ZM26.0024 4.64165L26.3359 4.34256M26.0024 4.64165L26.3359 4.34256M26.3359 4.34256C32.247 -0.957891 41.3827 -0.781565 47.0771 4.91566M26.3359 4.34256L47.0771 4.91566M47.0771 4.91566C52.7669 10.6134 52.9657 19.6841 47.681 25.6052M47.0771 4.91566L47.681 25.6052M47.681 25.6052L25.997 47.2928L4.31807 25.6052C-0.966781 19.684 -0.764944 10.5981 4.92139 4.91621L47.681 25.6052Z" fill="white" stroke="#B12763"/>
</svg>
