<svg width="30" height="24" viewBox="0 0 30 24" fill="none" xmlns="http://www.w3.org/2000/svg">
<g clip-path="url(#clip0_1193_19)">
<path d="M9.04015 5.05067C8.59044 3.52715 7.36976 3.69413 6.53515 4.40372C4.47921 6.30283 1.80221 10.289 3.51551 16.0287C4.95037 20.8913 10.9209 24.001 10.9209 24.001H3.96086C3.96086 24.001 0.367117 19.9731 0.0458588 15.2357C-0.361031 9.2462 2.03775 5.46873 4.82184 3.0062C7.43458 0.689649 9.91885 0.000976562 9.91885 0.000976562L15.0006 16.651L20.0823 0.000976562C20.0823 0.000976562 22.5666 0.689651 25.1793 3.0062C27.9634 5.46873 30.3622 9.2462 29.9553 15.2357C29.6341 19.9731 26.0403 24.001 26.0403 24.001H19.0803C19.0803 24.001 25.0503 20.8913 26.4857 16.0287C28.199 10.2896 25.522 6.30349 23.466 4.40372C22.6308 3.69413 21.4101 3.52715 20.961 5.05067C19.4191 9.91328 15.0012 23.8457 15.0012 23.8457C15.0012 23.8457 10.5834 9.90863 9.04141 5.05067H9.04015Z" fill="#C83732"/>
</g>
<defs>
<clipPath id="clip0_1193_19">
<rect width="30" height="24" fill="white"/>
</clipPath>
</defs>
</svg>
