<svg width="62" height="28" viewBox="0 0 62 28" fill="none" xmlns="http://www.w3.org/2000/svg">
<path d="M0.646446 14.3536C0.451184 14.1583 0.451184 13.8417 0.646446 13.6464L3.82843 10.4645C4.02369 10.2692 4.34027 10.2692 4.53553 10.4645C4.7308 10.6597 4.7308 10.9763 4.53553 11.1716L1.70711 14L4.53553 16.8284C4.7308 17.0237 4.7308 17.3403 4.53553 17.5355C4.34027 17.7308 4.02369 17.7308 3.82843 17.5355L0.646446 14.3536ZM9 14.5H1V13.5H9V14.5Z" fill="#BEBDBF"/>
<path d="M17.5 24.6429V3.35711L20.3571 0.5H41.6429L44.5 3.35711V24.6429L41.6429 27.5H20.3571L17.5 24.6429Z" stroke="#BEBDBF"/>
<circle cx="31.5" cy="13.5" r="3" stroke="#7B767A"/>
<path d="M32 14L35.5 24.5L37 19L42 17.5L32 14Z" fill="#37383D"/>
<path d="M35.5 24.5L35.0257 24.6581C35.0953 24.8671 35.2936 25.0059 35.5139 24.9998C35.7341 24.9937 35.9244 24.8441 35.9824 24.6316L35.5 24.5ZM32 14L32.1652 13.5281C31.9852 13.4651 31.785 13.51 31.6491 13.6438C31.5132 13.7777 31.4653 13.9772 31.5257 14.1581L32 14ZM42 17.5L42.1437 17.9789C42.3512 17.9167 42.495 17.7279 42.4999 17.5113C42.5048 17.2947 42.3696 17.0996 42.1652 17.0281L42 17.5ZM37 19L36.8563 18.5211C36.6911 18.5707 36.563 18.702 36.5176 18.8684L37 19ZM35.9743 24.3419L32.4743 13.8419L31.5257 14.1581L35.0257 24.6581L35.9743 24.3419ZM31.8348 14.4719L41.8348 17.9719L42.1652 17.0281L32.1652 13.5281L31.8348 14.4719ZM41.8563 17.0211L36.8563 18.5211L37.1437 19.4789L42.1437 17.9789L41.8563 17.0211ZM36.5176 18.8684L35.0176 24.3684L35.9824 24.6316L37.4824 19.1316L36.5176 18.8684Z" fill="#BEBDBF"/>
<path d="M61.3536 14.3536C61.5488 14.1583 61.5488 13.8417 61.3536 13.6464L58.1716 10.4645C57.9763 10.2692 57.6597 10.2692 57.4645 10.4645C57.2692 10.6597 57.2692 10.9763 57.4645 11.1716L60.2929 14L57.4645 16.8284C57.2692 17.0237 57.2692 17.3403 57.4645 17.5355C57.6597 17.7308 57.9763 17.7308 58.1716 17.5355L61.3536 14.3536ZM53 14.5H61V13.5H53V14.5Z" fill="#BEBDBF"/>
</svg>
