<svg width="770" height="1026" fill="none" xmlns="http://www.w3.org/2000/svg"><path d="M385 1025V1M1.148 513H768.85M1.148 65H768.85M1.148 961H768.85m-575.775 64V1m383.723 1024 .527-1024m167.407 1024 .527-1024M25.14 1025V1M1.145 1025 385 1M1.147 1025 193.075 1m575.78 1024L385 1m383.853 1024L576.925 1M384.994 1025 768.85 1M1.143 1024.99 768.85 1M1.149 512.992 768.85 1M1.148 513l767.701 512m-191.927 0L768.85 1M385.005 1025 1.15 1m767.802 1023.59L1.15 1m767.701 511.992L1.15 1m767.699 512-767.7 512m191.929 0L1.15 1" stroke="#9C9C9C" stroke-opacity=".2"/></svg>