<svg width="770" height="1026" preserveAspectRatio="none" fill="none" xmlns="http://www.w3.org/2000/svg"><path d="M385.001 1025V1M1.15 513h767.7M1.15 65h767.7M1.15 961h767.7m-575.774 64V1m383.723 1024 .526-1024m167.408 1024L745.26 1M25.14 1025V1M1.146 1025 385 1M1.148 1025 193.076 1m575.78 1024L385.001 1m383.853 1024L576.926 1M384.994 1025 768.85 1M1.143 1024.99 768.85 1M1.149 512.992 768.85 1M1.15 513l767.7 512m-191.928 0L768.85 1M385.006 1025 1.15 1m767.803 1023.59L1.15 1m767.701 511.992L1.151 1M768.85 513 1.15 1025m191.928 0L1.15 1" stroke="#36383C"/></svg>