<svg width="1920" height="1082" fill="none" xmlns="http://www.w3.org/2000/svg"><path d="M959.999 1081V1m-192 1080V1M1152 1081l1-1080M0 541h1920M0 361h1920M0 271h1920M0 68.5h1920M-.001 1013.5H1920M0 811h1920M0 721h1920M479.999 1081V1M1440 1081l1-1080m95 1080 1-1080m63 1080 1-1080m79 1080 1-1080m119 1080 1-1080m59 1080 1-1080M60 1081V1m179.999 1080V1m-120 1080V1m200 1080V1m64 1080V1m-384 1080 960-1080M0 1081 479.998 1M1920 1081 959.999 1M1920 1081 1440 1M959.999 1081 1920 1M0 1081 1920 1M-.001 541 1920 1M-.001 541 1920 1081m-480 0L1920 1M959.999 1081-.001 1M1920.24 1080.57 0 1m1920 540L0 1m1920 540L0 1081m479.999 0L-.001 1" stroke="#9C9C9C" stroke-opacity=".2" stroke-width=".5"/></svg>