<svg width="1920" height="1082" viewBox="0 0 1920 1082" fill="none" xmlns="http://www.w3.org/2000/svg">
<path d="M959.999 1081L959.999 1" stroke="#9C9C9C" stroke-opacity="0.4" stroke-width="0.5"/>
<path d="M767.999 1081L767.999 1" stroke="#9C9C9C" stroke-opacity="0.4" stroke-width="0.5"/>
<path d="M1152 1081L1153 1" stroke="#9C9C9C" stroke-opacity="0.4" stroke-width="0.5"/>
<path d="M-0.000915527 541L1920 541" stroke="#9C9C9C" stroke-opacity="0.4" stroke-width="0.5"/>
<path d="M-0.000915527 361L1920 361" stroke="#9C9C9C" stroke-opacity="0.4" stroke-width="0.5"/>
<path d="M-0.000915527 271L1920 271" stroke="#9C9C9C" stroke-opacity="0.4" stroke-width="0.5"/>
<path d="M-0.000915527 68.5L1920 68.5" stroke="#9C9C9C" stroke-opacity="0.4" stroke-width="0.5"/>
<path d="M-0.000976562 1013.5H1920" stroke="#9C9C9C" stroke-opacity="0.4" stroke-width="0.5"/>
<path d="M-0.000915527 811L1920 811" stroke="#9C9C9C" stroke-opacity="0.4" stroke-width="0.5"/>
<path d="M-0.000915527 721L1920 721" stroke="#9C9C9C" stroke-opacity="0.4" stroke-width="0.5"/>
<path d="M479.999 1081L479.999 1" stroke="#9C9C9C" stroke-opacity="0.4" stroke-width="0.5"/>
<path d="M1440 1081L1441 1" stroke="#9C9C9C" stroke-opacity="0.4" stroke-width="0.5"/>
<path d="M1536 1081L1537 1" stroke="#9C9C9C" stroke-opacity="0.4" stroke-width="0.5"/>
<path d="M1600 1081L1601 1" stroke="#9C9C9C" stroke-opacity="0.4" stroke-width="0.5"/>
<path d="M1680 1081L1681 1" stroke="#9C9C9C" stroke-opacity="0.4" stroke-width="0.5"/>
<path d="M1800 1081L1801 1" stroke="#9C9C9C" stroke-opacity="0.4" stroke-width="0.5"/>
<path d="M1860 1081L1861 1" stroke="#9C9C9C" stroke-opacity="0.4" stroke-width="0.5"/>
<path d="M59.9992 1081L59.9993 1" stroke="#9C9C9C" stroke-opacity="0.4" stroke-width="0.5"/>
<path d="M239.999 1081L239.999 1" stroke="#9C9C9C" stroke-opacity="0.4" stroke-width="0.5"/>
<path d="M119.999 1081L119.999 1" stroke="#9C9C9C" stroke-opacity="0.4" stroke-width="0.5"/>
<path d="M319.999 1081L319.999 1" stroke="#9C9C9C" stroke-opacity="0.4" stroke-width="0.5"/>
<path d="M383.999 1081L383.999 1" stroke="#9C9C9C" stroke-opacity="0.4" stroke-width="0.5"/>
<path d="M-0.00101807 1081L959.999 1" stroke="#9C9C9C" stroke-opacity="0.4" stroke-width="0.5"/>
<path d="M-0.000727567 1081L479.999 1" stroke="#9C9C9C" stroke-opacity="0.4" stroke-width="0.5"/>
<path d="M1920 1081L959.999 1" stroke="#9C9C9C" stroke-opacity="0.4" stroke-width="0.5"/>
<path d="M1920 1081L1440 1" stroke="#9C9C9C" stroke-opacity="0.4" stroke-width="0.5"/>
<path d="M959.999 1081L1920 1" stroke="#9C9C9C" stroke-opacity="0.4" stroke-width="0.5"/>
<path d="M-0.000939868 1081L1920 1" stroke="#9C9C9C" stroke-opacity="0.4" stroke-width="0.5"/>
<path d="M-0.00102007 541L1920 1" stroke="#9C9C9C" stroke-opacity="0.4" stroke-width="0.5"/>
<path d="M-0.00102007 541L1920 1081" stroke="#9C9C9C" stroke-opacity="0.4" stroke-width="0.5"/>
<path d="M1440 1081L1920 1" stroke="#9C9C9C" stroke-opacity="0.4" stroke-width="0.5"/>
<path d="M959.999 1081L-0.000732422 1" stroke="#9C9C9C" stroke-opacity="0.4" stroke-width="0.5"/>
<path d="M1920.24 1080.57L-0.000732422 1" stroke="#9C9C9C" stroke-opacity="0.4" stroke-width="0.5"/>
<path d="M1920 541L-0.000732422 1" stroke="#9C9C9C" stroke-opacity="0.4" stroke-width="0.5"/>
<path d="M1920 541L-0.000732422 1081" stroke="#9C9C9C" stroke-opacity="0.4" stroke-width="0.5"/>
<path d="M479.999 1081L-0.000732422 1" stroke="#9C9C9C" stroke-opacity="0.4" stroke-width="0.5"/>
</svg>
