<svg width="770" height="1026" viewBox="0 0 770 1026" fill="none" xmlns="http://www.w3.org/2000/svg">
<path d="M385 1025L385 1" stroke="#9C9C9C" stroke-opacity="0.2"/>
<path d="M1.14839 513L768.849 513" stroke="#9C9C9C" stroke-opacity="0.2"/>
<path d="M1.14839 65L768.849 65" stroke="#9C9C9C" stroke-opacity="0.2"/>
<path d="M1.1484 961L768.849 961" stroke="#9C9C9C" stroke-opacity="0.2"/>
<path d="M193.075 1025L193.075 1" stroke="#9C9C9C" stroke-opacity="0.2"/>
<path d="M576.798 1025L577.325 1" stroke="#9C9C9C" stroke-opacity="0.2"/>
<path d="M744.732 1025L745.259 1" stroke="#9C9C9C" stroke-opacity="0.2"/>
<path d="M25.1396 1025L25.1396 1" stroke="#9C9C9C" stroke-opacity="0.2"/>
<path d="M1.14482 1025L385 1" stroke="#9C9C9C" stroke-opacity="0.2"/>
<path d="M1.14725 1025L193.075 1" stroke="#9C9C9C" stroke-opacity="0.2"/>
<path d="M768.855 1025L385 1" stroke="#9C9C9C" stroke-opacity="0.2"/>
<path d="M768.853 1025L576.925 1" stroke="#9C9C9C" stroke-opacity="0.2"/>
<path d="M384.994 1025L768.85 1" stroke="#9C9C9C" stroke-opacity="0.2"/>
<path d="M1.1433 1024.99L768.85 1" stroke="#9C9C9C" stroke-opacity="0.2"/>
<path d="M1.14881 512.992L768.85 1" stroke="#9C9C9C" stroke-opacity="0.2"/>
<path d="M1.14832 513L768.849 1025" stroke="#9C9C9C" stroke-opacity="0.2"/>
<path d="M576.922 1025L768.85 1" stroke="#9C9C9C" stroke-opacity="0.2"/>
<path d="M385.005 1025L1.1499 1" stroke="#9C9C9C" stroke-opacity="0.2"/>
<path d="M768.952 1024.59L1.1499 1" stroke="#9C9C9C" stroke-opacity="0.2"/>
<path d="M768.851 512.992L1.1499 1" stroke="#9C9C9C" stroke-opacity="0.2"/>
<path d="M768.849 513L1.14893 1025" stroke="#9C9C9C" stroke-opacity="0.2"/>
<path d="M193.078 1025L1.1499 1" stroke="#9C9C9C" stroke-opacity="0.2"/>
</svg>
